SplineFontDB: 3.0
FontName: Butchermann-Caps
FullName: Butchermann-Caps
FamilyName: Butchermann-Caps
Weight: Book
Copyright: Copyright (c) 2011 by Typomondo. All rights reserved.
Version: 1.000
ItalicAngle: 0
UnderlinePosition: -103
UnderlineWidth: 102
Ascent: 1638
Descent: 410
sfntRevision: 0x00010000
LayerCount: 2
Layer: 0 0 "Back"  1
Layer: 1 0 "Fore"  0
NeedsXUIDChange: 1
XUID: [1021 14 500265001 2435846]
FSType: 0
OS2Version: 3
OS2_WeightWidthSlopeOnly: 0
OS2_UseTypoMetrics: 1
CreationTime: 1319269805
ModificationTime: 1319271915
PfmFamily: 17
TTFWeight: 400
TTFWidth: 5
LineGap: 0
VLineGap: 0
Panose: 2 0 0 0 0 0 0 0 0 0
OS2TypoAscent: 900
OS2TypoAOffset: 1
OS2TypoDescent: -953
OS2TypoDOffset: 1
OS2TypoLinegap: 0
OS2WinAscent: 0
OS2WinAOffset: 1
OS2WinDescent: 0
OS2WinDOffset: 1
HheadAscent: 0
HheadAOffset: 1
HheadDescent: 0
HheadDOffset: 1
OS2SubXSize: 1331
OS2SubYSize: 1228
OS2SubXOff: 0
OS2SubYOff: 153
OS2SupXSize: 1331
OS2SupYSize: 1228
OS2SupXOff: 0
OS2SupYOff: 716
OS2StrikeYSize: 102
OS2StrikeYPos: 754
OS2Vendor: 'typm'
OS2CodePages: 00000001.00000000
OS2UnicodeRanges: 00000003.00000000.00000000.00000000
Lookup: 4 0 1 "'liga' Standard Ligatures in Latin lookup 0"  {"'liga' Standard Ligatures in Latin lookup 0 subtable"  } ['liga' ('DFLT' <'dflt' > 'latn' <'dflt' > ) ]
MarkAttachClasses: 1
DEI: 91125
MacFeat: 0 0 0
MacName: 0 0 24 "All Typographic Features"
MacName: 0 1 24 "Fonctions typographiques"
MacName: 0 2 33 "Alle typografischen M\232glichkeiten"
MacName: 0 3 21 "Funzioni Tipografiche"
MacName: 0 4 28 "Alle typografische kenmerken"
MacSetting: 0
MacName: 0 0 17 "All Type Features"
MacName: 0 1 31 "Toutes fonctions typographiques"
MacName: 0 2 23 "Alle Auszeichnungsarten"
MacName: 0 3 17 "Tutte le Funzioni"
MacName: 0 4 18 "Alle typekenmerken"
MacFeat: 1 0 0
MacName: 0 0 9 "Ligatures"
MacName: 0 1 9 "Ligatures"
MacName: 0 2 9 "Ligaturen"
MacName: 0 3 8 "Legature"
MacName: 0 4 9 "Ligaturen"
MacSetting: 2
MacName: 0 0 16 "Common Ligatures"

StartChar: .notdef
Encoding: 65536 -1 0
Width: 748
Flags: HW
LayerCount: 2
Fore
SplineSet
136 68 m 1
 544 68 l 1
 544 1297 l 1
 136 1297 l 1
 136 68 l 1
68 0 m 1
 68 1365 l 1
 612 1365 l 1
 612 0 l 1
 68 0 l 1
EndSplineSet
EndChar

StartChar: exclam
Encoding: 33 33 6
Width: 718
GlyphClass: 2
Flags: HW
LayerCount: 2
Fore
SplineSet
370 975 m 1
 349.313565652 975 270.662675596 959 250 959 c 0
 229.333333333 959 219 1036 219 1190 c 1
 221 1330 l 2
 223 1507.33333333 183.666666667 1702.66666667 103 1916 c 1
 114.333333333 1938 121.166666667 1971.16666667 123.5 2015.5 c 128
 125.833333333 2059.83333333 129.333333333 2090 134 2106 c 1
 158 2121 l 1
 160 2127 l 1
 160 2156.96784936 101.128635318 2222.63719486 84 2242 c 1
 76 2316 63 2383 45 2443 c 1
 54 2458 l 1
 82 2457 l 2
 106.666666667 2457 144.5 2469.66666667 195.5 2495 c 128
 246.5 2520.33333333 283.666666667 2534.66666667 307 2538 c 1
 300 2492 l 1
 319.333333333 2499.33333333 348 2503.16666667 386 2503.5 c 128
 424 2503.83333333 449.333333333 2505 462 2507 c 1
 481.328569464 2495.57857259 625.764231432 2456.23576857 641 2441 c 1
 639 2362 l 1
 659 2352 l 1
 636.014434626 2329.01443463 589.420143255 2235.24892012 569 2211 c 1
 596 2165 l 1
 580.666666667 2118.33333333 568 2039.33333333 558 1928 c 128
 548 1816.66666667 531.333333333 1733.66666667 508 1679 c 1
 511.631449149 1658.42178815 540 1590.7529373 540 1565 c 1
 536 1538 l 1
 524.666666667 1524.66666667 519 1510.33333333 519 1495 c 0
 519 1493.66666667 520 1486 522 1472 c 1
 501 1497 l 1
 501 1470.33333333 509 1438 525 1400 c 1
 510 1402 l 1
 495.938082073 1402 485.610526634 1388.74035109 477 1383 c 1
 497.666666667 1383 508 1340.33333333 508 1255 c 0
 508 1168.28206797 494.576405522 1039.77988939 460 981 c 1
 487.333333333 972.333333333 501 953 501 923 c 2
 501 913 l 1
 460 947 l 1
 459 938 l 1
 432 934 l 1
 406.621344473 934 370 943.866188783 370 969 c 2
 370 975 l 1
501 133 m 0
 459.423162467 133 328.190942557 120.561724168 309 100 c 1
 306.493254628 100 294.724337969 98 292 98 c 0
 285.267336087 98 262.726184253 100 256 100 c 0
 222.666666667 100 202.333333333 92.3333333333 195 77 c 1
 190.276062933 91.1718112004 185.40645374 103.656220894 169 106 c 1
 161.666666667 90 152 82 140 82 c 2
 134 82 l 1
 142.666666667 181.333333333 147 251.333333333 147 292 c 0
 147 332 142.666666667 406.333333333 134 515 c 1
 132 515 l 2
 122 515 113.333333333 530.833333333 106 562.5 c 128
 98.6666666667 594.166666667 93.6666666667 610 91 610 c 1
 90 608 l 1
 86.3903073403 630.861386845 66.1723254372 657.578098504 42 659 c 1
 66 675 l 1
 78 672.333333333 86.3333333333 671 91 671 c 0
 108.333333333 671 120.666666667 679.666666667 128 697 c 1
 279 704 l 1
 286.333333333 712 300 716 320 716 c 2
 348 716 l 2
 372.198453671 716 450.561524177 730 475 730 c 0
 504.333333333 730 537 724 573 712 c 1
 577 714.666666667 580 716 582 716 c 0
 590.623072468 716 623.732880329 698.038159953 631 697 c 1
 623.891608932 663.235142427 614.470945612 530.767564894 610 495 c 1
 613.237688504 488.524622991 621 479.311938429 621 470 c 1
 608 464 l 1
 614 455.333333333 624.333333333 449.666666667 639 447 c 1
 615 123 l 1
 609.178224058 123 592.817456169 125 587 125 c 0
 581 125 564 119.333333333 536 108 c 1
 529.420677896 111.759612631 525 117.18797295 525 125 c 128
 525 131.813274849 511.376296703 133 501 133 c 0
EndSplineSet
EndChar

StartChar: quotedbl
Encoding: 34 34 7
Width: 1109
GlyphClass: 2
Flags: HW
LayerCount: 2
Fore
SplineSet
341 1511 m 0
 368.349734046 1511 464.508050558 1488.8456604 495 1492 c 1
 493 1412 l 1
 482.649967761 1378.36239522 500.834847669 1196.20871192 468 1188 c 1
 455.785741124 1113.60405958 430.245890566 856.34746679 419 781 c 1
 408 794 l 1
 391 794 l 2
 382.160510365 794 351.486353018 778.069479003 344 777 c 1
 359 799 l 1
 329 799 309.666666667 790 301 772 c 1
 299 772 l 2
 293 772 290 766.333333333 290 755 c 1
 275 772 l 1
 263 758.666666667 252 751.333333333 242 750 c 1
 215.333333333 824.666666667 189.5 939.166666667 164.5 1093.5 c 128
 139.5 1247.83333333 114.333333333 1361.33333333 89 1434 c 1
 107.246367665 1434 96 1455.29511618 96 1467 c 1
 99.2925237285 1471.93878559 126.431804997 1496.15147999 129 1503 c 1
 205.666666667 1499.66666667 252.666666667 1498 270 1498 c 0
 283.570939167 1498 327.441480181 1511 341 1511 c 0
839 1518 m 0
 867.496964267 1518 958.871837441 1484.5685293 991 1489 c 1
 995.666666667 1472.33333333 998 1454 998 1434 c 0
 998 1402.02198267 982.955482233 1211.74525966 963 1201 c 1
 960.031593099 1055.54806185 927.844906893 918.055553086 902 794 c 1
 883 794 l 2
 871.687272366 794 841.524457309 778.190557164 832 777 c 1
 848 799 l 1
 814.666666667 799 794.666666667 790 788 772 c 1
 786 772 l 1
 776 755 l 1
 762 772 l 1
 750 758.666666667 739.666666667 751.333333333 731 750 c 1
 732 801 l 1
 732 1033.34275446 640.346988581 1273.33445481 600 1467 c 1
 608.989819166 1478.98642556 624.473108908 1487.77058745 631 1503 c 1
 646.392715109 1503 702.624024012 1496 718 1496 c 0
 739.294014947 1496 817.414469512 1518 839 1518 c 0
EndSplineSet
EndChar

StartChar: numbersign
Encoding: 35 35 8
Width: 1195
GlyphClass: 2
Flags: HW
LayerCount: 2
Fore
SplineSet
684 806 m 1
 673 806 l 130
 656.948326666 806 653 815.895565697 653 832 c 1
 684 811 l 1
 688 832 l 1
 653 832 l 1
 655 842 l 1
 622 837 l 1
 617 811 l 1
 574.333333333 805.666666667 522.333333333 803 461 803 c 1
 398 600 l 1
 394 592 l 1
 397.333333333 582 399 568.333333333 399 551 c 1
 396.95162212 522.322709681 385.190172796 499.446492651 373.5 472 c 128
 365.833333333 454 361.666666667 444.666666667 361 444 c 2
 375 444 l 1
 385 435.333333333 393.666666667 431 401 431 c 0
 452.847105931 427.46497005 612.596932718 440.344876635 665 437 c 1
 725 805 l 1
 718 806 l 1
 719 801 l 1
 688 799 l 1
 684 806 l 1
1102 1013 m 1
 1092.4655689 974.862275613 1093.49276593 914.869786751 1091 870 c 1
 1095 846 1093.33333333 824.333333333 1086 805 c 1
 956 803 l 1
 950 830.333333333 939.333333333 845 924 847 c 1
 922 839 l 1
 947 824 l 1
 917 822 l 1
 868 613 l 1
 857 618 l 1
 845 592 l 1
 849 580 851 566.333333333 851 551 c 0
 852.04423554 528.026818129 815.915657762 457.662631049 812 442 c 1
 811 444 l 1
 809 459 l 1
 806 440 l 1
 1010 447 l 1
 942 353 l 1
 934 353 l 1
 947 330 l 1
 934 332 l 1
 920.933502075 300.267076468 929.800573262 267.906019247 926 228 c 1
 926 207.333333333 923.333333333 192 918 182 c 1
 798 174 l 1
 799 189 l 1
 794.333333333 204.333333333 785.333333333 212 772 212 c 1
 764 211 l 1
 796 195 l 1
 787.59941976 195 754.80675923 191 747 191 c 1
 746.333333333 177 737.166666667 141.166666667 719.5 83.5 c 128
 701.833333333 25.8333333333 693.666666667 -6 695 -12 c 1
 695 -25.3333333333 692 -36.6666666667 686 -46 c 1
 686.666666667 -68 681.166666667 -98.5 669.5 -137.5 c 128
 657.833333333 -176.5 651.333333333 -200.333333333 650 -209 c 1
 618.79919674 -203.32712668 578.680045273 -176.428224642 538 -186 c 1
 536.666666667 -184 536 -180.333333333 536 -175 c 0
 530.365306011 -25.6806092862 586.697917677 76.1843777273 627 185 c 1
 617 191 l 1
 605.666666667 191 590 188.333333333 570 183 c 1
 574 178 l 1
 542 176 l 1
 537 183 l 1
 533.528056703 183 523.469243439 182 520 182 c 128
 509.653614382 182 507 189.918339921 507 201 c 1
 537 185 l 1
 542 201 l 1
 507 201 l 1
 509 207 l 1
 475 205 l 1
 472 185 l 1
 430 178.333333333 369.333333333 177.666666667 290 183 c 1
 272 94.3333333333 252 32.6666666667 230 -2 c 1
 242 -7 l 1
 242 -23.6666666667 238.666666667 -36.6666666667 232 -46 c 1
 229.906185173 -104.626815162 205.582468867 -156.186618307 193 -204 c 1
 189 -205 l 1
 177 -178 l 1
 156 -165 l 1
 168 -122 l 1
 164 -113 l 1
 150.010438834 -118.087113151 111.491973793 -159.836008736 96 -165 c 1
 101 -155 l 1
 77.8603492939 -172.35473803 70 -134.411578678 70 -111 c 0
 71.3333333333 -37.6666666667 106.333333333 63.3333333333 175 192 c 1
 131 214 l 1
 126.333333333 199.333333333 116.333333333 192 101 192 c 0
 81.6666666667 192 53.6666666667 199.333333333 17 214 c 1
 24 450 l 1
 199 439 l 1
 306 834 l 1
 286 849 l 1
 286 832.700776708 273.611185319 822 258 822 c 0
 225.190940484 822 194.987601844 838.670799385 170 847 c 1
 179 1174 l 1
 413 1174 l 1
 413 1296 l 1
 438.672671869 1343.84452485 497.221352113 1542.23034571 520 1594 c 1
 530 1580 l 1
 541.333333333 1580 556.333333333 1584.66666667 575 1594 c 1
 585 1584 l 1
 601 1594 l 1
 643 1586 l 1
 625.321282574 1519.21373417 580.718884032 1283.80525714 565 1217 c 1
 572 1219 l 1
 572 1195.82177189 562.217257452 1171.30354471 559 1152 c 1
 595 1160 648 1164.66666667 718 1166 c 128
 788 1167.33333333 837.333333333 1170.66666667 866 1176 c 1
 866 1228.66666667 865.333333333 1273.33333333 864 1310 c 1
 882.290832362 1375.8469965 958.489931933 1475.7953063 938 1568 c 1
 995 1614 l 1
 1012 1596 l 1
 977 1582 l 1
 988 1580 l 1
 999.333333333 1580 1015.66666667 1584.66666667 1037 1594 c 1
 1049 1584 l 1
 1067 1594 l 1
 1113 1586 l 1
 1106.33333333 1534.66666667 1091.83333333 1469.5 1069.5 1390.5 c 128
 1047.16666667 1311.5 1033.33333333 1257.66666667 1028 1229 c 1
 1033 1219 l 1
 1019 1164 l 1
 1177 1158 l 1
 1105 1041 l 1
 1102 1041 l 1
 1114 1012 l 1
 1102 1013 l 1
EndSplineSet
EndChar

StartChar: dollar
Encoding: 36 36 9
Width: 1094
GlyphClass: 2
Flags: HW
LayerCount: 2
Fore
SplineSet
423 -46 m 0
 418.571137382 -46 409.640992993 -20 407 -20 c 1
 405 -22 l 1
 385 0 l 1
 385 -63 l 1
 358 -81 l 1
 343.333333333 -52.3333333333 322.333333333 -38 295 -38 c 1
 288.718433397 -31.718433397 244.259511066 31.8737089538 239 39.5 c 128
 212.147160911 78.4366166786 177.093534685 132.671576495 160.5 180.5 c 128
 154.833333333 196.833333333 152 211 152 223 c 0
 152 233 145 238 131 238 c 2
 115 238 l 1
 127.528564699 273.307773242 164.946217951 312 210 312 c 2
 477 310 l 1
 495 284 l 1
 495 195 l 1
 531 168 l 1
 550 168 l 1
 570 182 599.666666667 213 639 261 c 1
 621 284 l 1
 621 309 l 1
 604 330 l 1
 604 377 l 1
 548 373 l 2
 527.562223918 371.722638995 472.343183346 405.117159167 450 404 c 0
 440.666666667 404 431.666666667 402.333333333 423 399 c 1
 395.666666667 414.333333333 377.333333333 430.333333333 368 447 c 1
 350 424 l 1
 247.767482495 480.017817811 209.348299504 507.037016005 129 586 c 1
 104.628211857 695.673046646 73 807.361409027 73 936 c 0
 73 962.600371029 89 1075.87184458 89 1102 c 2
 89 1122 l 1
 155 1231 l 1
 155 1309.01272105 223.664688986 1371.60779536 278 1404 c 128
 331.793194745 1436.06901994 403.278103511 1472.786822 470 1480 c 1
 473.333333333 1483.33333333 481 1496.66666667 493 1520 c 1
 463 1650 l 1
 470.998496745 1683.7714307 479.117668066 1865.52954201 485 1902 c 1
 484 1923 l 1
 517 1993 l 1
 533 1981 l 1
 504 1957 l 1
 508 1957 l 2
 531.002377722 1957 539.682117488 1979.34105874 555 1987 c 1
 555 1981.66666667 557 1979 561 1979 c 0
 568.333333333 1979 575.333333333 1984 582 1994 c 1
 623 2002 l 1
 619.666666667 1987.33333333 618 1972.33333333 618 1957 c 0
 618 1931.53033032 629 1860.97238867 629 1835 c 0
 629 1782.33333333 621.333333333 1713.33333333 606 1628 c 1
 634 1625 l 1
 634 1620.93984216 636 1607.8124105 636 1604 c 0
 636 1589.33333333 631 1558 621 1510 c 1
 665.666666667 1508.66666667 704.666666667 1500.33333333 738 1485 c 128
 771.333333333 1469.66666667 812 1444 860 1408 c 1
 866 1419 l 1
 876.666666667 1406.33333333 902 1381.83333333 942 1345.5 c 128
 982 1309.16666667 1010 1277.66666667 1026 1251 c 1
 1026 1234 l 1
 1005 1234 l 1
 1010.33333333 1205.33333333 1013 1172.33333333 1013 1135 c 0
 1013 1065.65680344 984 837.04948795 984 768 c 0
 984 749.333333333 987.833333333 737.166666667 995.5 731.5 c 128
 1003.16666667 725.833333333 1007 718.666666667 1007 710 c 0
 1007 706 1006.33333333 703.333333333 1005 702 c 2
 986 676 l 1
 905 727 l 1
 886 726 l 1
 866 702 l 1
 803 750 l 1
 805 726 l 1
 776.503619782 726 696.927344134 717 673 717 c 0
 628.264371947 717 621 744.720957055 621 796 c 0
 621 814.666666667 621.666666667 830 623 842 c 1
 604 817 l 1
 568 865 l 1
 531 865 l 1
 495 842 l 1
 495 817 l 1
 477 793 l 1
 480.167140506 754.994313933 515.687405731 676 555 676 c 1
 550 656 l 1
 566 676 l 1
 592 679 l 1
 670 679 741.5 646.833333333 806.5 582.5 c 128
 871.5 518.166666667 908.333333333 440.333333333 917 349 c 1
 924 261 l 1
 905 261 l 1
 924 238 l 1
 920.666666667 220.666666667 903 190.833333333 871 148.5 c 128
 839 106.166666667 823 73.6666666667 823 51 c 0
 823 45 823.333333333 40.6666666667 824 38 c 1
 788 -35 l 1
 783.333333333 -30.3333333333 779 -28 775 -28 c 128
 767.136873893 -28 760.997630643 -53 754 -53 c 2
 752 -53 l 1
 710 -18 l 1
 637 -65 l 1
 637 -63.2838353985 641 -49.7113048567 641 -48 c 128
 641 -46.6666666667 640.333333333 -46 639 -46 c 0
 634.30033471 -46 621.69642546 -56 617 -56 c 2
 612 -56 l 1
 605.333333333 -103.333333333 602 -157 602 -217 c 0
 602 -261.51729046 608 -397.155954387 608 -442 c 0
 608 -457.253930565 598 -548.532248921 598 -561 c 1
 588.666666667 -543 576.333333333 -529.666666667 561 -521 c 1
 561 -488 l 1
 517 -551 l 1
 517 -525 l 2
 517 -523.72711427 519 -514.50558446 519 -513 c 0
 519 -512.333333333 518.333333333 -512 517 -512 c 1
 511 -541 l 1
 507.666666667 -545.666666667 502.333333333 -548 495 -548 c 0
 469.648879477 -548 460 -373.126569258 460 -346 c 0
 460 -290.166654882 493 -102.29476398 493 -46 c 2
 493 -38 l 1
 439 -38 l 1
 439 -35 l 1
 436.622426116 -35 425.989136032 -46 423 -46 c 0
EndSplineSet
EndChar

StartChar: percent
Encoding: 37 37 10
Width: 1697
GlyphClass: 2
Flags: HW
LayerCount: 2
Fore
SplineSet
1183 727 m 1
 1169 727 l 1
 1172 735 l 1
 1183 727 l 1
526 1397 m 1
 526 1394.80172879 530 1391.57229619 530 1390 c 128
 530 1389.33333333 529.333333333 1389 528 1389 c 2
 521 1389 l 1
 526 1397 l 1
1403 375 m 0
 1403 378.439354615 1401 384.836095943 1401 389 c 1
 1413 389 l 1
 1413 416 l 1
 1424 416 l 1
 1413 428 l 1
 1413 440 l 1
 1397.41360182 446.927288079 1385.93190799 449.523355915 1388 464 c 1
 1388 503 l 2
 1388 521.666666667 1387.66666667 534.333333333 1387 541 c 0
 1387 561.912687989 1386 600.343608542 1386 618 c 128
 1386 639.125651653 1381.74566565 650.199419469 1376 666 c 1
 1376 653 l 1
 1375 653 l 1
 1371.66666667 633 1370 568.666666667 1370 460 c 1
 1371 452 l 1
 1370 452 l 1
 1301 416 l 1
 1301 410.59 1340.208 305.056 1344 300 c 1
 1387.7077491 300 1403 329.644450928 1403 375 c 0
261 889.5 m 130
 261 876 l 1
 250 865 l 1
 261 865 l 1
 261 837 l 1
 274 837 l 1
 272.666666667 833 272 828.666666667 272 824 c 0
 272 775.607217404 285.740309858 757.766985916 323 749 c 0
 325.666666667 749 327.666666667 748.666666667 329 748 c 1
 338.777591834 756.799832651 373 845.34756299 373 865 c 2
 373 901 l 1
 366 901 l 1
 369.333333333 903 371 905.666666667 371 909 c 0
 371 911.666666667 370.666666667 913.333333333 370 914 c 0
 370 934.262680012 371 1003.05284461 371 1023 c 0
 371 1047.66666667 359.666666667 1074 337 1102 c 1
 329 1101 l 1
 329 1113 l 1
 283.936231155 1102.03854271 259 1078.73844733 259 1026 c 0
 259 1018 260.333333333 1004.66666667 263 986 c 1
 254.333333333 980.666666667 250 969.333333333 250 952 c 2
 250 913 l 1
 255.863140731 907.136859269 261 900.590516141 261 889.5 c 130
739 120 m 1
 739 71.8604449196 711.967104636 45.9013139067 700 10 c 1
 704 3.33333333333 706 -5.33333333333 706 -16 c 0
 706 -81.4841522712 666.949635936 -156.676274224 652 -209 c 1
 639 -178 l 1
 625 -178 618 -173.666666667 618 -165 c 0
 618 -157.933075654 630 -128.679330003 630 -122 c 0
 630 -116 627.666666667 -113 623 -113 c 128
 602.816277874 -113 577.802038014 -154.197961986 567 -165 c 1
 573 -148.333333333 576 -136.666666667 576 -130 c 1
 563 -155 l 1
 556 -158 l 1
 547.333333333 -158 543 -151.333333333 543 -138 c 0
 543 -110.646898985 556 -25.3293422625 556 2 c 0
 556 16.6666666667 555.333333333 28 554 36 c 1
 628 178.666666667 665 283 665 349 c 0
 665 382.333333333 652.666666667 399 628 399 c 2
 623 399 l 1
 628.333333333 416.333333333 648 466.5 682 549.5 c 128
 716 632.5 747.333333333 711.666666667 776 787 c 128
 804.666666667 862.333333333 819 907.666666667 819 923 c 1
 845.666666667 947.666666667 866.166666667 1001.16666667 880.5 1083.5 c 128
 894.833333333 1165.83333333 902 1235 902 1291 c 1
 911.333333333 1309 919.666666667 1340.33333333 927 1385 c 128
 939.897930539 1463.56012237 949.803698967 1467.51930574 980 1508.5 c 128
 986.542812596 1517.37953138 1000 1537.51542249 1000 1551 c 2
 1000 1555 l 1
 1059 1618 l 1
 1072 1596 l 1
 1034 1582 l 1
 1036 1580.66666667 1039.66666667 1580 1045 1580 c 0
 1057.66666667 1580 1076.66666667 1584.66666667 1102 1594 c 1
 1111 1584 l 1
 1131 1594 l 1
 1178 1586 l 1
 1177.33333333 1578.66666667 1169.83333333 1557.66666667 1155.5 1523 c 128
 1141.16666667 1488.33333333 1134 1463.66666667 1134 1449 c 0
 1134 1437 1137.33333333 1428.33333333 1144 1423 c 1
 1117.33333333 1352.33333333 1088.33333333 1287.66666667 1057 1229 c 1
 1094 1219 l 1
 1085 1180 l 1
 1054.39285588 1076.15433245 922.750540869 729.501802895 892 627 c 1
 889 602 l 2
 889 598 887.666666667 594.666666667 885 592 c 1
 885 593.333333333 885.333333333 594.666666667 886 596 c 1
 883.677852383 593.677852383 880.724610484 588.449220967 880 587 c 1
 882 587.666666667 883 588.666666667 883 590 c 2
 883 586 l 1
 885 558 l 1
 880 510 l 2
 878.515186441 486.24298305 854.031274675 456.82501974 838 444 c 1
 827 355 l 1
 811.475732279 342.580585823 794 346.694307962 794 317 c 0
 794 262.697027614 750.58228319 189.455707974 734 148 c 1
 739 120 l 1
108 738 m 0
 108 755.148493805 97 807.86608543 97 825 c 2
 97 837 l 1
 80.9371005985 870.732088743 79.1873809984 902.661545573 78 955.5 c 128
 77.3333333333 985.166666667 76.6666666667 1003.33333333 76 1010 c 2
 76 1082 l 2
 76 1166.66666667 70 1223 58 1251 c 1
 65.3333333333 1259.66666667 69 1270 69 1282 c 0
 69 1282.91088797 67 1289.09127192 67 1290 c 2
 55 1290 l 1
 111.349541517 1348.91088431 128.257642532 1431.56441063 220 1454.5 c 128
 245.333333333 1460.83333333 277.666666667 1464.66666667 317 1466 c 1
 312 1452 l 1
 323 1464 l 1
 329 1464 l 2
 339.59626626 1464 374.088655123 1454 385 1454 c 2
 394 1454 l 1
 390 1464 l 1
 422.522601628 1464 463.206870585 1438.50418499 480.5 1423 c 128
 490.166666667 1414.33333333 503 1401.66666667 519 1385 c 1
 521 1387 l 2
 519.666666667 1387 519 1387.66666667 519 1389 c 1
 521 1389 l 1
 521 1387 l 1
 542 1375 l 1
 530 1362 l 1
 532.407535837 1353.57362457 559.335316678 1339 570 1339 c 1
 603 1301 l 1
 596 1301 l 1
 594.666666667 1289.66666667 592.333333333 1260 589 1212 c 1
 605 1201 l 1
 605 1172 l 2
 605 1142 600.333333333 1118.33333333 591 1101 c 1
 605 1101 l 1
 599.450779662 1060.30571752 594.848292516 943.874901697 586 904.5 c 128
 579.333333333 874.833333333 568 848.333333333 552 825 c 1
 551.333333333 806.333333333 546.666666667 790.166666667 538 776.5 c 128
 529.333333333 762.833333333 524.666666667 752.666666667 524 746 c 1
 540 738 l 1
 528.666666667 738 515.333333333 724.833333333 500 698.5 c 128
 484.666666667 672.166666667 477 656.333333333 477 651 c 0
 477 641.666666667 477.666666667 634 479 628 c 1
 466 628 l 1
 451 640 l 1
 444.333333333 631.333333333 436.333333333 627 427 627 c 1
 427 615 l 1
 420 615 l 1
 417.333333333 605 413 600 407 600 c 0
 403 600 397.333333333 602.666666667 390 608 c 1
 390 587 l 1
 373 574 l 1
 369.796069872 575.601965064 319.756321002 584 314 584 c 0
 304.666666667 584 297 595.333333333 291 618 c 2
 282 653 l 1
 280 653 279 648 279 638 c 1
 252 607 l 1
 220.644486675 607 229.644425673 669 191 669 c 0
 189.046229565 669 144.936491342 656 143 656 c 1
 141.539772493 683.744322624 108 705.823605689 108 738 c 0
1189 730 m 0
 1189 732.926248628 1183 735.144554516 1183 740 c 1
 1180.33333333 745.333333333 1179 754 1179 766 c 1
 1177.66666667 764.666666667 1174.33333333 764 1169 764 c 1
 1183 779 l 1
 1169 779 l 1
 1172 791 l 1
 1169 803 l 1
 1174 803 l 1
 1182 812.333333333 1186 822.666666667 1186 834 c 0
 1185.06588535 835.868229303 1183 839.886182591 1183 842 c 1
 1172 842 l 1
 1192.43250167 852.216250833 1221.61339313 910.721205787 1236 933.5 c 128
 1259.69089228 971.01057945 1314.14882952 1010 1376 1010 c 2
 1379 1010 l 1
 1381 1015 l 1
 1383.60672552 1015 1389.96102253 1005 1396 1005 c 1
 1400 1006 l 2
 1402 1007.33333333 1403.66666667 1008 1405 1008 c 1
 1401 1015 l 1
 1421.36053232 1015 1454.64751346 997.823252679 1467.5 990 c 128
 1474.1391064 985.958804799 1525.03223326 947.978511159 1531 944 c 1
 1540 952 l 1
 1541 944 l 1
 1530 942 l 1
 1552 926 l 1
 1541 914 l 1
 1546.34177954 905.45315273 1566.60264601 890 1580 890 c 1
 1611 854 l 1
 1603 854 l 1
 1601 830 1600 817 1600 815 c 0
 1600 806.339948804 1602 772.649791735 1602 764 c 1
 1612 752 l 1
 1615 710 l 1
 1615 687.333333333 1611 667 1603 649 c 1
 1612 653 l 1
 1612 567.5 l 130
 1612 513.000011338 1619.77549231 468.828621525 1634 429 c 1
 1625.36439228 423.818635369 1576 314.719707751 1576 300 c 1
 1586 290 l 1
 1570.66666667 290 1559.66666667 273.666666667 1553 241 c 1
 1531.73573805 230.927454864 1523 225.380646597 1523 199 c 2
 1523 182 l 1
 1513 182 l 1
 1498 192 l 1
 1491.33333333 182.666666667 1483.33333333 178 1474 178 c 1
 1474 166 l 1
 1467 166 l 1
 1465 156.666666667 1460.33333333 152 1453 152 c 0
 1448.33333333 152 1443 155 1437 161 c 1
 1437 141 l 1
 1421 125 l 1
 1394.33333333 131.666666667 1373.33333333 135 1358 135 c 0
 1350 135 1342.83333333 146.666666667 1336.5 170 c 128
 1330.16666667 193.333333333 1326.66666667 205 1326 205 c 0
 1324.66666667 205 1324 200.333333333 1324 191 c 1
 1300 158 l 1
 1278.74510952 158 1273.36955075 198.505736055 1261.5 211 c 128
 1255.16666667 217.666666667 1247 221 1237 221 c 0
 1210.33333333 221 1195 216.333333333 1191 207 c 1
 1191 232.75965061 1155.24419335 265.871939728 1154 292 c 1
 1156 290 l 1
 1156 296 l 2
 1156 321.580300493 1140.71125258 404.741886243 1148 436.5 c 128
 1152.66666667 456.833333333 1165.33333333 478 1186 500 c 1
 1186 524.666666667 1190.33333333 546 1199 564 c 1
 1190.33333333 590 1186 618.333333333 1186 649 c 0
 1186 661.882587317 1189 717.739843631 1189 730 c 0
1183 740 m 1
 1169 740 l 1
 1169 752 l 1
 1183 740 l 1
EndSplineSet
EndChar

StartChar: ampersand
Encoding: 38 38 11
Width: 1071
GlyphClass: 2
Flags: HW
LayerCount: 2
Fore
SplineSet
700 602 m 1
 700 584.800330604 698 525.343543481 698 508 c 0
 697.333333333 487.333333333 697 453.333333333 697 406 c 1
 662 268 l 1
 372 268 l 1
 372 590 l 1
 339.277971015 589.256317523 166.492951107 596 137 596 c 1
 84 632 l 1
 84 954 l 1
 379 954 l 1
 379 965 l 2
 379 1003.66666667 376.666666667 1077.33333333 372 1186 c 2
 368 1288 l 1
 481 1290 l 1
 530 1306 l 1
 528 1280 l 1
 584 1280 l 2
 588.634595832 1280 609.185704239 1282 614 1282 c 0
 636 1282 665 1275.66666667 701 1263 c 1
 703 1094 l 1
 695 1094 691 1089 691 1079 c 2
 691 942 l 1
 731 942 l 2
 775.666666667 942 828.333333333 944.333333333 889 949 c 1
 984 959 l 1
 984 952.535001121 982 872.736372562 982 866 c 0
 980 718 973 626 961 590 c 1
 745 586 l 1
 739 602 l 1
 700 602 l 1
EndSplineSet
EndChar

StartChar: quotesingle
Encoding: 39 39 12
Width: 616
GlyphClass: 2
Flags: HW
LayerCount: 2
Fore
SplineSet
338 1511 m 0
 366.400073055 1511 463.60021645 1482.82858689 494 1485 c 1
 497.333333333 1469 499 1444 499 1410 c 0
 499 1266.66666667 492 1192.66666667 478 1188 c 1
 469.041676112 1110.73445647 442.949589441 849.190208925 434 772 c 1
 402 792 l 1
 384 792 l 2
 373.142401013 792 343.955385582 775.106153954 334 774 c 1
 349 796 l 1
 317 796 296.666666667 787.333333333 288 770 c 1
 285 770 285 770 284 770 c 128
 280.284412118 770 277.660665143 757.945986286 277 752 c 1
 262 770 l 1
 250 756.666666667 239.333333333 749.333333333 230 748 c 1
 184.297813335 950.679262602 145.079183287 1230.84455026 107 1443 c 1
 93.9626455895 1438.6542152 84 1448.99760627 84 1461 c 2
 84 1465 l 1
 98 1481 l 1
 107.333333333 1483 113.666666667 1489.33333333 117 1500 c 1
 175.666666667 1497.33333333 219.333333333 1496 248 1496 c 0
 266.587438479 1496 319.426600784 1511 338 1511 c 0
EndSplineSet
EndChar

StartChar: parenleft
Encoding: 40 40 13
Width: 762
GlyphClass: 2
Flags: HW
LayerCount: 2
Fore
SplineSet
447 444 m 0
 447 437.117766707 445 407.967332137 445 402 c 0
 443.813620038 359.290321362 504.362348737 247.080968082 510 211 c 1
 510 183.666666667 528.333333333 170 565 170 c 0
 572.379785761 170 591.331476481 112 595 112 c 1
 598 113 l 1
 600 113 l 1
 635 87 l 1
 635 3 l 1
 649 6 l 1
 657 -61.3333333333 661 -104.666666667 661 -124 c 1
 656.333333333 -134 652.166666667 -150 648.5 -172 c 128
 643 -205 643 -205 642 -211 c 1
 605 -217 l 1
 584 -233 l 1
 541 -234 l 2
 515.279366127 -235.118288429 449.940679064 -191.788135813 431 -188 c 1
 445 -190 l 1
 409.824461567 -172.412230783 370.994222442 -163.994222442 345.5 -138.5 c 128
 340.5 -133.5 337.333333333 -128.666666667 336 -124 c 1
 244 6 l 1
 206.966996893 93.0275573013 154.332966352 208.667694216 123.5 295 c 128
 86.45354182 398.730082904 79 500.817969203 79 645 c 0
 79 803.666666667 100.333333333 993.333333333 143 1214 c 1
 151 1244 178.666666667 1285.66666667 226 1339 c 1
 215 1329 l 1
 221.666666667 1363.66666667 248 1415.16666667 294 1483.5 c 128
 340 1551.83333333 377.333333333 1595.33333333 406 1614 c 0
 462.088905473 1650.67351512 655.930266368 1728.65168967 712 1764 c 1
 721.333333333 1742 726 1723.66666667 726 1709 c 0
 726 1641.66666667 715.5 1539 694.5 1401 c 128
 673.5 1263 663 1160 663 1092 c 0
 663 1072 663.666666667 1056.66666667 665 1046 c 1
 633 1048 l 1
 403.512239513 1048 456.872233518 742.396379134 429 538 c 1
 442 517 l 1
 425 493 l 1
 439.666666667 493 447 476.666666667 447 444 c 0
EndSplineSet
EndChar

StartChar: parenright
Encoding: 41 41 14
Width: 693
GlyphClass: 2
Flags: HW
LayerCount: 2
Fore
SplineSet
54 1561 m 0
 54 1567.52144123 52 1592.48611837 52 1599 c 2
 52 1612 l 1
 70 1652 l 1
 70 1678 70.6666666667 1698.66666667 72 1714 c 1
 136.463038645 1697.88424034 225.276396205 1665.13121122 302 1663 c 1
 313 1671 l 1
 345 1650.33333333 395.5 1605.5 464.5 1536.5 c 128
 533.5 1467.5 568 1422.66666667 568 1402 c 1
 553 1414 l 1
 580.333333333 1381.33333333 594 1320.33333333 594 1231 c 0
 594 917.574218707 574.620583356 418.396158416 511 183 c 128
 490.426627745 106.878522656 469.347192215 18.3471922153 418 -33 c 1
 417 -35 l 1
 409 -30 l 1
 358 -107 l 1
 273 -214 l 1
 253 -236 l 1
 267 -236 l 1
 212 -262 l 1
 192 -236 l 1
 153 -282 l 1
 114 -239 l 1
 91 -264 l 1
 52 -260 l 1
 52 -214 48.6666666667 -184 42 -170 c 1
 42 -147.40748381 57.4852011642 -59.1775860292 59 -41 c 1
 72 -43 l 1
 69.3053445249 -26.8320671494 77.2070860406 -18.6839238367 93 -20 c 1
 93 26 l 1
 112 26 l 1
 133 3 l 1
 153 3 l 1
 172 26 l 1
 227.878220156 26 249.945139279 50.928297342 233 106 c 128
 230.333333333 114.666666667 229 119.333333333 229 120 c 0
 249.649551757 191.12623383 278.080655046 257.505560862 282.5 340 c 128
 283.5 358.666666667 284 382.333333333 284 411 c 0
 284 426.771495771 292.545425647 447 308 447 c 1
 308 461.666666667 303 469.333333333 293 470 c 1
 308 493 l 1
 308 584 l 2
 308 724.666666667 300.666666667 816 286 858 c 1
 286 955.485160631 201.632774574 1016.02470225 94 996 c 1
 100.666666667 1045.33333333 97 1170.33333333 83 1371 c 2
 77 1452 l 1
 77 1456 l 1
 74 1518 l 2
 74 1528.04532243 54 1552.04531047 54 1561 c 0
EndSplineSet
EndChar

StartChar: asterisk
Encoding: 42 42 15
Width: 1051
GlyphClass: 2
Flags: HW
LayerCount: 2
Fore
SplineSet
52 1147 m 1
 126.726696788 1136.80999589 259.850083323 1112 340 1112 c 2
 350 1112 l 1
 338.666666667 1136.66666667 320.666666667 1186 296 1260 c 1
 296 1257 l 1
 274.666666667 1320.33333333 255.333333333 1367 238 1397 c 1
 238 1470 l 1
 292 1495 l 1
 296 1515 l 1
 318.666666667 1522.33333333 344.666666667 1540 374 1568 c 1
 430 1464 l 2
 476.666666667 1376.66666667 506.666666667 1309.66666667 520 1263 c 1
 637 1495 l 1
 636.333333333 1499 636 1504.66666667 636 1512 c 0
 636 1526 637.333333333 1535.66666667 640 1541 c 1
 642 1630 l 1
 677 1606 l 1
 718 1657 l 1
 718 1582 l 1
 735 1568 l 2
 745.666666667 1558.66666667 755 1552 763 1548 c 1
 767.799572382 1548 786.372878186 1550.33637525 795 1551 c 1
 806 1431 l 1
 784.256071183 1385.62136595 740 1278.58257421 740 1219 c 1
 678 1115 l 1
 724.666666667 1115 762 1121 790 1133 c 1
 827.212022736 1122.50430128 861.521978529 1114.2608873 898.5 1117 c 128
 907.5 1117.66666667 923.666666667 1114.33333333 947 1107 c 128
 970.333333333 1099.66666667 1001.33333333 1087 1040 1069 c 1
 971 1031 l 1
 961 1003 l 1
 983 979 l 1
 950 904 l 1
 931.977111457 905.638444413 905.373620934 911 889 911 c 0
 854.757286931 911 734.631205211 898 700 898 c 2
 678 898 l 1
 691 876 l 1
 705.666666667 847.333333333 717.666666667 827.666666667 727 817 c 1
 727.751473898 810.988208819 737.515212564 745 740 745 c 1
 740 746 l 1
 787.333333333 701.333333333 811 629 811 529 c 1
 771.666666667 525 744.333333333 518 729 508 c 128
 713.666666667 498 701 493 691 493 c 0
 646.333333333 493 590.666666667 582.666666667 524 762 c 1
 521.306547145 740.452377158 509.047048105 675.345019438 506 653 c 1
 498.666666667 639 488.666666667 609.666666667 476 565 c 128
 463.333333333 520.333333333 443 475.666666667 415 431 c 1
 399 456.333333333 386.666666667 474.666666667 378 486 c 128
 359.927653844 509.63306805 360.514727571 494.227908643 344 519 c 1
 330 513 l 1
 317 515 l 1
 245 478 l 1
 268.333333333 588 293.666666667 662 321 700 c 1
 319.666666667 704.666666667 319 709.333333333 319 714 c 1
 339 736 l 1
 341 789.333333333 353.333333333 844.333333333 376 901 c 1
 356.666666667 899 328 898 290 898 c 0
 274.666666667 898 205.666666667 900.666666667 83 906 c 1
 85 945 l 1
 39 979 l 1
 72 1015 l 1
 72 1031 l 1
 64.6666666667 1034.33333333 61 1038.33333333 61 1043 c 2
 63 1064 l 1
 52 1147 l 1
EndSplineSet
EndChar

StartChar: plus
Encoding: 43 43 16
Width: 940
GlyphClass: 2
Flags: HW
LayerCount: 2
Fore
SplineSet
683 913 m 0
 707.334809004 913 821.404308823 926.626953922 842 928 c 1
 842 881.990147121 837.313784561 752.217044906 835 699 c 128
 833 653 830.333333333 625 827 615 c 1
 726 610 l 1
 720 635 l 1
 718 637 713.333333333 638 706 638 c 2
 698 638 l 1
 720 635 l 1
 698.666666667 629.666666667 670 627 634 627 c 2
 608 627 l 1
 608 592 l 2
 608 553.375792138 604 423.748978033 604 385 c 1
 583 353 l 1
 328 353 l 1
 328 615 l 1
 288.409293151 615 160.554528748 620 121 620 c 1
 92 642 l 1
 92 924 l 1
 335 924 l 1
 335 979 l 2
 335 992.333333333 331.333333333 1058.66666667 324 1178 c 1
 402 1181 l 1
 398 1176 l 1
 425 1186 l 1
 423 1176 l 1
 441.666666667 1170.66666667 463.333333333 1168 488 1168 c 0
 501.43256045 1168 539.770686551 1170 553 1170 c 0
 577 1170 596 1167.33333333 610 1162 c 1
 613 1050 l 1
 603.666666667 1050 599 1030.66666667 599 992 c 2
 599 914 l 1
 615.679143611 914 666.498983225 913 683 913 c 0
EndSplineSet
EndChar

StartChar: comma
Encoding: 44 44 17
Width: 740
GlyphClass: 2
Flags: HW
LayerCount: 2
Fore
SplineSet
632 294 m 0
 632 273.69639692 628 207.284704072 628 187 c 1
 626 166 l 1
 630 154 632 140.333333333 632 125 c 1
 570 -290 l 1
 378 -298 l 1
 374 -272.666666667 372 -253.666666667 372 -241 c 0
 372 -221.359239551 378 -154.420528689 378 -135 c 1
 386 -140 l 1
 386 -75.0572212258 389.142503295 -67.7594121773 406 -12 c 1
 404 -14 l 1
 422 85 l 1
 362.847355205 85 304.001553023 85.9989646514 268 110 c 1
 132 89 l 1
 132 101 128.666666667 108.666666667 122 112 c 1
 116 108 l 1
 98 125 l 1
 98 132.698731955 94 157.803483243 94 166 c 0
 94 264.680913904 114 603.237686283 114 702 c 1
 126.666666667 702 138 694.333333333 148 679 c 1
 152 679 159.166666667 683.166666667 169.5 691.5 c 128
 179.833333333 699.833333333 192 704 206 704 c 0
 256.426752468 704 423.09043006 673 474 673 c 0
 490.666666667 673 502.5 676.5 509.5 683.5 c 128
 516.5 690.5 524.666666667 694 534 694 c 0
 542.976885218 694 573.031754329 676 582 676 c 2
 602 676 l 1
 618 697 l 1
 632 460 l 1
 632 447 l 2
 632 429.578513119 638 374.531158627 638 358 c 1
 632 358 l 1
 632 339 l 1
 620 334 l 1
 620 328.928518011 632 296.699419887 632 294 c 0
EndSplineSet
EndChar

StartChar: hyphen
Encoding: 45 45 18
Width: 979
GlyphClass: 2
Flags: HW
LayerCount: 2
Fore
SplineSet
508 596 m 0
 493.025359293 596 488 599.70028387 488 615 c 2
 488 623 l 1
 511 600 l 1
 514 623 l 1
 488 623 l 1
 490 632 l 1
 465 628 l 1
 461 600 l 1
 445 596 435.666666667 594 433 594 c 2
 265 596 l 1
 199 642 l 1
 199 622.666666667 191.333333333 613 176 613 c 0
 158 613 136.666666667 622.666666667 112 642 c 1
 125 986 l 1
 388 986 l 1
 388 973.333333333 394.666666667 967 408 967 c 0
 420.533422615 967 466.175258724 979 479 979 c 0
 496.779249217 979 556.910479367 981 575 981 c 0
 619 981 656.333333333 975.333333333 687 964 c 1
 691 979 l 1
 878 979 l 1
 827 844 l 1
 821 847 l 1
 830 817 l 1
 821 820 l 1
 816.333333333 796 814 769.333333333 814 740 c 0
 814 726.272520549 816 676.87496642 816 663 c 0
 816 638.333333333 813.666666667 615.333333333 809 594 c 1
 707 590 l 1
 709 605 l 1
 709 628.333333333 702 640 688 640 c 1
 682 638 l 1
 705 615 l 1
 677.666666667 609.666666667 643 607 601 607 c 1
 590 608 l 2
 579 608 579 608 571 608 c 0
 547.666666667 608 536 604 536 596 c 0
 536 593.333333333 536.666666667 591.333333333 538 590 c 1
 514 587 l 1
 511 596 l 2
 510 596 510 596 508 596 c 0
EndSplineSet
EndChar

StartChar: period
Encoding: 46 46 19
Width: 767
GlyphClass: 2
Flags: HW
LayerCount: 2
Fore
SplineSet
503 130 m 0
 461.206041331 130 351.025005052 123.488466979 332 103 c 1
 268.5 103 l 130
 243.638349155 103 226.441531045 97.441531045 214 85 c 1
 214 97 207.666666667 103 195 103 c 1
 185.459244226 96.6394961504 177.696647043 81 162 81 c 1
 162 231.666666667 149 410.333333333 123 617 c 1
 110.399349009 629.600650991 94.597434993 657 72 657 c 1
 90 675 l 1
 96.0936568849 675 119.160282639 671 125 671 c 0
 141 671 152.666666667 678.666666667 160 694 c 1
 297 694 l 1
 326.333333333 712.666666667 393.666666667 722 499 722 c 0
 526.931010306 722 629.268581205 697 656 697 c 1
 656 541.666666667 648.333333333 464 633 464 c 1
 645.666666667 452.666666667 657 447 667 447 c 1
 647 106 l 1
 631 125 l 1
 612 125 l 2
 606.534672174 125 569.452368507 110 564 110 c 0
 554 110 545.666666667 113.333333333 539 120 c 128
 532.333333333 126.666666667 520.333333333 130 503 130 c 0
EndSplineSet
EndChar

StartChar: slash
Encoding: 47 47 20
Width: 597
GlyphClass: 2
Flags: HW
LayerCount: 2
Fore
SplineSet
70 -165 m 0
 70 -157.933075654 82 -128.679330003 82 -122 c 0
 82 -116 80.6666666667 -113 78 -113 c 0
 71.9699327868 -113 16.8032115369 -164.318073078 14 -166 c 1
 15.1376517675 -162.587044698 26 -135.406352689 26 -130 c 1
 15 -155 l 1
 8 -158 l 1
 -8 -158 -16 -148.666666667 -16 -130 c 0
 -16 -82.6666666667 -4.16666666667 -26 19.5 40 c 128
 43.1666666667 106 66.8333333333 169.5 90.5 230.5 c 128
 114.166666667 291.5 126 339.666666667 126 375 c 1
 107 406 l 1
 223 884 l 1
 269.160099067 923.058545364 320 1055.85439895 320 1140 c 1
 346 1164 l 1
 342 1300 l 1
 356.764213085 1328.79021552 426.721687497 1521.57068748 432 1555 c 1
 483 1614 l 1
 499 1596 l 1
 464 1582 l 1
 466 1580.66666667 469.333333333 1580 474 1580 c 0
 482 1580 498.666666667 1584.66666667 524 1594 c 1
 536 1584 l 1
 554 1594 l 1
 600 1586 l 1
 584.998234936 1531.99364577 566 1490.054177 566 1419 c 0
 566 1378.00049332 540.744502376 1331.50274046 526.5 1300.5 c 128
 519.098028163 1284.389826 497.302131908 1240.70497445 491 1226 c 1
 520 1219 l 1
 514 1181 451.333333333 975.333333333 332 602 c 1
 336 618 l 1
 323 592 l 1
 327 577.333333333 329 563.666666667 329 551 c 0
 329 521.3940685 291.706514494 460.119543482 285 440 c 1
 286 447 l 1
 283 459 l 1
 280.797796124 453.494490309 276.753789546 361.169193031 272 358 c 1
 263.333333333 358 253.166666667 335.833333333 241.5 291.5 c 128
 222.548569404 219.484563733 186.632177951 60.6409104857 152 8 c 1
 154.666666667 4 156 -1 156 -7 c 0
 156 -23.6666666667 152.666666667 -36.6666666667 146 -46 c 1
 146 -60 l 2
 146 -114.134145786 116.071920128 -161.541087539 104 -205 c 1
 91 -178 l 1
 77 -178 70 -173.666666667 70 -165 c 0
EndSplineSet
EndChar

StartChar: zero
Encoding: 48 48 21
Width: 1083
GlyphClass: 2
Flags: HW
LayerCount: 2
Fore
SplineSet
507 192 m 2
 564.219333166 192 580 261.514159595 580 322 c 0
 580 336.666666667 579.333333333 347.666666667 578 355 c 1
 598 355 l 1
 598 402 l 1
 618 402 l 1
 598 424 l 1
 598 449 l 2
 598 463 604.666666667 477.666666667 618 493 c 1
 618 564 l 2
 618 595.333333333 611.333333333 618 598 632 c 1
 598 683 l 2
 598 749.488068321 588.158376178 866 524 866 c 2
 489 866 l 1
 489 842 l 1
 470 842 l 1
 432.666666667 791.333333333 414 737 414 679 c 2
 414 493 l 2
 414 482.333333333 417.666666667 474.666666667 425 470 c 1
 414 470 l 1
 414 402 l 2
 414 384.666666667 421 369 435 355 c 1
 435 305.183876224 466.942889988 220.674243015 489 192 c 1
 507 192 l 2
108 981 m 1
 87 981 l 1
 91 992 l 1
 108 981 l 1
460 13 m 0
 432.511032707 13 425.532673486 -57.4673265141 410 -73 c 1
 386.936163755 -71.462410917 375.024533622 -35.0959041572 369.5 -13.5 c 128
 362.656184999 13.2530950031 343.146004914 43 310 43 c 0
 304.666666667 43 279.666666667 34 235 16 c 1
 233 36.6666666667 222.166666667 60.5 202.5 87.5 c 128
 182.833333333 114.5 173 142 173 170 c 1
 175 170 l 1
 175 206.521369253 151.510013591 350.524402161 143 377 c 0
 129 418.333333333 117.333333333 619.666666667 108 981 c 1
 108 1003 l 1
 87 1003 l 1
 87 1026 l 1
 108 1003 l 1
 102 1050 l 1
 94 1046 l 1
 87 1048 l 1
 108 1072 l 1
 87 1072 l 1
 87 1097 l 1
 91 1097 l 1
 87 1120 l 1
 96 1118 l 1
 105.333333333 1135.33333333 110 1153.33333333 110 1172 c 0
 110 1175.93438091 108 1184.67242671 108 1188 c 1
 89 1188 l 1
 94.3333333333 1190 101.666666667 1199.5 111 1216.5 c 128
 136.87704464 1263.63318845 154.021952333 1307.92033913 190.5 1354.5 c 128
 258.341658176 1441.1285789 350.526871651 1512 507 1512 c 1
 507 1490 l 1
 525 1512 l 1
 546.667979133 1512 616.334121955 1490 639 1490 c 1
 639 1512 l 1
 691 1512 759 1466.33333333 843 1375 c 1
 864 1397 l 1
 866 1379 l 1
 847 1375 l 1
 884 1350 l 1
 866 1329 l 1
 872.257597639 1316.48480472 907.516387532 1282 926 1282 c 2
 931 1282 l 1
 984 1212 l 1
 969 1212 l 1
 965 1194.66666667 963 1167.33333333 963 1130 c 0
 963 1091.33333333 963.666666667 1064 965 1048 c 1
 984 1026 l 1
 984 949.333333333 977.666666667 888 965 842 c 1
 984 842 l 1
 968.666666667 596 954.333333333 456.666666667 941 424 c 0
 918.988319224 372.639411523 885.525922112 308.012462184 869.5 251.5 c 128
 863.166666667 229.166666667 860 209.333333333 860 192 c 1
 880 170 l 1
 846.504589809 170 827.008496347 108.052677353 822 77 c 1
 796.574455739 58.8388969566 779 39.3878128576 779 -5 c 130
 779 -35 l 1
 759 -35 l 1
 734 -12 l 1
 728 -29.3333333333 716.666666667 -38 700 -38 c 1
 700 -60 l 1
 687 -58 l 1
 659 -86 l 1
 639 -68 l 1
 639 -109 l 1
 611 -134 l 1
 567 -122 532.333333333 -116 507 -116 c 0
 494.333333333 -116 483.5 -94.5 474.5 -51.5 c 128
 465.5 -8.5 460.666666667 13 460 13 c 0
EndSplineSet
EndChar

StartChar: one
Encoding: 49 49 22
Width: 751
GlyphClass: 2
Flags: HW
LayerCount: 2
Fore
SplineSet
516 14 m 1
 517.577382076 14 523.169539948 13 525 13 c 1
 525 24 l 1
 516 14 l 1
589 332 m 0
 589 282.964523065 567 127.510933254 567 79 c 1
 585 31 l 1
 567 8 l 1
 585 8 l 1
 585 -7.33333333333 592 -22.6666666667 606 -38 c 1
 567 -38 l 1
 545 -16 l 1
 525 -16 l 1
 510 8 l 1
 486 -20 l 1
 446 3 l 1
 444.666666667 7.66666666667 444 15.3333333333 444 26 c 0
 444 52 448 70.6666666667 456 82 c 1
 425 55 l 1
 370 55 l 1
 353 19 l 1
 353 8.33333333333 346.333333333 3 333 3 c 1
 316 24 l 1
 314 40 305 146.5 289 343.5 c 128
 273 540.5 256.833333333 727.333333333 240.5 904 c 128
 224.166666667 1080.66666667 213.333333333 1174.66666667 208 1186 c 1
 173.333333333 1166.66666667 125.333333333 1149.66666667 64 1135 c 1
 45 1181 l 1
 64 1207 l 1
 45 1204 l 1
 17.2351632823 1204 6 1287.23690049 6 1313 c 1
 -15 1313 l 1
 -15 1322.2036365 80.4333117723 1358.12380336 87 1360 c 2
 353 1445 l 1
 353 1421 l 1
 371.452606732 1489.53825358 441.545339578 1493.51511319 506 1515 c 1
 525 1497 l 1
 545 1515 l 1
 583 1515 612.666666667 1506.66666667 634 1490 c 1
 634 1399 l 1
 611 1399 l 1
 611 1375 l 1
 634 1375 l 1
 626 1212 l 1
 638.666666667 1212 652 1204 666 1188 c 1
 660.666666667 1158 652.5 1092.5 641.5 991.5 c 128
 630.5 890.5 618.666666667 817.666666667 606 773 c 1
 585 773 l 1
 585 741.666666667 592 718.666666667 606 704 c 1
 606 517 l 1
 571 517 l 1
 581.666666667 512.333333333 587 496.333333333 587 469 c 1
 585 449 l 1
 567 426 l 1
 567 402 l 1
 581.666666667 402 589 378.666666667 589 332 c 0
EndSplineSet
EndChar

StartChar: two
Encoding: 50 50 23
Width: 1179
GlyphClass: 2
Flags: HW
LayerCount: 2
Fore
SplineSet
432 -81 m 2
 426.131387701 -81 416.503402577 -84 411 -84 c 0
 404.333333333 -84 398.666666667 -82.3333333333 394 -79 c 1
 387 -99 l 1
 371 -91 l 1
 379 -122 l 1
 375.666666667 -124 371 -125 365 -125 c 0
 356.333333333 -125 343 -121 325 -113 c 1
 315 -135 l 1
 289 -150 l 1
 253 -132 l 1
 219 -142 l 1
 179 -120 l 1
 144 -130 l 1
 107 -111 l 1
 81 -124 l 1
 88 -103 l 1
 77 -70 l 1
 94 -87 l 1
 98.7053296458 -13.2831688825 102.661652337 -7.38700208632 125 57 c 1
 119 82 l 1
 119 131.766503979 142.300276758 181.600553515 160 217 c 1
 197 197 l 1
 223 209 l 1
 280 183 l 1
 288 205 l 1
 304 195 l 1
 455 339 l 1
 454 361 l 1
 471 361 l 1
 505 408 l 1
 505 452 l 1
 525 452 l 1
 525 497 l 1
 544 477 l 1
 544 543 l 2
 544 561.93973585 528.493405933 595.532970336 525 613 c 1
 618 727 l 1
 637 727 l 1
 637 752 l 1
 618 752 l 1
 618 760 l 2
 618 775.333333333 611.666666667 796.666666667 599 824 c 1
 563 824 l 1
 545 845 l 1
 527 845 l 1
 527 868 l 1
 509 868 l 1
 509 866.55870544 511 859.746213523 511 858 c 0
 511 844 504.666666667 824.333333333 492 799 c 1
 472 799 l 1
 472 782.333333333 466.333333333 761.666666667 455 737 c 128
 443.666666667 712.333333333 438 686.333333333 438 659 c 1
 455 637 l 1
 438 613 l 1
 419 637 l 1
 417.072612717 637 405.923607481 638 404 638 c 0
 384 638 368 632 356 620 c 1
 346 632 318.666666667 638 274 638 c 0
 205.161660868 638 200.262257813 635.933115338 149 613 c 1
 149 637 l 1
 133.079536855 654.247168407 109 947.896966331 109 983 c 2
 109 1145 l 1
 127 1170 l 1
 109 1170 l 1
 109 1261 l 1
 154.199696578 1261 144.157606505 1332 188 1332 c 1
 170 1354 l 1
 208 1400 l 1
 228 1400 l 1
 228 1377 l 1
 249 1377 l 1
 249 1423 l 1
 261.666666667 1436.33333333 284 1450.83333333 316 1466.5 c 128
 348 1482.16666667 370 1499 382 1517 c 1
 618 1517 l 2
 634.666614353 1517 689.354685473 1493 708 1493 c 0
 716 1493 722 1493.66666667 726 1495 c 1
 738.666666667 1481 756.333333333 1472.66666667 779 1470 c 1
 834 1400 l 1
 852 1400 l 1
 870 1377 l 1
 862 1354 l 1
 889 1377 l 1
 957.637557324 1317.99578405 1015 1170.26860019 1015 1046 c 0
 1015 996 1007.16666667 923 991.5 827 c 128
 975.833333333 731 967 675 965 659 c 1
 946 671 l 1
 965 637 l 1
 960.333333333 628.333333333 948.5 600.333333333 929.5 553 c 128
 910.5 505.666666667 892 465.833333333 874 433.5 c 128
 856 401.166666667 838.666666667 383.666666667 822 381 c 1
 830 381 l 1
 818 355 812 335.333333333 812 322 c 0
 812 316.666666667 812.666666667 313.333333333 814 312 c 1
 795 290 l 1
 802 280 l 1
 840.305907943 280 976.696890119 255 1016 255 c 0
 1033.53755522 255 1066.5258774 280 1081 280 c 2
 1113 280 l 2
 1116.33333333 280 1129.66666667 287 1153 301 c 1
 1153 255 l 1
 1133 255 l 1
 1133 185 l 1
 1113 185 l 1
 1133 164 l 1
 1107 104.666666667 1094 27.3333333333 1094 -68 c 1
 1072 -68 l 1
 1034 -113 l 1
 1034 -120 l 2
 1034 -143.460038786 1007.51593328 -210.532372256 993 -219 c 1
 953 -173 l 1
 951.666666667 -166.333333333 951 -154.666666667 951 -138 c 0
 951 -106.666666667 954.666666667 -83.3333333333 962 -68 c 1
 953 -68 l 1
 912 -22 l 1
 895 -46 l 1
 897 -97 l 2
 897 -121 890.333333333 -143 877 -163 c 1
 857 -138 l 1
 857 -84.2145285272 844.25535263 -23.0568324506 831 14.5 c 128
 825 31.5 822 42 822 46 c 1
 794.666666667 44.6666666667 781 4 781 -76 c 0
 781 -88.5646155146 784 -134.500978963 784 -145 c 1
 777.560480906 -106.362885436 767 -52.3700993685 767 -8 c 1
 751 -8 l 1
 730 14 l 1
 730 -22 l 1
 714 -22 l 1
 696 -7 l 1
 690 -8 l 1
 690 -58 l 1
 653 -81 l 1
 653 -58 l 1
 637 -36 l 1
 626 -36 l 1
 612 -48 605 -77.3333333333 605 -124 c 1
 563 -35 l 2
 563 -36.1842777056 565 -46.612379625 565 -48 c 0
 565 -74.6666666667 558.333333333 -102 545 -130 c 1
 545 -124 l 1
 527 -124 l 1
 509 -77 l 1
 517 -12 l 1
 509 -12 l 1
 509 -34.1551811702 475.831732938 -79.3958239356 472 -96 c 1
 472 -84 l 1
 467.381211946 -89.7734850678 438.666461463 -158 434 -158 c 1
 438 -81 l 1
 432 -81 l 2
EndSplineSet
EndChar

StartChar: three
Encoding: 51 51 24
Width: 1060
GlyphClass: 2
Flags: HW
LayerCount: 2
Fore
SplineSet
226 192 m 1
 226 210.930027733 266 240.144337289 266 261 c 1
 298 261 323.666666667 268.666666667 343 284 c 1
 523 284 l 1
 523 309 l 1
 543 309 l 1
 543 238 l 1
 559 217 l 1
 543 192 l 1
 543 176 553.333333333 168 574 168 c 2
 577 168 l 1
 600 146 l 1
 632 146 l 1
 669 217 l 1
 669 261 l 1
 648 284 l 1
 648 406 l 1
 632 383 l 1
 614 406 l 1
 554 406 497 409.333333333 443 416 c 1
 449 428 l 1
 441 418 l 1
 419 485 l 1
 419 582 l 1
 433 605 l 1
 500 605 l 1
 518 587 l 1
 518 605 l 1
 551.820268807 663.310808288 571 691.107765141 571 770 c 2
 571 817 l 1
 536 865 l 1
 500 842 l 1
 500 865 l 1
 481 842 l 1
 496 842 l 1
 482.667876801 835.333938401 482.984965995 823.870301873 469 819.5 c 128
 463.666666667 817.833333333 455.666666667 817 445 817 c 1
 463 795 l 1
 451.582820081 778.508517895 422.253155484 718.337540645 410 702 c 1
 282 702 l 1
 282 726 l 1
 242 679 l 1
 200 702 l 1
 200 679 l 1
 180 656 l 1
 100 656 l 1
 100 679 l 1
 142 679 l 1
 120 702 l 1
 80 1211 l 1
 60 1211 l 2
 58.6666666667 1211.66666667 58 1215 58 1221 c 0
 58 1246.99820993 85.2276282292 1292.6366371 100 1304 c 1
 100 1316.66666667 110 1328.16666667 130 1338.5 c 128
 150 1348.83333333 160 1361 160 1375 c 1
 165.333333333 1375 175.666666667 1382.16666667 191 1396.5 c 128
 234.361462012 1437.03354058 266.725053291 1465.85966371 339.5 1490.5 c 128
 381.833333333 1504.83333333 429 1512 481 1512 c 0
 487 1512 499.333333333 1504.66666667 518 1490 c 1
 536 1512 l 1
 560.169740129 1512 638.532725018 1490 663 1490 c 1
 745.664366047 1430.0016698 803.357057178 1378.12754898 864 1297.5 c 128
 916.859840418 1227.22043944 956 1134.30160333 956 1018 c 2
 956 817 l 2
 956 784.333333333 946.333333333 740 927 684 c 128
 907.666666667 628 898 588 898 564 c 1
 874 531 l 1
 876.70096609 526.798497193 944 386.666295701 944 377 c 2
 944 238 l 1
 924 238 l 1
 924 158.212417462 889.863942279 127.743002082 863 77 c 1
 863 65.6666666667 858 52.5 848 37.5 c 128
 828.160319863 7.74047979469 803 -35.9304412934 803 -86 c 1
 782 -73 l 1
 782 -86 l 1
 758.666666667 -70.6666666667 745.666666667 -63 743 -63 c 0
 727.546977032 -63 683.571202434 -86 669 -86 c 1
 669 -63 l 1
 614 -63 l 1
 614 -86 l 1
 596 -86 l 1
 577 -63 l 1
 577 -86 l 1
 504 -86 l 1
 466 -113 l 1
 414 -109 l 1
 343 -16 l 1
 343 42.3138722994 286.230139594 101.539720812 266 142 c 1
 266 192 l 1
 252 205 l 1
 246 192 l 1
 226 192 l 1
EndSplineSet
EndChar

StartChar: four
Encoding: 52 52 25
Width: 955
GlyphClass: 2
Flags: HW
LayerCount: 2
Fore
SplineSet
514 -55 m 1
 519 -58 l 1
 515.666666667 -58 514 -57 514 -55 c 1
305 -2 m 2
 276.228096085 -2 180.443022002 -26 152 -26 c 0
 136 -26.6666666667 127.333333333 -23.3333333333 126 -16 c 1
 96 -43 l 1
 67 -16 l 1
 127 394 l 1
 152 416 l 1
 133 416 l 1
 120 440 l 1
 152 485 l 1
 131 485 l 1
 147.226471926 534.838449486 170.707244276 712.035549113 187 762 c 1
 166 762 l 1
 168 770 l 1
 133 786 l 1
 171 855 l 1
 153 855 l 1
 136 878 l 1
 142 899.333333333 148.833333333 939.666666667 156.5 999 c 128
 164.166666667 1058.33333333 174.333333333 1103 187 1133 c 1
 171 1156 l 1
 180 1180 l 1
 166 1204 l 1
 174.666666667 1246 189.333333333 1276.66666667 210 1296 c 1
 190 1296 l 1
 178 1320 l 1
 194 1320 l 1
 218 1342 l 1
 238 1342 l 1
 245 1367 l 1
 205 1367 l 1
 208 1387 l 1
 198 1411 l 1
 138.754184468 1411 127.128775198 1476.2102558 109 1517 c 1
 196.982002554 1517 474.382923773 1505 560 1505 c 1
 575 1486 l 1
 579 1505 l 1
 600 1515 l 1
 597 1505 l 1
 615 1505 l 1
 620 1527 l 1
 638 1527 l 1
 650 1505 l 1
 706 1505 l 1
 694 1527 l 1
 913 1527 l 1
 902.760284898 1499.69409306 887.944847927 1490.7080118 860 1474.5 c 128
 843.333333333 1464.83333333 834.666666667 1459.66666667 834 1459 c 0
 808.957117536 1459 747.027763258 1411 722 1411 c 1
 727 1395 l 1
 625 1250 l 1
 607 1250 l 1
 600 1226 l 1
 619 1226 l 1
 621.991444443 1217.02566667 627 1205.81084266 627 1195 c 0
 627 1127 609.333333333 1075.66666667 574 1041 c 1
 560.522325965 984.393769054 535.314328608 912.143286077 529 849 c 1
 541 834 l 1
 449 462 l 1
 464 440 l 1
 433 431 l 1
 452 394 l 1
 426 344 l 1
 433 309 l 1
 449 322 l 1
 480.333333333 297.333333333 512.666666667 284 546 282 c 1
 550 387 l 1
 560 387 l 1
 542 440.333333333 533 482.333333333 533 513 c 0
 533 531.640616636 536 583.470161865 536 605 c 1
 516 623 l 1
 522 638 l 1
 508 623 l 1
 499 638 l 1
 523.752401252 638 594.843957656 673 620 673 c 1
 630 656 l 1
 644.410188809 656 697.596091378 673 713 673 c 1
 729.465248944 648.302126583 769.316029239 644.13359955 810.5 643.5 c 128
 832.166666667 643.166666667 848 641.333333333 858 638 c 1
 813 556 l 1
 825 556 l 1
 811 536.666666667 795.333333333 497.666666667 778 439 c 1
 790 421 l 1
 766 274 l 1
 790 278 l 1
 930 278 l 1
 908 230 l 1
 885 230 l 1
 906 207 l 1
 885 207 l 1
 885 -94 l 1
 841 -94 l 1
 827 -58 l 1
 797 -58 l 1
 780 -94 l 1
 738 -94 l 1
 747 -134 l 1
 723 -150 l 1
 731.666666667 -163.333333333 736 -172 736 -176 c 0
 736 -216.924040182 727 -346.112137918 727 -387 c 0
 727 -422.333333333 729.333333333 -454 734 -482 c 1
 713 -462 l 1
 713 -471 l 1
 681 -451 660 -428.333333333 650 -403 c 1
 610 -452 l 1
 593.333333333 -430 585 -387 585 -323 c 0
 585 -308.711773037 587 -258.537937182 587 -245 c 0
 587 -199 578 -125.333333333 560 -24 c 1
 554 -24 l 1
 552 -48 l 1
 542.666666667 -52.6666666667 535 -55 529 -55 c 0
 513.6444099 -55 467.759911754 -33 452 -33 c 1
 435 -35 l 1
 414 -58 l 1
 414 -24 l 1
 358 -24 l 1
 359 -2 l 1
 305 -2 l 2
EndSplineSet
EndChar

StartChar: five
Encoding: 53 53 26
Width: 1195
GlyphClass: 2
Flags: HW
LayerCount: 2
Fore
SplineSet
462 610 m 2
 462 608.772278007 464 606.227182021 464 605 c 1
 507 605 l 1
 525 587 l 1
 525 605 l 1
 542 632 l 1
 898 632 l 1
 890.666666667 606.666666667 887 584 887 564 c 1
 865 531 l 1
 867.883854975 526.193575042 931 387.174385886 931 377 c 2
 931 238 l 1
 911 238 l 1
 911 160.55044316 881.624145164 127.290051977 855 77 c 1
 855 65.6666666667 850.5 52.5 841.5 37.5 c 128
 823.289896193 7.14982698915 801 -36.5665927136 801 -86 c 1
 782 -73 l 1
 782 -86 l 1
 762.666666667 -70.6666666667 751 -63 747 -63 c 0
 732.324152897 -63 690.220213653 -86 676 -86 c 1
 676 -63 l 1
 621 -63 l 1
 621 -86 l 1
 603 -86 l 1
 584 -63 l 1
 584 -86 l 1
 511 -86 l 1
 474 -113 l 1
 421 -109 l 1
 350 -16 l 1
 350 40.57945522 293.946307282 103.593962256 272 142 c 1
 272 192 l 1
 258 205 l 1
 252 192 l 1
 232 192 l 1
 232 210.930027733 272 240.144337289 272 261 c 1
 304.666666667 261 330.666666667 268.666666667 350 284 c 1
 530 284 l 1
 530 309 l 1
 550 309 l 1
 550 238 l 1
 566 217 l 1
 550 192 l 1
 550 176 560.666666667 168 582 168 c 2
 584 168 l 1
 607 146 l 1
 639 146 l 1
 676 217 l 1
 676 261 l 1
 655 284 l 1
 655 406 l 1
 639 383 l 1
 621 406 l 1
 561 406 504 409.333333333 450 416 c 1
 457 428 l 1
 448 418 l 1
 426 404 l 1
 426 428 l 1
 182 428 l 1
 180.912992615 434.522044311 173.220647138 452.89676431 172 459 c 1
 186 503 l 1
 141 515 l 1
 140 517 l 1
 144 531 l 1
 140 531 l 1
 134.666666667 556.333333333 133.333333333 578.333333333 136 597 c 0
 136 600.333333333 136.666666667 603 138 605 c 1
 120 712 l 1
 111.333333333 708 103.333333333 706 96 706 c 0
 93.5445560145 706 88.4543640422 707 86 707 c 1
 110 795 l 1
 124 795 l 1
 137.158135482 868.685558701 113.551624458 991.205370608 104 1051.5 c 128
 98.6666666667 1085.16666667 102.666666667 1130.66666667 116 1188 c 1
 134 1188 l 1
 142 1212 l 1
 140.666666667 1211.33333333 138.666666667 1211 136 1211 c 0
 112.343491429 1211 115.850410825 1268.14958918 104 1280 c 1
 110.666666667 1302 112.666666667 1340.66666667 110 1396 c 128
 107.333333333 1451.33333333 107.333333333 1490 110 1512 c 1
 156.52899278 1513.45403102 436.337576608 1525 488 1525 c 128
 564.497526296 1525 804.058008763 1490 880 1490 c 0
 925.448336135 1490 1086.27553902 1478 1133 1478 c 2
 1149 1478 l 1
 1110.33333333 1260 1075.66666667 1020.66666667 1045 760 c 1
 929 768 l 1
 936 793 l 1
 913 768 l 1
 892.333333333 774 843.333333333 779 766 783 c 128
 688.666666667 787 617.833333333 793 553.5 801 c 128
 489.166666667 809 453 821 445 837 c 1
 449.127484694 816.36257653 455 787.850244507 455 763 c 128
 455 753.666666667 454 745.333333333 452 738 c 0
 452 734.666666667 450.333333333 730.666666667 447 726 c 1
 449.666666667 718.666666667 451.666666667 708 453 694 c 1
 448 683 l 1
 453 647 l 1
 457 635 l 1
 472 630 l 1
 462 610 l 2
EndSplineSet
EndChar

StartChar: six
Encoding: 54 54 27
Width: 1193
GlyphClass: 2
Flags: HW
LayerCount: 2
Fore
SplineSet
730 365 m 1
 708.468674927 365 639.511886094 389 618 389 c 0
 614.666666667 389 612 388.333333333 610 387 c 1
 595 387 l 2
 563 387 534 379 508 363 c 1
 512.811942004 324.504463969 515.788623104 281.422753792 530 253 c 1
 514 255 l 1
 514 233 l 1
 522.666666667 233 529 237 533 245 c 1
 533 231.666666667 538.333333333 219.666666667 549 209 c 1
 532.798365383 209 533 203.644299093 533 187 c 1
 549 187 l 1
 551 165.666666667 564.333333333 150.333333333 589 141 c 1
 586 118 l 1
 604 141 l 1
 622 141 l 1
 622 128.892341665 629.444059831 118 641 118 c 1
 641 141 l 1
 677.473250997 141 712.147299001 163.007175309 727 187 c 1
 742 187 l 1
 734 191.666666667 730 204.666666667 730 226 c 0
 730 235.367292653 733 269.71137246 733 278 c 2
 730 365 l 1
856 495 m 0
 985.369838384 495 1034 447.136502901 1034 317 c 0
 1034 279 1026.33333333 243.666666667 1011 211 c 1
 1017 121 1020 75.6666666667 1020 75 c 0
 1020 -14.8026119635 1011.17646296 -69.000003505 953.5 -95.5 c 128
 919.555408695 -111.096163573 863.71164448 -137.472005708 832 -161 c 1
 814 -113 l 1
 811 -113 l 1
 811 -91 l 1
 791 -81 l 1
 770 -113 l 1
 745 -125 l 1
 730 -113 l 1
 714 -138 l 1
 695 -138 l 1
 695 -161 l 1
 676 -176 l 1
 676 -138 l 1
 659 -161 l 1
 622 -113 l 1
 586 -113 l 1
 586 -91 l 1
 570 -91 l 1
 570 -113 l 1
 555.333333333 -131.666666667 547.666666667 -155.666666667 547 -185 c 1
 517.994329814 -185 516.345022368 -142.760178943 513 -116 c 1
 496 -91 l 1
 478 -91 l 1
 478 -120.608955484 463.637638013 -158 435 -158 c 2
 425 -158 l 1
 405 -138 l 1
 423 -138 l 1
 423 -113 l 1
 388 -113 l 1
 370 -91 l 1
 352 -89.6666666667 341 -67.3333333333 337 -24 c 1
 319 -35 l 1
 307 -32.3333333333 291.333333333 -0.666666666667 272 60 c 128
 252.666666667 120.666666667 236.666666667 156.666666667 224 168 c 1
 218.247748601 230.316056825 218.036468421 334.168082709 210.5 388 c 128
 208.166666667 404.666666667 201.666666667 431.833333333 191 469.5 c 128
 180.333333333 507.166666667 162 561.333333333 136 632 c 1
 154 627 l 1
 138.666666667 641.666666667 122.5 715 105.5 847 c 128
 88.5 979 80 1069.33333333 80 1118 c 0
 80 1126.30194168 78 1150.12715724 78 1158 c 0
 78 1174 83.6666666667 1189.33333333 95 1204 c 1
 91 1296 l 1
 168 1367 l 1
 213 1367 l 1
 213 1436.79059646 306.709504802 1488 376 1488 c 0
 384.666666667 1488 394.333333333 1486.66666667 405 1484 c 1
 420.655744835 1502.26503564 445.609832134 1507 480 1507 c 1
 478 1484 l 1
 496 1484 l 1
 496 1500 500.666666667 1508 510 1508 c 2
 533 1507 l 1
 496 1438 l 1
 535 1484 l 1
 570 1462 l 1
 549 1484 l 1
 549 1507 l 1
 586 1484 l 1
 606 1491.33333333 619.333333333 1495 626 1495 c 0
 797.804556947 1495 914.915072553 1425.63605488 998 1328.5 c 128
 1043.33333333 1275.5 1086.66666667 1206.66666667 1128 1122 c 1
 1104.66666667 1052 1093 1004.33333333 1093 979 c 0
 1093 863.012946536 1043.04575096 782.918952486 1010 697 c 1
 1026 578 l 1
 1045 558 l 1
 973 556 l 2
 879.666666667 552.666666667 821 566.333333333 797 597 c 1
 695 600 l 1
 682.333333333 618.666666667 676 638.333333333 676 659 c 2
 676 673 l 1
 695 673 l 1
 657 717 l 1
 676 742 l 1
 659 742 l 1
 641 766 l 1
 641 801 l 1
 622 789 l 1
 611.333333333 817.666666667 594.333333333 832 571 832 c 1
 549 858 l 1
 533 834 l 1
 496 834 l 1
 496 829.265254647 498 809.926112848 498 805 c 0
 498 771.298768743 478 662.20071825 478 628 c 1
 459 627 l 1
 459 602 l 1
 478 580 l 2
 478 578.72711427 480 569.50558446 480 568 c 0
 480 553.333333333 476 539.333333333 468 526 c 1
 484.325256269 528.511577887 574.033249963 548 595 548 c 0
 647.832667459 548 802.498614188 495 856 495 c 0
676 -138 m 1
 695 -138 l 1
 695 -113 l 1
 676 -138 l 1
EndSplineSet
EndChar

StartChar: seven
Encoding: 55 55 28
Width: 1278
GlyphClass: 2
Flags: HW
LayerCount: 2
Fore
SplineSet
311 1490 m 0
 414.046009846 1490 790.274383255 1525 894 1525 c 0
 946.340902922 1525 1224.94016716 1513.47061978 1272 1512 c 1
 1236.26489437 1420.10972839 1227.55013184 1268.83917374 1159 1211 c 1
 1157 1211 1155.33333333 1211.33333333 1154 1212 c 1
 1154 1188 l 1
 1173 1188 l 1
 1173 1039.58123096 1066.69165126 928.533210045 1050 795 c 1
 1066 795 l 1
 1095 748 l 1
 1093.11705503 748 1087.53035068 746 1086 746 c 0
 1076.66666667 746 1068.66666667 748 1062 752 c 1
 1038 726 l 1
 1038 719 l 2
 1038 694.36159316 1024.69923467 661.281505035 1016 640.5 c 128
 995.70089246 592.007687543 971.170353739 542.001064747 948.5 497.5 c 128
 939.5 479.833333333 935 470.666666667 935 470 c 2
 927 472 l 2
 931 470.666666667 933 465.333333333 933 456 c 0
 933 444 925.166666667 423.5 909.5 394.5 c 128
 889.386899153 357.269366518 833.345242334 273.248025056 818 240 c 1
 818 195 l 1
 771.337010283 105.731671845 688.429562182 -66.9699673766 677 -178 c 1
 645.53532009 -188.488226637 612.998150558 -204 573 -204 c 0
 569.032724083 -204 558.29409555 -201 554 -201 c 1
 599 -186 l 1
 564 -186 l 1
 576 -183 l 1
 576 -181 575 -180 573 -180 c 2
 568 -180 l 1
 530 -176 l 1
 405 -176 l 1
 393 -154 l 1
 443.666666667 -78.6666666667 471.333333333 -9 476 55 c 1
 475 31 l 1
 543 195 l 1
 530 195 l 1
 551.596663767 243.101660208 612.789203793 420.33264961 632 469 c 1
 627 488 l 1
 643 493 l 1
 664 541 l 1
 657 564 l 1
 667 584 681.333333333 606 700 630 c 1
 702 664.666666667 712 696.666666667 730 726 c 1
 728 729.333333333 727 733.333333333 727 738 c 0
 727 773.63897544 746.992586428 810.985172856 760 837 c 1
 748 821 708.833333333 809 642.5 801 c 128
 576.166666667 793 503.833333333 787 425.5 783 c 128
 347.166666667 779 297 774 275 768 c 1
 259 793 l 1
 259 768 l 1
 141 760 l 1
 119.666666667 1010 84 1243 34 1459 c 1
 48 1459 l 2
 94.0357070278 1459 266.776542418 1490 311 1490 c 0
EndSplineSet
EndChar

StartChar: eight
Encoding: 56 56 29
Width: 941
GlyphClass: 2
Flags: HW
LayerCount: 2
Fore
SplineSet
411 661 m 1
 417.672047916 661 499.938186703 629.370879781 501 623 c 1
 501 637 l 1
 522 632 l 1
 516 620 l 1
 520 615 l 1
 520 636.558103947 534.771081999 628.192760796 539.5 649 c 128
 541.166666667 656.333333333 542 666.333333333 542 679 c 0
 542 695.409214421 536 756.609144615 536 773 c 0
 536 784.333333333 540 792 548 796 c 1
 541.333333333 802 538 814 538 832 c 0
 538 833.406583554 540 843.802854549 540 845 c 0
 528.666666667 858.333333333 510.5 866 485.5 868 c 128
 460.5 870 441.333333333 878 428 892 c 1
 428 868 l 1
 394 868 l 1
 411 845 l 1
 394 845 l 1
 394 837 l 2
 394 829 394.666666667 824 396 822 c 1
 400 824 l 1
 407.333333333 824 411 796 411 740 c 2
 411 706 l 1
 394 685 l 1
 411 685 l 1
 411 661 l 1
520 360 m 1
 511.333333333 371.333333333 495.5 377.833333333 472.5 379.5 c 128
 449.5 381.166666667 434.666666667 390 428 406 c 1
 428 374.746268278 409.135736408 396.271472816 399.5 377 c 128
 395.833333333 369.666666667 394 356.333333333 394 337 c 1
 374 337 l 1
 374 312 l 1
 387.333333333 312 394 292.333333333 394 253 c 2
 394 152 l 1
 398 152 398 152 404 152 c 0
 457.881711736 152 463.344426831 150.073956686 501 128 c 1
 494 128 l 1
 501 116 l 1
 501 138.666666667 507.333333333 158 520 174 c 1
 520 255 l 2
 520 263.666666667 522.666666667 268 528 268 c 2
 540 268 l 1
 540 274 536.333333333 281.5 529 290.5 c 128
 521.666666667 299.5 518 312.333333333 518 329 c 0
 518 341 518.666666667 351.333333333 520 360 c 1
720 81 m 1
 698.597388834 51.0363443671 671.648274316 -63 622 -63 c 2
 616 -63 l 1
 624 -70 l 1
 600 -79.3333333333 582 -84 570 -84 c 0
 568.447227483 -84 559.242597703 -81 558 -81 c 1
 558 -58 l 1
 542 -77 l 1
 556 -81 l 1
 540 -81 l 1
 542 -77 l 1
 518.515507328 -65.2577536641 480.788407999 -35 448 -35 c 0
 426.224185115 -35 411 -174.113745664 411 -196 c 1
 397 -196 390 -174.666666667 390 -132 c 0
 390 -105.333333333 391.333333333 -84.6666666667 394 -70 c 1
 376 -53 l 1
 376 -76 l 1
 356 -76 l 2
 348.998530713 -76 318.491861867 -66.4972872892 314 -65 c 1
 318 -58 l 1
 268.73978297 -58 236.547989346 56.1780159809 216 87 c 1
 216 141.160755804 196 311.113328836 196 365 c 0
 196 429.705705463 213.800155494 505 278 505 c 1
 229.03416667 524.819503967 196 542.158096037 196 605 c 1
 188 594 l 1
 176 596 l 1
 176 604.666666667 167.666666667 652.833333333 151 740.5 c 128
 125.282376993 875.774697018 76 1144.07745396 76 1291 c 0
 76 1424.09432694 181.822050511 1481.23210837 290.5 1505.5 c 128
 324.833333333 1513.16666667 359.333333333 1517 394 1517 c 0
 429 1517 429 1517 446 1517 c 128
 539.868161217 1517 644.113212598 1507.29825621 711 1479 c 128
 789.362202964 1445.84676028 860 1396.5812928 860 1286 c 0
 860 1142.69825985 807.232418121 844.189980779 782 715 c 2
 756 587 l 1
 748 587 742.666666667 591.333333333 740 600 c 1
 740 536.954401911 707.44807606 521.72403803 660 498 c 1
 722.568847235 498 740 424.409968911 740 360 c 0
 740 307.70402435 720 133.026457358 720 81 c 1
EndSplineSet
EndChar

StartChar: nine
Encoding: 57 57 30
Width: 1198
GlyphClass: 2
Flags: HW
LayerCount: 2
Fore
SplineSet
682 666 m 1
 683.351607438 675.461252068 689 730.163420801 689 742 c 0
 689.666666667 756 684.333333333 770.666666667 673 786 c 128
 661.666666667 801.333333333 655.333333333 810.333333333 654 813 c 2
 643 837 l 1
 638.704773414 837 635 824.313800838 635 820 c 1
 594 865 l 1
 562 865 l 2
 540.583330618 865 538.346529635 859.750488525 527 845 c 1
 525 817 l 1
 511.666666667 817 505 805 505 781 c 0
 505 746.444447153 543.451237626 668.743370641 575 666 c 1
 580 656 l 1
 599 679 l 1
 625 671.666666667 652.666666667 667.333333333 682 666 c 1
909 1419 m 1
 980.113783638 1381.07264873 1022.34938557 1333.93900381 1078 1270 c 1
 1069 1234 l 1
 1049 1234 l 1
 1089.66666667 1109.33333333 1110 953.333333333 1110 766 c 0
 1110 670.154202515 1079.95123828 554.640286124 1051 489.5 c 128
 1036.33333333 456.5 1022.83333333 424 1010.5 392 c 128
 998.166666667 360 992 335.666666667 992 319 c 0
 992 310.333333333 993.666666667 302 997 294 c 1
 948 261 l 1
 968 238 l 1
 952.350902125 179.315882967 915.063124491 153.580878254 883 112.5 c 128
 854.773723019 76.3350826176 837.740583298 16.7726479177 828 -46 c 1
 834 -50.6666666667 837 -57.3333333333 837 -66 c 0
 837 -79.0495838153 809.408252792 -95.7324163565 798 -97 c 1
 806 -66 l 1
 770 -91 l 1
 747 -43 l 1
 823 -60 l 1
 752 -22 l 1
 664 -55 l 1
 649 -35 l 1
 650.333333333 -63 651 -107.333333333 651 -168 c 1
 635 -158 l 1
 635 -110.666666667 637.666666667 -76.3333333333 643 -55 c 1
 636 -43 l 1
 615 -38 l 1
 591.666666667 -38 580 -65.3333333333 580 -120 c 0
 580 -138.706067749 590 -226.322601442 590 -241 c 0
 590 -247 587.333333333 -263.333333333 582 -290 c 1
 559 -272 l 1
 546 -18 l 1
 500 -33 l 1
 503 2 l 1
 494.131795319 -8.83891683175 460.668712362 -65.1641095478 452 -76 c 1
 448 -43 l 1
 428 -43 l 1
 403 -20 l 1
 391 -36 l 1
 393 -51 l 1
 393 -64.3333333333 386.666666667 -75.3333333333 374 -84 c 1
 366 -82.6666666667 355.333333333 -74.3333333333 342 -59 c 128
 328.666666667 -43.6666666667 315 -35 301 -33 c 1
 244.250161338 12.3998709293 221.2374138 48.2862330006 196.5 119.5 c 128
 185.5 151.166666667 174.666666667 177 164 197 c 1
 166 226 l 2
 166 235.333333333 160.666666667 240 150 240 c 0
 144.264454077 240 129.991815404 238 125 238 c 1
 144.426787075 308.422103146 272.104693692 320.86216692 356.5 327.5 c 128
 390.906780946 330.20615131 468.875882706 332 500 332 c 1
 494 329 l 1
 509 329 l 1
 507.666666667 326.333333333 507 320.666666667 507 312 c 0
 507 293.333333333 514 284 528 284 c 1
 523 192 l 1
 542 192 l 2
 552.666666667 192 558 187.333333333 558 178 c 2
 558 170 l 1
 580 168 l 1
 640 207 l 1
 644.34964247 239.622318528 668.489348757 264.285088259 684 286 c 1
 684 434 l 1
 503 434 l 1
 442 406 l 1
 405 419 l 1
 387 447 l 1
 367 424 l 1
 348.975874184 439.903640426 279.803633358 453.935387159 262 469 c 0
 135.713087194 575.281065232 81 702.205335019 81 923 c 0
 81 945 86 972.333333333 96 1005 c 1
 90 1015 87 1027.66666667 87 1043 c 128
 87 1076.42825991 108.126061579 1128.29184763 120 1151.5 c 128
 127.157432991 1165.48952812 164.572603217 1227.71780965 169 1241 c 1
 169 1251 l 2
 169 1284.45808802 203.988396349 1309.91052095 232 1316 c 1
 271.733048026 1391.28366994 332.94354312 1460.63362709 415.5 1477.5 c 128
 470.422671005 1488.72076074 527.619216776 1486.91030992 581.5 1495.5 c 128
 604.5 1499.16666667 620.666666667 1508 630 1522 c 1
 670.477703322 1503.11040512 728.348545295 1505.72614144 780.5 1498 c 128
 807.5 1494 833.333333333 1484 858 1468 c 1
 853.333333333 1463.33333333 851 1459.33333333 851 1456 c 0
 851 1435.5535168 881.930094672 1408.33564666 895 1399 c 1
 909 1419 l 1
EndSplineSet
EndChar

StartChar: colon
Encoding: 58 58 31
Width: 791
GlyphClass: 2
Flags: HW
LayerCount: 2
Fore
SplineSet
315 91 m 0
 302.227179834 91 259.009751801 98 246 98 c 0
 224 98 210.333333333 90.3333333333 205 75 c 1
 209 91 l 1
 192 106 l 1
 183.333333333 89.3333333333 172.333333333 81 159 81 c 1
 176 201 l 1
 158 245.666666667 145 310 137 394 c 128
 129 478 122.666666667 532 118 556 c 1
 118 562.880575711 122 593.337279573 122 600 c 0
 122 620.908410642 108.602479886 642.238512069 96.5 649.5 c 128
 89 654 89 654 69 666 c 1
 73 668 86.8333333333 670.666666667 110.5 674 c 128
 134.166666667 677.333333333 148.333333333 684 153 694 c 1
 161.666666667 694 201.333333333 698.333333333 272 707 c 128
 342.666666667 715.666666667 381 722.333333333 387 727 c 1
 399 725 430.166666667 723.833333333 480.5 723.5 c 128
 530.833333333 723.166666667 569.333333333 717.666666667 596 707 c 1
 603 712 l 1
 618.333333333 700 633 694 647 694 c 0
 653 694 657.333333333 694.666666667 660 696 c 1
 651.546124499 657.957560244 638 619.02587296 638 574 c 0
 638 546 646.666666667 509.333333333 664 464 c 1
 653 469 l 1
 645 464.333333333 637 462 629 462 c 1
 645 452 658 447 668 447 c 1
 642 113 l 1
 631 123 l 1
 610 125 l 2
 601.907163668 125 573.455757407 111.727878703 566 108 c 1
 550.641717718 113.584829921 533.012919744 138 511 138 c 0
 496.348967152 138 414.522289988 127.104457998 404 125 c 1
 415 122 l 1
 407.592848161 122 385.587763639 123 378 123 c 0
 362.414568639 123 329.999147616 91 315 91 c 0
610 1140 m 0
 601.686453549 1140 574.706536568 1128 566 1128 c 0
 539.958771209 1128 439.237865245 1150 410 1150 c 1
 415 1135 l 1
 409.138785285 1135 386.04207691 1137 380 1137 c 0
 354 1137 337 1131.33333333 329 1120 c 1
 269 1114.66666667 226.333333333 1105.33333333 201 1092 c 1
 209 1109 l 1
 197 1118 l 1
 184.333333333 1102 172.666666667 1093 162 1091 c 1
 165 1226 l 2
 165 1254.87170097 142 1359.31723256 142 1389 c 0
 142 1443 151 1484 169 1512 c 1
 156.333333333 1512.66666667 145.666666667 1530.5 137 1565.5 c 128
 128.333333333 1600.5 120.333333333 1618 113 1618 c 0
 110.333333333 1618 108.333333333 1617.33333333 107 1616 c 1
 105.677412859 1645.09691709 90.1972005884 1670.69532619 65 1676 c 1
 87 1688 l 1
 107 1683.33333333 120.666666667 1681 128 1681 c 0
 146 1681 157.333333333 1690.33333333 162 1709 c 1
 201.333333333 1707 241 1706 281 1706 c 0
 292.834637891 1706 389.601694351 1736.27648256 395 1741 c 1
 504.862452941 1736.15312708 565.353122227 1723.23800904 662 1712 c 1
 664.666666667 1686.66666667 666 1668.33333333 666 1657 c 0
 666 1631.81890974 651 1551.62409233 651 1527 c 0
 651 1512.33333333 653.333333333 1496.66666667 658 1480 c 1
 651 1482 l 2
 649.044370567 1482 634.417661829 1478 633 1478 c 1
 643 1468 653.333333333 1462 664 1460 c 1
 670 1150 l 1
 652.666666667 1143.33333333 632.666666667 1140 610 1140 c 0
EndSplineSet
EndChar

StartChar: semicolon
Encoding: 59 59 32
Width: 770
GlyphClass: 2
Flags: HW
LayerCount: 2
Fore
SplineSet
348 1137 m 1
 361 1137 l 1
 363.666666667 1139 365.666666667 1140 367 1140 c 0
 369 1140 372.333333333 1138.33333333 377 1135 c 1
 348 1137 l 1
530 1132 m 0
 519.837258174 1132 469.665891149 1147 458 1147 c 0
 399.333333333 1147 349 1141.33333333 307 1130 c 1
 307 1131.33333333 305.333333333 1132 302 1132 c 0
 300 1132 282.5 1123 249.5 1105 c 128
 216.5 1087 190 1077.66666667 170 1077 c 1
 176.666666667 1093 183 1104.66666667 189 1112 c 1
 179 1118 l 1
 167.666666667 1105.33333333 156.333333333 1099 145 1099 c 2
 140 1099 l 1
 151 1231 l 1
 139 1233 133 1260.33333333 133 1313 c 0
 133 1359 139.333333333 1398.33333333 152 1431 c 1
 141.333333333 1431 136 1441.33333333 136 1462 c 0
 136 1464.66666667 138.333333333 1480 143 1508 c 1
 111.415854031 1521.81806386 112 1589.41003526 112 1635 c 1
 88 1616 l 1
 88 1635.73620788 68.6133863626 1681 49 1681 c 1
 68 1686 l 1
 107 1676 l 1
 125.641962332 1700.46757556 197.202235757 1716.53462675 237.5 1718 c 128
 255.833333333 1718.66666667 283.666666667 1719 321 1719 c 0
 336.333333333 1719 354 1731.33333333 374 1756 c 1
 412.835159563 1750.02536007 468.287052159 1746.64248551 503 1737 c 1
 519.666666667 1743 530 1746 534 1746 c 0
 547.333333333 1746 568.333333333 1737.5 597 1720.5 c 128
 625.666666667 1703.5 644 1693.66666667 652 1691 c 1
 644.666666667 1679 641 1669 641 1661 c 0
 641 1648.88105515 652 1608.73991638 652 1596 c 0
 652 1592 648.333333333 1561.66666667 641 1505 c 1
 641 1506.33333333 640 1507 638 1507 c 0
 634 1507 632 1504.66666667 632 1500 c 0
 632 1495.00352468 637.845141756 1479.57742912 641 1478 c 2
 632 1482 l 1
 627.333333333 1479.33333333 620.333333333 1478 611 1478 c 1
 645 1462 l 1
 645 1168 l 1
 611 1137 l 1
 601 1139 590.666666667 1140 580 1140 c 0
 573.07062924 1140 535.722426049 1132 530 1132 c 0
627 330 m 1
 630.459661157 323.080677686 641 302.482888527 641 294 c 0
 641 272.666666667 639.333333333 237 636 187 c 1
 634 187 l 1
 634 164 l 2
 633.333333333 164 632.666666667 164.333333333 632 165 c 2
 647 112 l 1
 637 98.6666666667 617 -44 587 -316 c 1
 388 -294 l 1
 383.333333333 -266 381 -232 381 -192 c 0
 381 -172.666666667 382.666666667 -159.333333333 386 -152 c 1
 386 -135 l 1
 388 -147 l 1
 394.666666667 -61 404 -15.3333333333 416 -10 c 1
 427 85 l 1
 378.11780833 91.1102739587 313.058406354 86.6473456315 282 108 c 1
 140 89 l 1
 140 105 137 113 131 113 c 0
 127.666666667 113 125 112 123 110 c 1
 113 120.666666667 104 135.333333333 96 154 c 1
 112.666666667 222 121 270.666666667 121 300 c 1
 119 312 l 1
 124.729665584 357.837324674 140 417.325999531 140 469 c 0
 140 492.340263647 114 575.343260054 114 597 c 128
 114 609 115.666666667 643.333333333 119 700 c 1
 126 700 l 2
 135.563853031 700 149.776103122 679 158 679 c 0
 179.021646879 679 182.42167588 703.42167588 193 714 c 1
 271 688 324.333333333 675 353 675 c 0
 365.666666667 675 374.333333333 677 379 681 c 1
 383 659 l 1
 391.475455373 659.847545537 526.844862029 700 534 700 c 0
 541.041212078 700 586.701171636 676 592 676 c 2
 610 676 l 1
 639 700 l 1
 639 460 l 1
 641 460 l 1
 643.768245747 454.463508506 650 441.428216949 650 434 c 0
 650 433.333333333 649 408 647 358 c 1
 641 358 l 1
 641 339 l 1
 627 330 l 1
EndSplineSet
EndChar

StartChar: less
Encoding: 60 60 33
Width: 941
GlyphClass: 2
Flags: HW
LayerCount: 2
Fore
SplineSet
401 1250 m 1
 403.050969169 1248.97451542 528.442970686 1251 530 1251 c 0
 594.655071398 1251 824.879462279 1245 891 1245 c 1
 789 1102 l 1
 744.981598007 1091.32887224 708.858076977 1052.14846186 701 1005 c 1
 659.666666667 958.333333333 631.333333333 913.333333333 616 870 c 1
 568 823.333333333 529.333333333 772 500 716 c 1
 524 676 l 1
 532.67976785 670.2134881 566.00678726 645.450843313 576 640 c 1
 572 627 l 1
 580 608.333333333 584 582.333333333 584 549 c 1
 587.333333333 544.333333333 597.5 527.333333333 614.5 498 c 128
 631.5 468.666666667 647 448.333333333 661 437 c 1
 663 439 l 1
 741.666666667 345 814 276.333333333 880 233 c 1
 875 166 l 1
 857.361112575 166 791.939598608 159.358145328 777 158 c 1
 775 145.333333333 775 133.333333333 777 122 c 1
 735 146 694.333333333 158 655 158 c 0
 643.666666667 158 631.333333333 163.333333333 618 174 c 1
 576 174 l 1
 557 161 l 1
 507 161 l 1
 430.610154785 211.926563477 372.405051896 282.794150437 313.5 351 c 128
 276.863117541 393.421653373 235.089976283 450.074033204 203 495 c 1
 172.667203815 510.166398092 148.176545285 534.302467654 122 553 c 1
 164 576 l 1
 155.799451269 579.280219492 124.481574758 600.086404207 113 602 c 1
 117 628 l 1
 95 660 74 696 54 736 c 1
 67 756 l 1
 67 760 l 2
 67 777.333333333 77.6666666667 798.833333333 99 824.5 c 128
 139.068503713 872.70741853 194.718440066 915.703875792 234 962 c 128
 252.666666667 984 259.666666667 1000.66666667 255 1012 c 1
 273 1022 296.666666667 1071.33333333 326 1160 c 1
 322 1160 l 1
 317 1240 l 1
 403 1267 l 1
 401 1250 l 1
EndSplineSet
EndChar

StartChar: equal
Encoding: 61 61 34
Width: 994
GlyphClass: 2
Flags: HW
LayerCount: 2
Fore
SplineSet
403 592 m 0
 396.933777091 592 373.870975609 594 368 594 c 0
 348 594 322.666666667 591.666666667 292 587 c 1
 207 642 l 1
 209 628 l 1
 209 618 204 613 194 613 c 0
 169.333333333 613 147.333333333 622.666666667 128 642 c 1
 126 837 l 1
 264.666666667 827 348 822 376 822 c 2
 417 822 l 1
 415 823.333333333 413.333333333 824.666666667 412 826 c 1
 413.333333333 825.333333333 415 825 417 825 c 0
 431.98373603 825 482.715512748 839 498 839 c 2
 554 839 l 2
 616.666666667 839 669.666666667 833.333333333 713 822 c 1
 717 837 l 1
 844 842 l 1
 844 835.675836454 849 802.925140554 849 796 c 2
 849 738 l 2
 849 663.333333333 843.666666667 619.666666667 833 607 c 1
 737 592 l 1
 738 602 l 1
 738 619.101956193 729.799036546 640 713 640 c 1
 705 638 l 1
 733 615 l 1
 672 607 l 1
 636 607 l 2
 584 607 558 603.666666667 558 597 c 0
 558 596.333333333 558.333333333 596 559 596 c 0
 560.333333333 595.333333333 561.333333333 594.666666667 562 594 c 2
 530 587 l 1
 527 596 l 2
 526 596 526 596 524 596 c 0
 509.025359293 596 504 599.70028387 504 615 c 2
 504 623 l 1
 527 600 l 1
 530 623 l 1
 504 623 l 1
 506 632 l 1
 481 628 l 1
 477 600 l 1
 455 594.666666667 430.333333333 592 403 592 c 0
338 993 m 0
 296.457905274 993 168.426464328 1013.87704266 128 1015 c 1
 135 1240 l 1
 176.958178903 1240 320.246011033 1245 362 1245 c 0
 380 1245 393.5 1242.33333333 402.5 1237 c 128
 411.5 1231.66666667 417.666666667 1229 421 1229 c 0
 448.268714218 1229 541.538169752 1240 569 1240 c 0
 625 1240 673 1234 713 1222 c 1
 717 1240 l 1
 854 1240 l 1
 854 1164 l 1
 849 1168 l 1
 858 1137 l 1
 849 1140 l 1
 845.666666667 1130.66666667 844 1116.33333333 844 1097 c 0
 844 1086.32278769 845 1051.83306348 845 1041 c 0
 845 1019.66666667 842.666666667 1003.66666667 838 993 c 1
 731 990 l 1
 735 1012 l 1
 647 1008 l 1
 611 1008 l 2
 568.333333333 1008 547 1003 547 993 c 0
 547 991.666666667 547.333333333 990.666666667 548 990 c 2
 530 990 l 1
 527 998 l 1
 518.43566059 998 484.223515534 1008.96806921 477 1010 c 1
 477 1002 l 1
 451 996 404.666666667 993 338 993 c 0
412 826 m 1
 409.333333333 826.666666667 407.333333333 828 406 830 c 1
 407.333333333 828.666666667 409.333333333 827.333333333 412 826 c 1
406 830 m 1
 396.666666667 836.666666667 391.666666667 840.666666667 391 842 c 1
 404 844 l 1
 404 837 l 2
 404 834.333333333 404.666666667 832 406 830 c 1
EndSplineSet
EndChar

StartChar: greater
Encoding: 62 62 35
Width: 886
GlyphClass: 2
Flags: HW
LayerCount: 2
Fore
SplineSet
483 191 m 2
 483 160.748891171 429.054082163 170 403 170 c 1
 382 183 l 1
 364 183 l 1
 350.666666667 173 334.333333333 168 315 168 c 0
 307 168 257 166 165 162 c 1
 168.333333333 166.666666667 171.666666667 170 175 172 c 1
 170 172 l 1
 152 173.333333333 125 174 89 174 c 1
 78 296 l 1
 90 306 90 306 129 338.5 c 128
 215.546578521 410.622148768 294.198843248 478.23325279 353 582 c 1
 353 603.333333333 357.333333333 622.666666667 366 640 c 1
 349 669 l 1
 412 704 l 1
 413 710 l 1
 416.934190164 713.934190164 421.728875066 719.457750132 424 724 c 1
 394 775.333333333 363 813 331 837 c 1
 309.666666667 887 281.333333333 933 246 975 c 1
 239.333333333 1009.66666667 218 1034 182 1048 c 1
 47 1255 l 1
 120.885508922 1252.15824966 244.814768232 1259 321.5 1259 c 128
 365.833333333 1259 405.666666667 1256 441 1250 c 1
 439 1251 l 1
 439 1280 l 1
 579 1229 l 1
 569 1135 l 1
 581.030136274 1091.69150941 613.543407715 1029.29569168 648 1010 c 1
 646 1000 l 1
 646 990.666666667 672 955.833333333 724 895.5 c 128
 776 835.166666667 807 793.333333333 817 770 c 2
 829 742 l 1
 812.180756925 699.951892312 787.84599878 664.522797803 767 627 c 1
 771 592 l 1
 801 578 l 1
 729 528 l 1
 732 528 l 1
 713.772521201 514.980372286 691.607575025 495.303787512 671 485 c 1
 632.333333333 407 601 348.666666667 577 310 c 128
 553 271.333333333 521.666666667 234.333333333 483 199 c 1
 483 191 l 2
EndSplineSet
EndChar

StartChar: question
Encoding: 63 63 36
Width: 1182
GlyphClass: 2
Flags: HW
LayerCount: 2
Fore
SplineSet
703 -199 m 2
 697.006615471 -199 665.983125068 -214 660 -214 c 0
 651.333333333 -214 643.833333333 -210.833333333 637.5 -204.5 c 128
 631.166666667 -198.166666667 620.333333333 -195 605 -195 c 0
 583.666666667 -195 571.333333333 -200 568 -210 c 1
 531 -210 l 2
 495.666666667 -210 472.666666667 -216.333333333 462 -229 c 1
 462 -218.954056509 453.755475714 -210 444 -210 c 1
 436.299464111 -217.700535889 429.47850806 -232 415 -232 c 1
 397.214450288 -98.6083771584 426.011570321 78.0232907145 332 135 c 1
 350 153 l 1
 356.550709263 153 374.776251251 148 381 148 c 0
 395.666666667 148 406.333333333 156 413 172 c 1
 536 172 l 1
 545.333333333 182.666666667 567 188 601 188 c 0
 627.138596362 188 717.119602848 164 742 164 c 1
 742 45.3333333333 735.333333333 -14 722 -14 c 1
 734 -26 744 -32 752 -32 c 1
 734 -219 l 1
 720 -199 l 1
 703 -199 l 2
900 1458 m 1
 970.645591068 1399.32823793 1029 1251.3951076 1029 1126 c 0
 1029 1093.14495055 1010.89598917 908.54384837 1009 882 c 1
 990 894 l 1
 1009 860 l 1
 999.955627304 841.911254609 962.8764374 769.680624858 950.5 752 c 128
 938.833333333 735.333333333 927.333333333 726.333333333 916 725 c 1
 925 725 l 1
 911.666666667 700.333333333 905 681 905 667 c 0
 905 661.666666667 905.666666667 658.333333333 907 657 c 1
 886 635 l 1
 894 625 l 1
 760 442 l 1
 752 442 l 1
 752 419.736504731 718.852517956 375.694244476 715 359 c 1
 715 371 l 1
 710.254384155 365.067980194 681.895163724 296 677 296 c 1
 681 373 l 1
 675 373 l 2
 669.150694159 373 659.526215794 371 654 371 c 0
 646.666666667 371 641 372.333333333 637 375 c 1
 630 355 l 1
 614 363 l 1
 622 332 l 1
 618.666666667 330 614 329 608 329 c 0
 599.333333333 329 586 333 568 341 c 1
 565 333 l 1
 563 334 l 1
 531 324 l 1
 498 343 l 1
 475 330 l 1
 481 351 l 1
 471 384 l 1
 486 367 l 1
 488.666666667 415 498 463.333333333 514 512 c 1
 509 537 l 1
 509 553.666666667 514.333333333 576.666666667 525 606 c 1
 519 604 l 1
 526 626 l 1
 531 622 l 1
 531.953132507 623.906265015 536.048811391 636.097622781 537 638 c 1
 542 635 l 1
 536 683 l 1
 535 705 l 1
 552 705 l 1
 586 752 l 1
 586 796 l 1
 606 796 l 1
 601.333333333 814.666666667 598.333333333 828 597 836 c 1
 618 884 l 1
 637 884 l 1
 637 910 l 1
 618 910 l 1
 618 917 l 2
 618 932.333333333 611.666666667 953.666666667 599 981 c 1
 563 981 l 1
 545 1002 l 1
 527 1002 l 1
 527 1025 l 1
 509 1025 l 1
 509 1023.55870544 511 1016.74621352 511 1015 c 0
 511 1001 504.666666667 981.333333333 492 956 c 1
 472 956 l 1
 472 934.283712864 465 906.205578884 465 882 c 1
 482 860 l 1
 465 836 l 1
 446 860 l 1
 444.072612717 860 432.923607481 861 431 861 c 0
 410.333333333 861 394.333333333 855.333333333 383 844 c 1
 373 855.333333333 345.666666667 861 301 861 c 0
 232.161660868 861 227.262257813 858.933115338 176 836 c 1
 176 860 l 1
 162 867.333333333 146.833333333 909 130.5 985 c 128
 114.166666667 1061 106 1113 106 1141 c 2
 106 1225 l 1
 124 1251 l 1
 106 1251 l 1
 106 1341 l 1
 151.199696578 1341 141.157606505 1412 185 1412 c 1
 167 1434 l 1
 205 1481 l 1
 225 1481 l 1
 225 1458 l 1
 246 1458 l 1
 246 1504 l 1
 258.666666667 1517.33333333 281.333333333 1531.66666667 314 1547 c 128
 346.666666667 1562.33333333 369.333333333 1579 382 1597 c 1
 618 1597 l 2
 634.666614353 1597 689.354685473 1573 708 1573 c 0
 716 1573 722 1573.66666667 726 1575 c 1
 738.666666667 1561 756.333333333 1552.66666667 779 1550 c 1
 839 1481 l 1
 859 1481 l 1
 879 1458 l 1
 870 1434 l 1
 900 1458 l 1
EndSplineSet
EndChar

StartChar: at
Encoding: 64 64 37
Width: 1905
GlyphClass: 2
Flags: HW
LayerCount: 2
Fore
SplineSet
830 428 m 2
 830 416.942504155 832 373.108212096 832 361 c 0
 832 325.666666667 827.666666667 303.333333333 819 294 c 1
 835 294 l 1
 841 273.333333333 865 261 907 257 c 1
 907 240 l 1
 924 257 l 1
 942 257 l 1
 959 240 l 1
 955 257 l 1
 975.666666667 260.333333333 988 272.666666667 992 294 c 1
 1007 294 l 1
 992 315 l 1
 1007 342 l 1
 1025 334 l 1
 1025 353 l 1
 1013 351 l 1
 1023.13212011 365.184968157 1030.86880285 426.885126844 1038 444 c 1
 956.666666667 457.333333333 912.333333333 464 905 464 c 0
 880.177257479 464 854.301388143 442 830 442 c 1
 830 428 l 2
1254 649 m 0
 1254 644.585974958 1252.88416258 641.536650303 1252 638 c 2
 1252 628 l 1
 1248 596 1246 562.666666667 1246 528 c 1
 1274.1360929 468.210802579 1302.82229075 390.506980378 1340 341.5 c 128
 1354.26920848 322.690588824 1379.16728392 288.634992302 1399 275 c 128
 1433.86606069 251.029583274 1472.13632602 233 1532 233 c 1
 1582 238 l 1
 1605.36974536 445.990733722 1512 649.249934012 1512 847 c 0
 1512 1079.57588388 1405.44628482 1291.03353398 1276 1409.5 c 128
 1201.33333333 1477.83333333 1121.33333333 1512 1036 1512 c 0
 734.446492105 1512 523.740111723 1428.9383979 404 1244.5 c 128
 315.18500673 1107.69626037 274 909.261963539 274 675 c 0
 274 491.3930493 321.025265966 323.714137278 374 183 c 128
 415.159810435 73.669253533 476.668997093 -34.1529770862 546 -113 c 128
 602.211323559 -176.926603264 686.304227009 -239 795 -239 c 2
 883 -239 l 2
 1027.66666667 -239 1142 -225.333333333 1226 -198 c 1
 1310 -366 l 1
 1186 -422 1034 -450 854 -450 c 0
 628.002971126 -450 438.494107937 -307.374583422 325.5 -172 c 128
 206.035882835 -28.8739079378 94 196.037396116 94 442 c 128
 94 551.333333333 97.3333333333 621.666666667 104 653 c 1
 58 676 l 1
 92 912 162.833333333 1122.66666667 270.5 1308 c 128
 378.166666667 1493.33333333 518.333333333 1632.66666667 691 1726 c 0
 722.349784827 1742.88065337 817.831294441 1756 867 1756 c 0
 897.666666667 1756 920.333333333 1753.33333333 935 1748 c 1
 941.666666667 1749.33333333 951.666666667 1750 965 1750 c 0
 1000.20473973 1750 1118.56035374 1727 1154 1727 c 1
 1370.77960025 1602.18750289 1560.88986506 1415.18737391 1692.5 1200 c 128
 1772.93695369 1068.48264507 1844 884.252150754 1844 685 c 0
 1844 598.333333333 1828 489.166666667 1796 357.5 c 128
 1764 225.833333333 1725.33333333 137 1680 91 c 1
 1678 91 l 2
 1675.65521198 91 1673.08748574 89.6958285797 1671 89 c 0
 1593.33893609 67.8197098423 1527.61052238 10 1429 10 c 0
 1365.33488632 10 1311.28323974 28.2637229995 1290 69.5 c 128
 1268.03603331 112.055185457 1262.62759021 171.096507657 1257 233 c 1
 1245.58070018 204.451750443 1230.17283091 121.881029422 1203 112 c 1
 1189 122 l 1
 1185.66666667 85.3333333333 1175 67 1157 67 c 1
 1140 46 l 1
 1106 46 l 1
 1106 29 l 1
 1125 29 l 1
 1106 13 l 1
 1099 10 l 1
 1069.6929765 10 1057 37.0690985958 1057 67 c 1
 1041 67 l 1
 1025 46 l 1
 1025 10 1016.33333333 -8 999 -8 c 1
 999 -5.05656820735 974.937878966 45.0621210341 974 46 c 2
 974 67 l 1
 959 67 l 1
 959 46 l 1
 924 46 l 1
 893 10 l 1
 878 29 l 1
 878 -2 l 1
 860 10 l 1
 860 29 l 1
 841 29 l 1
 826 46 l 1
 816 38 l 1
 793 46 l 1
 777 75 l 1
 760 67 l 1
 760 46 l 1
 758 46 l 1
 767 0 l 1
 701.394597708 39.8318513913 608.925191454 54.2385462931 593 140.5 c 128
 589 162.166666667 587 190.666666667 587 226 c 0
 587 258.666666667 591.333333333 289 600 317 c 1
 592.666666667 327 589 337.666666667 589 349 c 0
 589 354.361012702 591 374.25857807 591 380 c 2
 589 434 l 2
 585.287138184 511.970098136 611.804034854 537.354631559 683.5 543.5 c 128
 729.824378903 547.470661049 744.409426131 550.439919186 808.5 567.5 c 128
 854.833333333 579.833333333 892 586 920 586 c 0
 937.558399126 586 992.168109382 574 1010 574 c 2
 1018 574 l 1
 1008 608 l 1
 1010 618 l 1
 1024 637 l 1
 1024 657 l 1
 1030 647 l 1
 1028.66666667 655.666666667 1022.5 681.666666667 1011.5 725 c 128
 1000.5 768.333333333 995 802.333333333 995 827 c 1
 965 827 l 1
 951 847 l 1
 933 825 l 1
 912.333333333 825 898 813.666666667 890 791 c 1
 875 801 l 1
 875 773 l 1
 862 752 l 1
 849 752 l 1
 860 733 l 1
 832 696 l 1
 850 696 l 1
 843.362647494 676.087942483 842.688222343 651.6362594 831 638 c 1
 744 635 l 1
 740.666666667 609 704 596 634 596 c 0
 620.957117536 596 571.027763258 600 558 600 c 1
 570 618 l 1
 593 714 l 1
 567.649313348 799.55856745 516 917.703744345 516 1026 c 0
 516 1173.41099136 592.870938058 1286.51205533 691.5 1335.5 c 128
 741.833333333 1360.5 796.333333333 1373 855 1373 c 0
 881.666666667 1373 904 1369.33333333 922 1362 c 1
 951 1380 l 1
 951 1362 l 1
 935 1344 l 1
 965 1362 l 1
 993 1324 l 1
 965 1380 l 1
 983 1383 l 1
 995 1362 l 1
 1010 1362 l 1
 1008 1385 l 1
 1036.66666667 1383 1061.66666667 1376.33333333 1083 1365 c 1
 1174.33333333 1365 1220 1338.66666667 1220 1286 c 2
 1220 1265 l 1
 1255 1265 l 1
 1309 1209 l 1
 1307 1132 l 1
 1314.33333333 1120 1318 1106.66666667 1318 1092 c 2
 1318 1082 l 1
 1289.33333333 1000.66666667 1268 857 1254 651 c 0
 1254 650 1254 650 1254 649 c 0
EndSplineSet
EndChar

StartChar: A
Encoding: 65 65 38
Width: 1013
GlyphClass: 2
Flags: HW
LayerCount: 2
Fore
SplineSet
525 13 m 2
 525 19 l 1
 528 19 l 2
 526 19 525 17 525 13 c 2
745 770 m 1
 745 760 l 1
 754 760 l 2
 751.333333333 760 748.333333333 763.333333333 745 770 c 1
583 -329 m 1
 572.363775048 -351.454252677 559.01774451 -408.48711909 563 -443 c 1
 544 -443 l 1
 544 -399 l 2
 544 -374.661036839 579.737955372 -284.572267771 583 -265 c 1
 583 -329 l 1
505 813 m 1
 500.312422705 761.436649753 452 586.485388273 452 528 c 1
 432 529 l 1
 432 505 l 1
 452 505 l 1
 452 470.805456634 420.891576547 418.63858849 412 389 c 1
 487 389 l 2
 519 389 537.666666667 385 543 377 c 1
 537.592766018 441.886807783 525 526.992910851 525 597 c 1
 528 597 l 1
 524 598.333333333 522 608.333333333 522 627 c 0
 522 647.666666667 523 661 525 667 c 1
 505 690 l 1
 525 696 l 1
 525 714 l 1
 523.408649995 714 518.99542103 712 517 712 c 0
 509 712 505 733.666666667 505 777 c 2
 505 813 l 1
625 -231 m 130
 625 -198 l 1
 644 -166 l 1
 625 -145 l 1
 604 -175 l 1
 587 -96 l 1
 554.913922458 -125.519191339 546.55535447 -124.223227649 538 -167 c 128
 535.333333333 -180.333333333 531 -195.666666667 525 -213 c 1
 522 -145 l 2
 522 -123 529.333333333 -99 544 -73 c 1
 525 -51 l 1
 546 13 l 1
 546 40.9525597077 489.261428443 110 461 110 c 1
 432 89 l 1
 446 89 l 1
 452 65 l 1
 444 65 l 1
 432 -28 l 1
 414.1581536 -28 411.320383115 -7 392 -7 c 1
 392 -274 l 1
 377.333333333 -237.333333333 370 -182.333333333 370 -109 c 1
 366.250793223 -148.991538953 353.582879731 -166 312 -166 c 1
 312 -122 l 1
 290 -97 l 1
 272 -122 l 1
 294 -186 l 1
 290 -188 l 1
 280 -286 l 1
 272 -284 l 1
 244 -233.333333333 230 -153 230 -43 c 2
 230 46 l 2
 230 80.8655217192 196 226.204060389 196 263 c 0
 196 288.001977721 206.799938773 336.514268221 226 342 c 1
 210 342 l 1
 234 396 l 1
 233.292657148 403.780771376 208 453.736721333 208 460 c 2
 210 528 l 1
 230 528 l 1
 210 551 l 1
 210 574.914417192 230 643.434320045 230 667 c 1
 210 690 l 1
 224.666666667 704.666666667 232 728 232 760 c 0
 232 801.135262863 210 927.899835294 210 969 c 0
 210 987.861593497 230 1041.8892135 230 1060 c 0
 230 1102.07798605 210 1248.50275503 210 1291 c 1
 230 1291 l 1
 230 1316 l 1
 212.481314061 1316 158.5911325 1359.07215309 142 1362 c 1
 152 1362 l 1
 129.333333333 1387.33333333 89.3333333333 1410.33333333 32 1431 c 1
 73.3333333333 1462.33333333 232.333333333 1478 509 1478 c 0
 643 1478 794.666666667 1462.33333333 964 1431 c 1
 879.71375856 1383.00366807 815.889353108 1314.50666602 796 1212 c 128
 771.184214409 1084.10325888 782.859891906 912.402205465 753 785 c 1
 762 803 l 1
 760.693985302 775.573691341 745 651.132028977 745 620 c 1
 745 626.252010277 762 693.880795655 762 704 c 2
 762 640 l 2
 762 612.899039695 751 571.628537237 751 549 c 0
 751 532.333333333 754.666666667 510.333333333 762 483 c 1
 762 541 l 1
 766 483 l 2
 766 477 759 453 745 411 c 1
 756.333333333 385.666666667 762 355.333333333 762 320 c 0
 762 297.516851434 741 202.656123011 741 178 c 0
 741 154.787720056 703 44.5752065125 703 19 c 1
 723 19 l 1
 700.440051309 -33.6398802785 685.553506655 -181.760723578 674.5 -247.5 c 128
 668.166666667 -285.166666667 658 -304 644 -304 c 1
 644 -329 l 1
 627 -331 l 1
 604 -294 l 1
 604 -284 l 1
 615.628972653 -270.432865239 625 -254.988458716 625 -231 c 130
EndSplineSet
EndChar

StartChar: B
Encoding: 66 66 39
Width: 1059
GlyphClass: 2
Flags: HW
LayerCount: 2
Fore
SplineSet
538 661 m 1
 547.574837262 661 625.85350087 629.292998259 629 623 c 1
 629 637 l 1
 650 632 l 1
 644 620 l 1
 648 615 l 1
 648 625.463861657 650.654244724 633 658.5 633 c 128
 667.577781058 633 669 662.387866682 669 679 c 0
 669 695.409214421 664 756.609144615 664 773 c 0
 664 785 668 792.666666667 676 796 c 1
 669.333333333 802 666 814 666 832 c 0
 666 833.406583554 668 843.802854549 668 845 c 0
 656.666666667 858.333333333 638.333333333 866 613 868 c 128
 587.666666667 870 568.666666667 878 556 892 c 1
 556 868 l 1
 521 868 l 1
 538 845 l 1
 521 845 l 1
 521 837 l 2
 521 829.666666667 522 824.666666667 524 822 c 1
 528 824 l 1
 534.666666667 824 538 796 538 740 c 2
 538 706 l 1
 521 685 l 1
 538 685 l 1
 538 661 l 1
522 253 m 0
 522 243.356139477 521 205.530657506 521 197 c 2
 521 152 l 1
 525 152 525 152 531 152 c 0
 585.839205385 152 590.987869194 150.282973231 629 128 c 1
 622 128 l 1
 629 116 l 1
 629 138.666666667 635.333333333 158 648 174 c 1
 648 255 l 2
 648 263.666666667 651 268 657 268 c 2
 668 268 l 1
 668 274 664.333333333 281.5 657 290.5 c 128
 649.666666667 299.5 646 312.333333333 646 329 c 0
 646 341 646.666666667 351.333333333 648 360 c 1
 639.333333333 371.333333333 623.5 377.833333333 600.5 379.5 c 128
 577.5 381.166666667 562.666666667 390 556 406 c 1
 556 374.311093366 536.272312661 396.544625322 526.5 377 c 128
 522.833333333 369.666666667 521 356.333333333 521 337 c 1
 502 337 l 1
 502 312 l 1
 515.333333333 312 522 292.333333333 522 253 c 0
849 81 m 1
 828.350547553 50.0258213293 799.798109468 -63 750 -63 c 2
 745 -63 l 1
 751 -70 l 1
 728.333333333 -79.3333333333 710.333333333 -84 697 -84 c 0
 696.30033471 -84 687.69642546 -81 687 -81 c 2
 687 -58 l 1
 672 -77 l 1
 645.998789937 -65.1812681534 611.191917851 -35 576 -35 c 1
 552.666666667 -60.3333333333 540 -80.6666666667 538 -96 c 1
 527.333333333 -96 521.333333333 -86 520 -66 c 1
 518 -65 l 1
 502 -35 l 1
 502 -65 488.333333333 -83 461 -89 c 1
 456.333333333 -21 436 13 400 13 c 0
 368.666666667 13 348.333333333 -3 339 -35 c 1
 321 -66 l 1
 291.666666667 -56 277 -23 277 33 c 0
 277 76.3510594063 280 229.274327087 280 268 c 1
 264 268 256 297 256 355 c 0
 256 391 257.333333333 415.666666667 260 429 c 1
 244 429 236 476 236 570 c 0
 236 594.547301506 240 685.238204373 240 706 c 0
 240 811.514728319 225.360729375 1003.87192128 199 1079 c 1
 240 1101 l 1
 240 1123 l 1
 199 1101 l 1
 199 1123 l 1
 221 1123 l 1
 221 1200.33333333 160.333333333 1309 39 1449 c 1
 74 1445 l 1
 77.3333333333 1449.66666667 147.5 1462.83333333 284.5 1484.5 c 128
 421.5 1506.16666667 500.333333333 1517 521 1517 c 0
 556 1517 556 1517 573.5 1517 c 128
 667.89179866 1517 771.807416478 1507.09880825 839.5 1479 c 128
 917.903767665 1446.45503984 989 1396.06581117 989 1286 c 0
 989 1146.55078877 934.40433518 846.854889749 910 718 c 1
 884 587 l 1
 876.666666667 587 871.666666667 591.333333333 869 600 c 1
 869 536.586869329 836.336100266 521.606002456 788 498 c 1
 850.583172098 498 869 424.440934989 869 360 c 0
 869 307.70402435 849 133.026457358 849 81 c 1
EndSplineSet
EndChar

StartChar: C
Encoding: 67 67 40
Width: 1033
GlyphClass: 2
Flags: HW
LayerCount: 2
Fore
SplineSet
451 -217 m 1
 449 -201 l 1
 449 -190 l 1
 450.333333333 -195.333333333 451 -204.333333333 451 -217 c 1
592 251 m 0
 592 258.919427529 599.464988903 271 607 271 c 0
 607.666666667 271 609.666666667 269.333333333 613 266 c 1
 613 334 l 1
 630 360 l 1
 630 406 l 1
 703 406 l 1
 720.81750559 403.624332588 873.007401509 365.315153928 886 360 c 1
 881 381 l 1
 901 360 l 1
 919 360 l 1
 901 334 l 1
 901 290 l 1
 885 290 877 277 877 251 c 0
 877 244.571501901 881 212.697609374 881 207 c 1
 860 174 l 1
 860 128 l 1
 840 103 l 1
 820 103 l 1
 820 67.6666666667 814 44.6666666667 802 34 c 1
 779 57 l 2
 780.333333333 55.6666666667 781 52.6666666667 781 48 c 0
 781 40.1302616628 773.921567935 31 766 31 c 0
 763.793788263 31 763.351633993 34 761 34 c 1
 761 2.11333145436 760.129746206 -5.00233943079 742.5 -16.5 c 128
 734.833333333 -21.5 728 -28 722 -36 c 1
 722 -58 l 1
 712.105778198 -71.8519105227 696.8088436 -81 674 -81 c 130
 648 -81 l 1
 652 -161 l 2
 654 -192.333333333 646.666666667 -220 630 -244 c 1
 613 -219 l 1
 613 -181 606.833333333 -140.333333333 594.5 -97 c 128
 582.166666667 -53.6666666667 576 -25.3333333333 576 -12 c 1
 559 -12 l 1
 559 -57.3257315318 576 -191.655626804 576 -236 c 1
 574.468568584 -231.405705753 562.67974972 -186 559 -186 c 0
 557.666666667 -185.333333333 555.333333333 -185 552 -185 c 0
 542 -185 537 -188.666666667 537 -196 c 1
 526.074891439 -196 523.546452646 -185.092905291 520 -178 c 1
 520 -168.666666667 523.333333333 -160.666666667 530 -154 c 128
 536.666666667 -147.333333333 540 -142 540 -138 c 2
 540 -103 l 1
 528 -88.3333333333 522 -66 522 -36 c 1
 487 -12 l 1
 469 -36 l 1
 449 -36 l 1
 432 -58 l 1
 432 -152 l 1
 435.333333333 -156.666666667 439.666666667 -163.666666667 445 -173 c 1
 449 -166 l 1
 449 -190 l 1
 445 -173 l 1
 432 -188 l 1
 432 -195 l 1
 396 -213 l 1
 396 -103 l 2
 396 -86.3333333333 389.833333333 -69.8333333333 377.5 -53.5 c 128
 365.166666667 -37.1666666667 359 -23.3333333333 359 -12 c 1
 287 -12 l 1
 287 13 l 1
 247 13 l 1
 231.666666667 31.6666666667 224 61.3333333333 224 102 c 0
 224 114 224.666666667 122.666666667 226 128 c 1
 208 128 l 1
 226 151 l 1
 203.333333333 196.333333333 183.333333333 227 166 243 c 1
 166 266 l 1
 185 290 l 1
 166 312 l 2
 166 313.496117057 167 320.291231025 167 322 c 0
 167 339.333333333 160.333333333 359 147 381 c 1
 157 381 l 1
 106 637 l 1
 127 671 l 1
 106 659 l 1
 113.244830427 666.244830427 126 677.91314767 126 691 c 128
 126 696.057019704 127 700.17561549 127 706 c 1
 113 696 106 680.333333333 106 659 c 1
 104 679.666666667 95.3333333333 736.833333333 80 830.5 c 128
 64.6666666667 924.166666667 57 996 57 1046 c 0
 57 1169.87121135 115.814157378 1318.54989158 185 1377 c 1
 215 1354 l 1
 208 1377 l 1
 226 1400 l 1
 247 1400 l 1
 282.043149881 1461.04290624 378.986849967 1517 469 1517 c 2
 703 1517 l 1
 715.666666667 1499 738.5 1482.33333333 771.5 1467 c 128
 804.5 1451.66666667 827.333333333 1437 840 1423 c 1
 840 1377 l 1
 860 1377 l 1
 860 1400 l 1
 881 1400 l 1
 919 1354 l 1
 901 1332 l 1
 914.333333333 1332 927.166666667 1320.16666667 939.5 1296.5 c 128
 951.833333333 1272.83333333 965.333333333 1261 980 1261 c 1
 980 1170 l 1
 962 1170 l 1
 980 1145 l 1
 980 983 l 2
 980 944.394904644 957.853211041 656.44601274 941 637 c 1
 941 613 l 1
 890.709850585 636.106284866 883.264851388 638 814 638 c 0
 768 638 740 632 730 620 c 1
 716.666666667 632 700.666666667 638 682 638 c 0
 678.940206064 638 670.826785854 637 668 637 c 1
 648 613 l 1
 630 637 l 1
 648 659 l 1
 648 683 l 2
 648 710.180081354 613 769.994615925 613 799 c 1
 595 799 l 1
 585.412547061 818.174905879 586.079565635 868 559 868 c 0
 553.424807778 868 544.979252877 844 542 844 c 128
 540.666666667 844 540 844.333333333 540 845 c 2
 522 824 l 1
 487 824 l 1
 473.666666667 790.666666667 467 770 467 762 c 0
 467 756.666666667 467.666666667 753.333333333 469 752 c 1
 449 752 l 1
 449 727 l 1
 469 727 l 1
 469 613 l 2
 469 588.257366455 449 500.935414879 449 474 c 0
 449 436.281520424 469 305.380989586 469 266 c 1
 487 266 l 1
 487 219 l 1
 522 174 l 1
 538 174 l 1
 562 200.666666667 581 223.666666667 595 243 c 1
 593 245 592 247.666666667 592 251 c 0
537 -196 m 1
 540 -204 l 1
 538 -202 537 -199.333333333 537 -196 c 1
EndSplineSet
EndChar

StartChar: D
Encoding: 68 68 41
Width: 1071
GlyphClass: 2
Flags: HW
LayerCount: 2
Fore
SplineSet
534 315 m 1
 553.346480593 315 560.399764997 257.000293754 570 245 c 1
 570 199 l 1
 589 199 l 1
 589 245 l 1
 629.089524581 256.45414988 690.957811982 249.578119817 695.5 295 c 128
 696.5 305 697 320 697 340 c 0
 697 370.666666667 703.666666667 393.333333333 717 408 c 1
 717 454 l 1
 729 454 735 468.333333333 735 497 c 2
 735 526 l 1
 758 526 l 1
 758 548 l 1
 735 526 l 1
 735 570 l 1
 746 570 l 1
 738.666666667 576 735 594.333333333 735 625 c 0
 735 632.873658691 737 662.168506221 737 669 c 0
 732.45701454 759.859709194 719.840672438 847 625 847 c 2
 589 847 l 1
 589 824 l 1
 570 824 l 1
 570 803 l 1
 552 779 l 1
 534 803 l 1
 534 783.019674386 533.328290265 779 552 779 c 1
 552 733 l 1
 534 707 l 1
 534 570 l 1
 516 570 l 1
 516 559.269986594 523.794773321 548 534 548 c 1
 534 477 l 1
 552 454 l 1
 534 454 l 1
 534 315 l 1
637 -138 m 0
 637 -120.104277857 641 -97.2733998805 641 -81 c 1
 625 -55 l 1
 625 -79 l 1
 612 -84 l 1
 607.097743328 -125.669181714 594.159919007 -267.688664145 589 -310 c 1
 552 -264 l 1
 552 -201.028280988 535.292642748 3.83107634673 534 62 c 1
 463.939842242 62 402.016592305 47.0294974307 379.5 7 c 128
 362.904265082 -22.5035287437 354.795203241 -69.8930074289 355.5 -115 c 128
 356.269560843 -164.25189395 342.351075892 -213.17019898 318 -241 c 1
 318 -191.187972393 281.113292873 -11.8715935383 280 36 c 1
 295 36 l 1
 283.666666667 71.3333333333 278 96 278 110 c 0
 278 152.666666667 285.666666667 174.666666667 301 176 c 1
 260.96439597 256.071208059 207.685147951 796.831693387 201 918 c 1
 193.638218727 1016.15708363 179.599849214 1095.44486329 151.5 1173.5 c 128
 131.745872337 1228.37257684 104.098907764 1293.30296464 81 1356 c 1
 101 1356 l 1
 101 1380 l 2
 101 1382 94.3333333333 1398 81 1428 c 1
 59 1421 l 1
 66 1428 l 1
 39 1428 l 1
 116.333333333 1431.33333333 233.666666667 1443.66666667 391 1465 c 128
 548.333333333 1486.33333333 668.666666667 1497 752 1497 c 0
 794.145890158 1497 830.770653913 1476.8684742 842.5 1449.5 c 128
 850.089821477 1431.79041655 864.103781848 1402 887 1402 c 1
 888.333333333 1389.33333333 899.166666667 1375.5 919.5 1360.5 c 128
 939.833333333 1345.5 960 1330.5 980 1315.5 c 128
 1000 1300.5 1011 1286.33333333 1013 1273 c 1
 991 1241 l 1
 1019 1235 1033 1184.33333333 1033 1089 c 0
 1033 902.210815915 973.938384088 669.691695909 938.5 501.5 c 128
 917.5 401.833333333 907 318.333333333 907 251 c 0
 907 183.221436631 898.118357174 119.580744938 872 86 c 128
 849.194569903 56.6787327325 814.553439374 6.49523859186 797 -33 c 1
 778 -8 l 1
 758 -33 l 1
 769 -33 l 1
 717 -55 l 1
 702 -45 l 1
 684.666666667 -47.6666666667 676 -84.3333333333 676 -155 c 0
 676 -163.412035547 679 -188.046373982 679 -195 c 1
 651 -195 637 -176 637 -138 c 0
59 1421 m 1
 60.2360234268 1420.38198829 62.8274685135 1419 64 1419 c 1
 64 1418.33333333 63.3333333333 1418 62 1418 c 0
 60 1419.33333333 59 1420.33333333 59 1421 c 1
EndSplineSet
EndChar

StartChar: E
Encoding: 69 69 42
Width: 1169
GlyphClass: 2
Flags: HW
LayerCount: 2
Fore
SplineSet
794 -77 m 1
 793.333333333 -59 798 -49.3333333333 808 -48 c 1
 811 -48 l 1
 811 -54.3796905605 795.025391329 -70.8476520259 794 -77 c 1
759 -76 m 0
 759 1.40644100207 757.592435248 31 686 31 c 0
 658.642130959 31 644.395092221 1.72058030092 632.5 -14.5 c 128
 618.253462103 -33.9270971324 607.701673118 -65.9585263443 598 -89 c 1
 596 -86 l 1
 532.805614052 -86 541 -84.2205455335 541 -16 c 1
 525 6 l 1
 525 -1.17398414935 533 -50.5626110496 533 -60 c 0
 533 -95.3333333333 512 -113 470 -113 c 1
 470 55 l 1
 454.666666667 71 431.333333333 79 400 79 c 0
 390 79 383.666666667 78.3333333333 381 77 c 1
 360 55 l 1
 346.666666667 55 340 37.6666666667 340 3 c 0
 340 -12.3333333333 341.333333333 -26 344 -38 c 1
 308 -86 l 1
 289 -86 l 1
 291 -45 l 1
 291 156.909762093 248.025985641 425.760932099 228 610 c 1
 250 610 l 1
 228 632 l 1
 202 881.333333333 189 1074.66666667 189 1212 c 1
 210 1212 l 1
 210 1234 l 1
 169 1234 l 1
 169 1282 l 1
 142.333333333 1337.33333333 102.333333333 1391 49 1443 c 1
 67 1443 l 1
 88 1466 l 1
 229.333333333 1493.33333333 371.666666667 1507 515 1507 c 0
 693.666666667 1507 891.333333333 1485.66666667 1108 1443 c 1
 1081.33333333 1419.66666667 1054.33333333 1381.66666667 1027 1329 c 1
 1027 1281 1017 1226 997 1164 c 128
 977 1102 957 1038.83333333 937 974.5 c 128
 917 910.166666667 907 850.333333333 907 795 c 1
 867.666666667 795 806.833333333 806.833333333 724.5 830.5 c 128
 642.166666667 854.166666667 581 866 541 866 c 1
 541 679 l 1
 525 656 l 1
 559 679 l 1
 722 679 l 2
 744.666666667 679 763 671.333333333 777 656 c 1
 811 656 l 1
 811 606 805.666666667 567 795 539 c 1
 797.666666667 512.333333333 799 491.666666667 799 477 c 0
 799 437 791.666666667 403.666666667 777 377 c 1
 764.240571538 381.253142821 736.836073027 402 722 402 c 2
 559 402 l 1
 525 377 l 1
 525 238 l 1
 541 217 l 1
 541 261 l 1
 705 261 l 2
 728.148198925 261 824.88428313 238 850 238 c 1
 850 218.562757344 832 165.069395739 832 146 c 1
 811 122 l 1
 813 46 l 2
 813 25.1445044154 791.78318643 -75.6924746362 789 -91 c 1
 757 -132 l 1
 738 -86 l 1
 750.666666667 -86.6666666667 757 -90 757 -96 c 1
 758.333333333 -93.3333333333 759 -86.6666666667 759 -76 c 0
EndSplineSet
EndChar

StartChar: F
Encoding: 70 70 43
Width: 1145
GlyphClass: 2
Flags: HW
LayerCount: 2
Fore
SplineSet
313 -128 m 0
 313 -129.985263192 328 -136.860957198 328 -138 c 2
 328 -147 l 1
 302.666666667 -139.666666667 290 -132.333333333 290 -125 c 2
 290 174 l 1
 302 190 308.666666667 220.333333333 310 265 c 128
 311.333333333 309.666666667 317.333333333 341.666666667 328 361 c 1
 308 385 l 1
 308 408 l 1
 290 429 l 1
 308 452 l 1
 290 477 l 1
 290 755 l 1
 276.099740703 772.691239105 272.115494585 822.794358603 266.5 849 c 128
 263.5 863 257.333333333 870 248 870 c 1
 248 1046 l 2
 248 1148.14246136 250.973878666 1182.21967657 216.5 1247.5 c 128
 200.833333333 1277.16666667 182 1303.5 160 1326.5 c 128
 138 1349.5 102.333333333 1383.33333333 53 1428 c 1
 70 1450 l 1
 48 1429 l 1
 53 1428 l 1
 48 1428 l 1
 48 1429 l 1
 30 1450 l 1
 248 1495 l 1
 263.333333333 1479.66666667 282.666666667 1472 306 1472 c 1
 324 1495 l 1
 559 1495 l 1
 571 1478.33333333 586.666666667 1470 606 1470 c 0
 626 1470 646.666666667 1478.33333333 668 1495 c 1
 668 1450 l 1
 703 1495 l 1
 765.962822053 1483.69898066 898.324960519 1471.29186294 966 1459.5 c 128
 1010 1451.83333333 1051 1441.33333333 1089 1428 c 1
 1058.33333333 1428 1031.66666667 1400.83333333 1009 1346.5 c 128
 967.816330583 1247.78032184 945.52140954 1063.0390288 936 934.5 c 128
 931.333333333 871.5 929 819.666666667 929 779 c 1
 949 779 l 1
 949 733 l 1
 929 737.666666667 896.166666667 750.166666667 850.5 770.5 c 128
 804.833333333 790.833333333 768.333333333 801 741 801 c 1
 741 824 l 1
 723 824 714 820.333333333 714 813 c 0
 714 809 716 805 720 801 c 1
 714 799.666666667 702 799 684 799 c 0
 634 799 598 807.333333333 576 824 c 1
 589.333333333 806 596 776.333333333 596 735 c 0
 596 724.74342654 628.277679131 713.833037393 626 707 c 1
 608 685 l 1
 879 685 l 1
 893 663 l 1
 879 638 l 1
 879 500 l 1
 862 500 l 1
 873.333333333 478.666666667 879 448 879 408 c 0
 879 394.314497689 865.712672341 372.138017022 862 361 c 1
 846 394.333333333 808.333333333 411 749 411 c 0
 742.333333333 411 726 410 700 408 c 1
 702.666666667 410.666666667 704 414 704 418 c 0
 704 424.666666667 699 428 689 428 c 0
 680.333333333 428 676 424.666666667 676 418 c 0
 676 414.666666667 676.666666667 412.333333333 678 411 c 2
 662 429 l 1
 662 408 l 1
 626 408 l 1
 626 429 l 1
 614 413 608 387 608 351 c 2
 608 315 l 1
 589 315 l 1
 608 292 l 1
 608 230.523586259 626 28.214807764 626 -33 c 2
 626 -120 l 1
 608 -142 l 1
 608 -120 l 1
 589 -96 l 1
 601.666666667 -73.3333333333 608 -58.3333333333 608 -51 c 2
 608 -43 l 2
 608 -36.3333333333 581.666666667 -33 529 -33 c 1
 513 -41.6666666667 505 -68.3333333333 505 -113 c 0
 505 -125.571870909 512 -157.734294572 512 -170 c 1
 511.333333333 -169.333333333 503.333333333 -168 488 -166 c 1
 488 -144 l 1
 468 -120 l 1
 468 -79 l 1
 389 -10 l 1
 338.333333333 -10 313 -49.3333333333 313 -128 c 0
EndSplineSet
EndChar

StartChar: G
Encoding: 71 71 44
Width: 1022
GlyphClass: 2
Flags: HW
LayerCount: 2
Fore
SplineSet
476 255 m 1
 472 255 l 1
 476 271 l 1
 476 255 l 1
476 255 m 1
 476 239 470 231 458 231 c 1
 476 255 l 1
495 858 m 0
 429.305815988 858 422 815.320792098 422 745 c 1
 418 748 l 1
 422.666666667 738.666666667 425 727.333333333 425 714 c 1
 422 676 l 1
 418.676909499 661.046092744 403 623.243420691 403 602 c 1
 422 578 l 1
 403 534 l 1
 413.666666667 510 422.333333333 471 429 417 c 128
 435.666666667 363 445.333333333 324.333333333 458 301 c 1
 439 301 l 1
 439 280 l 1
 454.636235488 280 472 271.486929379 472 255 c 1
 468 255 l 2
 461.333333333 255 458 247 458 231 c 1
 510 170 l 1
 547 185 l 1
 547 166 l 1
 566 164 l 1
 566 204.289467186 637.586029526 208.812605173 657 231 c 1
 637 255 l 1
 650.333333333 289.666666667 657 311 657 319 c 2
 657 324 l 1
 637 324 l 2
 601.666666667 324 571.666666667 309.333333333 547 280 c 1
 547 336.861262392 530 520.564929012 530 578 c 1
 556 542 593.666666667 524 643 524 c 0
 666.52970903 524 743.02602248 534 767 534 c 0
 847.666666667 534 902 518.333333333 930 487 c 1
 930 380 l 2
 930 185.296832624 913.302112904 -13.4635311056 769 -65 c 1
 761.252387763 -78.9457020266 742.888167973 -76.514151435 734.5 -92 c 128
 730.166666667 -100 728 -115.333333333 728 -138 c 0
 728 -148 716 -155.666666667 692 -161 c 1
 674 -135 l 1
 692 -138 l 1
 655 -63 l 1
 615.870879723 -79.7696229759 598 -92.3642722886 598 -140 c 0
 598 -144.19557668 601 -157.678629213 601 -163 c 1
 601 -146.333333333 589.333333333 -138 566 -138 c 0
 553.319900412 -138 546.775989691 -126.655938145 545 -116 c 0
 545 -115.19472337 551 -107.802576772 551 -107 c 0
 551 -89.9453592111 527.57926337 -55.2588615718 519 -42 c 128
 511.398682825 -30.2525098212 484.551920568 15.4480794315 476 24 c 1
 477.333333333 16.6666666667 478 4 478 -14 c 0
 478 -52.6666666667 473.333333333 -96 464 -144 c 1
 443.518309559 -126.078520864 422 -61.1560262994 422 -22 c 1
 403 -46 l 1
 385 -46 l 1
 389 -48 l 1
 367 -91 l 1
 367 -99 376.5 -110.833333333 395.5 -126.5 c 128
 414.5 -142.166666667 424 -154.333333333 424 -163 c 0
 424 -186.6242544 421.325086274 -208.488339085 399 -207 c 2
 367 -205 l 1
 367 -178.357803514 349 -94.9047071417 349 -68 c 1
 320.939742918 -68 299.919696818 -38.1036361819 286.5 -22 c 128
 280.943534739 -15.3322416869 258.657121901 18.3428780985 253 24 c 1
 248 21 l 1
 188.227423334 162.063280932 151 279.394442916 151 462 c 0
 151 496 137.5 596.5 110.5 763.5 c 128
 83.5 930.5 70 1058.33333333 70 1147 c 0
 70 1182.33333333 77.6666666667 1209.66666667 93 1229 c 1
 98 1217 l 1
 102 1222 l 1
 93 1298 l 1
 104.333333333 1325.33333333 123.666666667 1355.66666667 151 1389 c 1
 194 1367 l 1
 207 1389 l 1
 194 1414 l 1
 222.666666667 1414 262.666666667 1429.16666667 314 1459.5 c 128
 365.333333333 1489.83333333 407 1505 439 1505 c 1
 439 1484 l 1
 454.946869588 1484 456.191939185 1505 476 1505 c 1
 458 1460 l 1
 471.579464608 1471.31622051 493 1484.83971748 493 1505 c 1
 663.196693802 1505 841.975828137 1395.68536146 930 1298 c 1
 907 1298 l 1
 930 1247 l 1
 930 1251 l 1
 964 1212.33333333 981 1150.66666667 981 1066 c 0
 981 1036.66666667 972.166666667 979 954.5 893 c 128
 936.833333333 807 928 736.333333333 928 681 c 0
 928 677.221104328 948.552550544 603.789797825 949 602 c 1
 904 602 l 2
 706 602 605.666666667 623.666666667 603 667 c 1
 595 653 l 1
 599 663 601 673.666666667 601 685 c 0
 601 701.666666667 595.333333333 720.666666667 584 742 c 1
 603 764 l 1
 584 764 l 1
 566 789 l 1
 566 820 l 1
 547 811 l 1
 543.666666667 842.333333333 526.333333333 858 495 858 c 0
595 653 m 2
 591.666666667 646.333333333 589 642 587 640 c 2
 595 653 l 2
EndSplineSet
EndChar

StartChar: H
Encoding: 72 72 45
Width: 1488
GlyphClass: 2
Flags: HW
LayerCount: 2
Fore
SplineSet
785 -205 m 1
 785 -412 l 1
 748 -412 l 1
 748 -366 l 2
 748 -317.682524633 763.333371863 -230.49015075 785 -205 c 1
1099 306 m 1
 1099 229.336739116 1059 -12.1481947811 1059 -89 c 0
 1059 -131.149457041 1020.45534663 -155 979 -155 c 1
 1009 -89 l 1
 999 -63 l 1
 997 -65 l 2
 996.333333333 -65 996 -64.3333333333 996 -63 c 1
 948 -91 l 1
 939 -89 l 1
 898 -48 l 1
 902 -73 l 1
 902 -113.666666667 887.333333333 -134 858 -134 c 1
 856.695464987 -130.086394961 830 -103.938689395 830 -97 c 0
 830 -93.6666666667 833 -91 839 -89 c 1
 803 -65 l 1
 785 -94 l 1
 786.175424227 -71.666939694 803 1.75277284952 803 26 c 1
 766 3 l 1
 748 51 l 1
 773.333333333 51 786 107 786 219 c 0
 786 236.254442246 785 291.532779053 785 306 c 0
 785 326.514825761 804 390.502993303 804 411 c 0
 804 416.430818975 797.966292935 424 793 424 c 0
 790.959391909 424 786.551323436 421 785 421 c 1
 766 444 l 1
 738.353058511 444 649.931280053 421 622 421 c 1
 622 398 l 1
 594 365 l 1
 613 375 l 1
 614.307238838 361.927611624 624 283.850164591 624 268 c 2
 622 3 l 1
 541 -41 l 1
 543 -26 l 1
 539 -22 l 1
 462 -18 l 2
 454 -18 444.333333333 -23.1666666667 433 -33.5 c 128
 411.459272225 -53.1400753244 375.830754892 -83.691740016 340 -89 c 1
 295 -46 l 1
 297 -42.6666666667 301 -41 307 -41 c 0
 319 -41 330 -44.3333333333 340 -51 c 1
 340 243 300.333333333 587.666666667 221 983 c 0
 207.964506046 1048.17746977 179 1132.63974254 179 1209 c 0
 179 1321.10481891 96.2592313853 1408.70370624 -6 1418 c 1
 104.922498258 1418 194.609589334 1423.83659496 301.5 1442.5 c 128
 364.5 1453.5 404.333333333 1468 421 1486 c 1
 427 1462 l 1
 430 1460 l 1
 437.903804573 1460 443 1471.37166938 443 1480 c 0
 443 1481.12211065 441 1484.87896929 441 1486 c 1
 487.141420178 1486 648.328169331 1510 693 1510 c 1
 675.773657994 1488.46707249 646.293330999 1410.8186622 631.5 1382.5 c 128
 619.833333333 1360.16666667 609.666666667 1349 601 1349 c 1
 622 1324 l 1
 622 1201.74697288 601 796.603650122 601 675 c 1
 620.465732922 675 673.960713697 700 693 700 c 1
 693 675 l 1
 716.564323696 675 795.458355113 700 819 700 c 1
 819 688 l 1
 832.333333333 704 839 722 839 742 c 2
 839 1118 l 2
 839 1150.15873778 866.10012175 1255 898 1255 c 1
 898 1281.71717115 872.073126002 1295.48930011 859.5 1312.5 c 128
 846.16097581 1330.54691508 839 1361.16774032 839 1395 c 0
 839 1419.02173303 819 1486.33008524 819 1510 c 1
 881.666666667 1510 935 1502 979 1486 c 1
 1001 1510 l 1
 1020.49832645 1510 1079.5178727 1486 1099 1486 c 1
 1099 1510 l 1
 1123 1482 l 1
 1259 1486 l 1
 1269.66666667 1471.33333333 1292.66666667 1463.5 1328 1462.5 c 128
 1363.33333333 1461.5 1387.33333333 1454.33333333 1400 1441 c 1
 1458 1441 l 2
 1414.66666667 1441 1356.66666667 1346 1284 1156 c 1
 1238 1012 l 1
 1240 1002 l 1
 1233 954 l 1
 1226 957 l 1
 1219 954 l 1
 1240 931 l 1
 1220.43630537 869.048300325 1169 774.24097775 1169 696 c 0
 1169 682 1172 667.666666667 1178 653 c 1
 1150 653 1136 624.666666667 1136 568 c 0
 1136 555.206680457 1140 501.889988495 1140 491 c 0
 1140 460.703012391 1119 359.26782914 1119 329 c 1
 1083 296 l 1
 1099 306 l 1
EndSplineSet
EndChar

StartChar: I
Encoding: 73 73 46
Width: 823
GlyphClass: 2
Flags: HW
LayerCount: 2
Fore
SplineSet
536 -45 m 1
 536 -50.6372215161 535 -59.0680277179 535 -65 c 1
 500 -111 l 1
 463 -87 l 1
 462 -74 l 2
 462 -61 462 -61 462 -53 c 0
 462 -37.6666666667 466.666666667 -29.3333333333 476 -28 c 1
 445 55 l 1
 392 55 l 1
 374 31 l 1
 374 -7 l 2
 374 -19.18785916 387.411463028 -43.822926056 392 -53 c 2
 374 -18 l 1
 374 -33 l 2
 374 -69 367.333333333 -87 354 -87 c 1
 337 -65 l 1
 305.363005061 167.004629549 259.399257203 468.315977347 238 707 c 128
 229.333333333 803.666666667 225 887 225 957 c 0
 225 990.108790602 247 1111.70102862 247 1143 c 0
 247 1175.21759685 219.874306183 1193.50092509 206 1212 c 1
 206 1299.64120659 137.315981841 1338.23035735 84 1375 c 1
 64 1419 l 1
 84 1443 l 1
 70 1443 l 2
 53.3333333333 1443 38.6666666667 1451.33333333 26 1468 c 1
 12 1468 l 1
 50 1471.33333333 81.6666666667 1487 107 1515 c 1
 374 1515 l 1
 374 1490 l 1
 407.333333333 1506.66666667 425 1515 427 1515 c 2
 518 1515 l 1
 535 1497 l 1
 554 1515 l 1
 647.333333333 1515 721.333333333 1506.66666667 776 1490 c 1
 717 1399 l 1
 695 1399 l 1
 695 1375 l 1
 717 1375 l 1
 635 1212 l 1
 651 1209.33333333 665 1201.33333333 677 1188 c 1
 671 1156 662.333333333 1090.16666667 651 990.5 c 128
 639.666666667 890.833333333 628 818.333333333 616 773 c 1
 595 773 l 1
 597.666666667 740.333333333 604.666666667 717.333333333 616 704 c 1
 616 517 l 1
 581 517 l 1
 591.666666667 511 597 493.333333333 597 464 c 1
 595 449 l 1
 577 426 l 1
 577 402 l 1
 591.666666667 402 599 378.666666667 599 332 c 0
 599 282.964523065 577 127.510933254 577 79 c 0
 577 71 583 55 595 31 c 1
 577 8 l 1
 595 8 l 1
 616 -38 l 1
 577 -38 l 1
 554 -16 l 1
 535 -16 l 1
 518 8 l 1
 518 -60 l 1
 528 -60 534 -55 536 -45 c 1
EndSplineSet
EndChar

StartChar: J
Encoding: 74 74 47
Width: 933
GlyphClass: 2
Flags: HW
LayerCount: 2
Fore
SplineSet
337 -20.5 m 130
 337 13 l 1
 296 57 l 1
 265.333333333 57 250 23.6666666667 250 -43 c 1
 251.42230557 -33.0438610135 254.853833086 -24.2192503704 259 -18 c 1
 258.333333333 -46.6666666667 250.333333333 -70.3333333333 235 -89 c 1
 215 -66 l 1
 215 -56.2390557942 223 -33.8637915918 223 -28 c 0
 223 -22 219.333333333 -17 212 -13 c 128
 204.666666667 -9 186 -0.333333333333 156 13 c 1
 116 13 l 1
 56 57 l 1
 8.48465037433 57 -10.185744555 186.433403962 -25 221 c 1
 -4 268 l 1
 -22.8424662039 288.188356647 -25 299.115694261 -25 337 c 1
 -39 353.666666667 -46 370.333333333 -46 387 c 0
 -46 434.760607048 -28.5714108338 470.373859805 12.5 469.5 c 128
 50.7847193988 468.685431502 95.6525889113 477.652588911 116 498 c 1
 171 498 l 1
 125 474 l 1
 135 452 l 1
 197 521 l 1
 215 521 l 1
 235 546 l 1
 235 498 l 1
 215 498 l 1
 235 474 l 1
 234 385 l 1
 231.2600061 308.280170789 238.485049768 197 315 197 c 1
 357.806315742 262.335955607 379 299.675697399 379 390 c 0
 379 419.867248756 376 512.726369566 376 546 c 0
 376 556.122431107 396 600.946288641 396 615 c 0
 396 627.590572417 376 672.020998436 376 685 c 2
 376 868 l 2
 376 908.141703473 396 1037.39893324 396 1079 c 1
 409.333333333 1093.66666667 416 1120 416 1158 c 2
 416 1170 l 1
 396 1170 l 1
 396 1240 l 1
 382.666666667 1258 376 1281.33333333 376 1310 c 1
 344 1353.33333333 323.666666667 1399.66666667 315 1449 c 1
 337 1449 l 1
 315 1472 l 1
 315 1495 l 1
 596 1495 l 2
 703.933412433 1495 786.493547511 1465.45571863 877 1449 c 1
 816 1379 l 1
 798 1379 l 1
 816 1356 l 1
 798 1332 l 1
 798 1220.66666667 770.666666667 1143.66666667 716 1101 c 1
 737 1054 l 1
 720.333333333 1036.66666667 712 986.666666667 712 904 c 0
 712 870.666666667 713.333333333 844 716 824 c 1
 695.333333333 798 683.166666667 747.166666667 679.5 671.5 c 128
 675.833333333 595.833333333 668.333333333 545.666666667 657 521 c 1
 637 521 l 1
 637 498 l 1
 657 498 l 1
 657 439.516753919 617 255.718391142 617 197 c 1
 588.47302579 154.209538686 558 117.030597059 558 51 c 0
 558 10.3333333333 550.666666667 -18.3333333333 536 -35 c 1
 536 -33 l 1
 515 -48 l 1
 502.333333333 -50.6666666667 495.666666667 -52.3333333333 495 -53 c 1
 495 -49.6666666667 495.666666667 -47 497 -45 c 2
 515 -22 l 1
 515 13 l 1
 497 36 l 1
 416 -35 l 1
 416 -55 l 1
 396 -77 l 1
 357 -77 l 1
 357 -81 l 1
 343.519228899 -67.5192288995 337 -46.8759445041 337 -20.5 c 130
EndSplineSet
EndChar

StartChar: K
Encoding: 75 75 48
Width: 1189
GlyphClass: 2
Flags: HW
LayerCount: 2
Fore
SplineSet
713 -41 m 1
 705 -41 l 1
 705 -36 l 2
 705 -36.6666666667 707.666666667 -38.3333333333 713 -41 c 1
778 -70 m 1
 778 -64.2838353985 760 -46.7113048567 760 -41 c 1
 723 -41 l 1
 705 -18 l 2
 703.666666667 -16 703 -12.3333333333 703 -7 c 0
 703 3 709.666666667 30.3333333333 723 75 c 1
 719 75 l 1
 670 214 l 1
 686 238 l 1
 670 238 l 1
 635.333333333 283.333333333 615.666666667 322.333333333 611 355 c 1
 607.326602981 323.776125341 600.067248242 288.238841365 580.5 280 c 128
 563.602417909 272.885228593 549.638914013 257.642921748 542 238 c 1
 579 53 l 1
 569 29 l 1
 576.333333333 -0.333333333333 585.666666667 -23.6666666667 597 -41 c 1
 561 -18 l 1
 561 -29.8274720642 580.537536703 -54.381378461 583 -63 c 1
 579 -76 l 1
 595 -96 l 1
 561 -96 l 1
 548.333333333 -75.3333333333 542 -49.3333333333 542 -18 c 1
 522.666666667 -2 499 6 471 6 c 0
 452.333333333 6 440 -16 434 -60 c 1
 417 -84 l 1
 400 -60 l 1
 400 -36 l 1
 382.243185878 -33.0405309796 360 42.0445292463 360 63 c 0
 360 67 360 67 360 71 c 2
 361 75 l 1
 380 100 l 1
 380 122 l 1
 346.768611311 122 346.693396954 278.371951858 344.5 326 c 128
 342.166666667 376.666666667 336.333333333 408.333333333 327 421 c 1
 347 452 l 1
 345 470 l 1
 331.666666667 470 325 485.666666667 325 517 c 0
 325 520.755573767 327 535.032731425 327 538 c 1
 306 562 l 1
 308 586 l 1
 327 586 l 1
 327 586 270.161796768 817.80898384 271 822 c 1
 283.666666667 828 290 840 290 858 c 2
 290 865 l 1
 271 886 l 1
 286 886 l 1
 286 936 271.666666667 1009.16666667 243 1105.5 c 128
 214.333333333 1201.83333333 184.666666667 1267 154 1301 c 1
 154 1349 l 1
 172 1349 l 1
 142 1354.33333333 89.3333333333 1392.66666667 14 1464 c 1
 128.666666667 1496 239 1512 345 1512 c 1
 361 1470 l 1
 400 1512 l 1
 417 1464 l 1
 434 1495 l 1
 434 1488 l 2
 434 1472 446.333333333 1464 471 1464 c 1
 471 1505 l 1
 506 1464 l 1
 529 1512 l 1
 561 1512 l 1
 561 1405 l 2
 561 1329.71708923 579 1076.8304323 579 1002 c 1
 636.943773258 1074.42971657 670 1137.24044741 670 1257 c 1
 705.539970306 1259.53856931 703.96104256 1483.72295392 715 1515 c 1
 723 1512 l 1
 723 1488 l 1
 741 1464 l 1
 741 1488 l 1
 759 1504 783 1512 813 1512 c 1
 822.107566291 1483.15937341 1125.52336995 1442.32642291 1162 1441 c 1
 1122.66666667 1419 1072.5 1376.16666667 1011.5 1312.5 c 128
 950.5 1248.83333333 902.666666667 1206.66666667 868 1186 c 1
 886 1186 l 1
 868 1164 l 1
 868 1104.17168732 811 925.779715234 811 866 c 1
 829 844.666666667 838 808.666666667 838 758 c 0
 838 736.961102646 831 651.707318005 831 632 c 0
 831 596.092497316 851 482.613900342 851 447 c 1
 831 447 l 1
 868.430157052 354.409611503 889.526004043 212.401184638 917 108 c 1
 922 122 l 1
 922 -22 l 2
 922 -56.6666666667 917 -85.6666666667 907 -109 c 1
 904 -107 l 1
 904 -63.5689921043 867.205693872 -23.710438766 851 6 c 1
 816.242912373 6 805 -24.4288195296 805 -59 c 130
 805 -73 l 1
 803.666666667 -72.3333333333 794.666666667 -71.3333333333 778 -70 c 1
EndSplineSet
EndChar

StartChar: L
Encoding: 76 76 49
Width: 854
GlyphClass: 2
Flags: HW
LayerCount: 2
Fore
SplineSet
726 -118 m 1
 719 -120 l 1
 719 -109 l 1
 726 -118 l 1
879 280 m 2
 887.365619783 280 914.839987673 295.839987673 920 301 c 1
 920 255 l 1
 899 255 l 1
 899 231.666666667 899 208.333333333 899 185 c 1
 879 185 l 1
 899 164 l 1
 873 104.666666667 860 27.3333333333 860 -68 c 1
 839 -68 l 1
 800 -113 l 1
 802.666666667 -115.666666667 804 -119.333333333 804 -124 c 0
 804 -142 789 -152.333333333 759 -155 c 1
 726 -118 l 1
 737 -116 l 1
 741.666666667 -130.666666667 749 -138 759 -138 c 1
 759 -91 l 1
 739 -91 l 1
 759 -68 l 1
 719 -68 l 1
 678 -22 l 1
 662 -46 l 1
 662 -87 l 1
 658 -69 652 -60 644 -60 c 1
 623 -138 l 1
 623 -100 617.333333333 -60.1666666667 606 -18.5 c 128
 594.666666667 23.1666666667 589 44.6666666667 589 46 c 1
 561 44 547 -0.333333333333 547 -87 c 1
 547 -86.3333333333 547.333333333 -86 548 -86 c 0
 549.333333333 -85.3333333333 550.333333333 -84.6666666667 551 -84 c 1
 547.639628234 -89.376594825 532.104311063 -123.687066812 530 -130 c 1
 512 -130 l 1
 490 -107 l 1
 490 -22 l 1
 472 -22 l 1
 451 -7 l 1
 431 -22 l 1
 388.333333333 -22 363.333333333 -37.3333333333 356 -68 c 1
 289.166328248 -5.72316950369 267.756650194 128.271163757 253 252 c 128
 244.333333333 324.666666667 237 372.666666667 231 396 c 1
 250 418 l 1
 231 464 l 1
 250 487 l 1
 231 510 l 1
 231 534 l 1
 210 534 l 1
 210 789 l 1
 171 834 l 1
 190 880 l 1
 171 880 l 1
 171 1135 l 1
 154.291990916 1160.06201363 145.271135259 1249.43107316 129 1275 c 1
 151 1322 l 1
 129 1367 l 1
 116 1367 l 1
 129 1390 l 1
 111 1390 l 1
 90 1414 l 1
 90 1460 l 1
 70 1438 l 1
 50 1438 l 1
 50 1460 l 1
 -3 1484 l 1
 15.9459635588 1484 70.677089588 1507 90 1507 c 2
 431 1507 l 1
 451 1488 l 1
 455.666666667 1501.33333333 468.666666667 1508 490 1508 c 0
 495.38995994 1508 507.459316875 1507 512 1507 c 1
 530 1484 l 1
 570 1484 l 1
 570 1507 l 1
 739 1507 l 1
 696.58056462 1464.58056462 662.654147185 1418.32707359 606 1390 c 1
 606 1342.81420972 590.708228703 1322.64987444 568.5 1296 c 128
 556 1281 556 1281 551 1275 c 1
 551 1229 l 1
 530 1229 l 1
 530 1207 l 1
 558.544630621 1207 572 1199.0581919 572 1170 c 1
 570 1112 l 1
 556 1093.33333333 549 1057 549 1003 c 0
 549 988.853655442 551 940.903122189 551 928 c 0
 551 920.666666667 544 897.333333333 530 858 c 1
 546.666666667 844 555 769.666666667 555 635 c 0
 555 595.132371779 551 452.149903606 551 418 c 1
 537 418 l 1
 537 412.666666667 542.833333333 397 554.5 371 c 128
 566.166666667 345 572 325.333333333 572 312 c 0
 572 310.589435761 571 302.58912476 571 301 c 1
 589 280 l 1
 650 282 l 2
 676.334699018 283.144986914 764.33966988 253.889152912 791 255 c 0
 803.681528583 255 835.851859581 280 848 280 c 2
 879 280 l 2
356 -68 m 1
 372 -97 l 1
 372 -118.654946195 366.39038761 -135.268268732 350 -138 c 1
 350 -104 352 -80.6666666667 356 -68 c 1
EndSplineSet
EndChar

StartChar: M
Encoding: 77 77 50
Width: 1517
GlyphClass: 2
Flags: HW
LayerCount: 2
Fore
SplineSet
1209 185 m 1
 1211 185 l 1
 1214 189 l 1
 1209 185 l 1
1222 191 m 2
 1228 187 l 2
 1225.33333333 188.333333333 1222 189 1218 189 c 1
 1219.33333333 190.333333333 1220.66666667 191 1222 191 c 2
595 257 m 1
 586 257 l 1
 586 255.666666667 587.333333333 255 590 255 c 0
 592 255 593.666666667 255.666666667 595 257 c 1
846 233 m 1
 844 238 l 1
 844 243 l 2
 844 244.227721993 846 246.772817979 846 248 c 2
 846 233 l 1
822 1530 m 0
 822 1534 821.333333333 1536 820 1536 c 1
 816 1530 l 1
 816 1528 817.333333333 1527 820 1527 c 0
 821.333333333 1527 822 1528 822 1530 c 0
949 365 m 0
 949 426.360017623 925 586.276819037 925 645 c 1
 947 651 l 1
 947 696 l 1
 923 668 903.5 603.666666667 888.5 503 c 128
 873.5 402.333333333 866 320.333333333 866 257 c 1
 857 260 l 1
 853.666666667 260 850 256 846 248 c 1
 846 250 l 1
 838.666666667 229.333333333 831.666666667 193.333333333 825 142 c 1
 844 118 l 1
 823.888690641 114.905952406 814.887458707 79.5702968816 809.5 59 c 128
 801.033415405 26.6730406375 768.693025475 3.18591737431 726 2 c 1
 730 29 l 1
 730 39 716.666666667 90.1666666667 690 182.5 c 128
 663.333333333 274.833333333 648.333333333 323 645 327 c 1
 652.333333333 349 656 362.333333333 656 367 c 0
 656 413.666666667 641.333333333 471.666666667 612 541 c 128
 582.666666667 610.333333333 567 661.333333333 565 694 c 1
 565 602 l 2
 565 541.70594149 607 313.677046387 607 257 c 1
 602 257 l 1
 607 24 l 1
 575.666666667 24 548.333333333 40 525 72 c 1
 501 29 l 1
 505 24 l 1
 503.775256214 19.1010248542 527 4.6161754981 527 0 c 2
 525 -38 l 1
 498 -33 l 1
 466 72 l 1
 424 72 l 1
 400 46 l 1
 400 36.6666666667 415.333333333 25.6666666667 446 13 c 1
 446 2 l 2
 446 -15.3333333333 438.666666667 -44 424 -84 c 1
 370.91692171 -84 349.290190056 -23.1920906157 345 24 c 1
 340.912680239 212.016708987 298.969642634 485.219048413 256 638 c 1
 266 651 l 1
 245 675 l 1
 266 696 l 1
 229 745 l 1
 240 813 l 1
 245 813 l 1
 243.666666667 819 239.833333333 853.5 233.5 916.5 c 128
 227.166666667 979.5 217.333333333 1022 204 1044 c 1
 204 1031 l 1
 200.952255918 1031 198 1037.81326793 198 1041 c 1
 197 1044 l 1
 185 1160 l 1
 204 1207 l 1
 180 1207 l 1
 178.666666667 1208.33333333 178 1210 178 1212 c 0
 178 1221.20307167 187.797386775 1231 197 1231 c 0
 199.666666667 1231 201.666666667 1230.33333333 203 1229 c 2
 44 1462 l 1
 66.6666666667 1467.33333333 127.333333333 1476.33333333 226 1489 c 128
 324.666666667 1501.66666667 417.166666667 1514.16666667 503.5 1526.5 c 128
 589.833333333 1538.83333333 637 1548.33333333 645 1555 c 1
 645 1537 653 1528 669 1528 c 0
 673.666666667 1528 677.333333333 1528.66666667 680 1530 c 1
 645 1484 l 1
 647.666666667 1447.33333333 665.166666667 1382.5 697.5 1289.5 c 128
 729.833333333 1196.5 746 1129 746 1087 c 2
 746 1069 l 1
 765.920908752 1155.32393792 800.164741212 1264.2023189 818 1355 c 128
 825.333333333 1392.33333333 829 1420.33333333 829 1439 c 0
 829 1458.55651826 806 1523.10388449 806 1543 c 0
 806 1548.33333333 806.333333333 1552.33333333 807 1555 c 1
 825 1555 l 1
 846 1530 l 1
 846 1555 l 1
 872.571266981 1555 900.950136079 1549.44877529 903 1531 c 128
 904.860157974 1514.25857823 924.698886846 1507 947 1507 c 1
 960.333333333 1520.33333333 978.333333333 1527 1001 1527 c 2
 1008 1527 l 1
 1026 1555 l 1
 1047 1555 l 1
 1047.66666667 1540.33333333 1078 1525.33333333 1138 1510 c 128
 1198 1494.66666667 1264.66666667 1480.33333333 1338 1467 c 128
 1411.33333333 1453.66666667 1455 1444.33333333 1469 1439 c 1
 1367 1370 l 1
 1312.14819058 1370 1309 1307.96926416 1309 1253 c 1
 1327 1229 l 1
 1292 1184 l 1
 1309 1160 l 1
 1286 1113 l 1
 1272 1125 l 1
 1268 1113 l 1
 1293 1082 l 1
 1295 1088 1300.33333333 1091 1309 1091 c 1
 1293 1082 l 1
 1274.33333333 1057.33333333 1265 977.333333333 1265 842 c 0
 1265 807.856475203 1268 681.215161702 1268 651 c 0
 1268 543.859871852 1254.82137309 310.617903156 1207 257 c 1
 1222 233 l 1
 1213 168 l 2
 1205.67526465 115.912993058 1187 1.90739711895 1187 -45 c 1
 1168 -20 l 1
 1156.73587124 -35.7697802675 1126 -61.5233715853 1126 -86 c 1
 1102 -38 l 1
 1110.66666667 -36 1118.66666667 -30 1126 -20 c 1
 1108 2 l 1
 1108 57.8784579348 1083.25982559 73 1028 73 c 1
 1006 72 l 1
 988.666666667 68.6666666667 976.333333333 58.8333333333 969 42.5 c 128
 961.666666667 26.1666666667 954.333333333 16.3333333333 947 13 c 1
 934.165225108 13 924 13.7392019345 924 22 c 2
 924 24 l 1
 947 24 l 1
 925 48 l 1
 901 23 l 2
 899.666666667 21.6666666667 898 21 896 21 c 0
 889.546233057 21 885 33.9330067694 885 41 c 0
 885 44.3333333333 885.666666667 46.6666666667 887 48 c 1
 928.333333333 56 949 161.666666667 949 365 c 0
EndSplineSet
EndChar

StartChar: N
Encoding: 78 78 51
Width: 1251
GlyphClass: 2
Flags: HW
LayerCount: 2
Fore
SplineSet
734 -314 m 1
 724.280693275 -314 715 -302.967907882 715 -293 c 2
 715 -211 l 2
 715 -187.666666667 721.333333333 -176 734 -176 c 1
 734 -198 l 2
 734 -229.333333333 740 -245 752 -245 c 1
 752 -260.333333333 746 -276.333333333 734 -293 c 1
 734 -314 l 1
624 195 m 1
 624 220.70293366 607 308.322445007 607 334 c 1
 571 381 l 1
 571 450 l 1
 552.333333333 477.333333333 538.333333333 504.333333333 529 531 c 1
 533.666666667 481 536 433 536 387 c 0
 536 367.55480636 534 305.285841287 534 288 c 1
 530 292 526.666666667 294 524 294 c 0
 518.666666667 294 516 284.666666667 516 266 c 1
 534 266 l 1
 534 195.306908889 553 -48.5267218634 553 -118 c 0
 553 -154.666666667 546.666666667 -181.333333333 534 -198 c 1
 548 -219.333333333 555 -249.333333333 555 -288 c 0
 555 -300 554.333333333 -308.666666667 553 -314 c 1
 534 -337 l 1
 516 -314 l 1
 526 -293 l 1
 518.666666667 -274.333333333 515 -235 515 -175 c 0
 515 -139.666666667 515.333333333 -116.666666667 516 -106 c 1
 482 -60 l 1
 443 -81 l 1
 443 -106 l 1
 426 -124 l 1
 409 -106 l 1
 409 -81 l 1
 372 -106 l 1
 372 -245 l 1
 385 -267 l 1
 372 -293 l 1
 374.666666667 -294.333333333 376 -296.666666667 376 -300 c 0
 376 -307.262386431 367.036576062 -318 360 -318 c 0
 358 -318 355.666666667 -316.666666667 353 -314 c 2
 337 -293 l 1
 281 472 l 1
 261 472 l 1
 261 543 l 1
 248.333333333 558.333333333 231.833333333 658.666666667 211.5 844 c 128
 191.166666667 1029.33333333 181 1148.66666667 181 1202 c 128
 181 1255.33333333 174 1290.66666667 160 1308 c 1
 180 1330 l 1
 132.301629587 1330 93.1122066421 1330.81849742 83.5 1363.5 c 128
 78.6242283991 1380.07762344 63.4009133343 1391.84408926 45 1399 c 1
 81 1423 l 1
 100 1423 l 1
 101.333333333 1424.33333333 102 1426.33333333 102 1429 c 0
 102 1436.14405983 96.5253210883 1449 90 1449 c 0
 89.3333333333 1449 88 1447.66666667 86 1445 c 2
 100 1470 l 1
 179.868324043 1470 437.844152878 1493 516 1493 c 1
 516 1515 l 1
 553 1515 l 2
 567 1515 574 1494 574 1452 c 0
 574 1441.8775686 571 1407.41714187 571 1399 c 1
 584.648649209 1381.62899192 588.116377735 1332.18535586 592 1305 c 128
 594 1291 599 1284 607 1284 c 1
 624 1260 l 1
 624 1240 l 1
 642 1214 l 1
 624 1214 l 1
 662 1168 l 1
 662 1124.36706188 720.006324128 968.651910367 734 936 c 1
 734 987.034314921 742 1170.67224008 742 1221 c 0
 742 1333.66666667 720.666666667 1431.66666667 678 1515 c 1
 697 1515 l 2
 749.859126486 1515 944.958324592 1472 1000 1472 c 0
 1046 1472 1077 1463 1093 1445 c 1
 1149 1449 l 1
 1166.08430698 1449 1196.91533694 1427.69488769 1211 1423 c 1
 1195 1422.33333333 1176.83333333 1411.66666667 1156.5 1391 c 128
 1136.16666667 1370.33333333 1114.66666667 1344.33333333 1092 1313 c 128
 1069.33333333 1281.66666667 1056.33333333 1264 1053 1260 c 1
 1053 1166.66666667 1040.5 1036.66666667 1015.5 870 c 128
 990.5 703.333333333 975.666666667 594.333333333 971 543 c 1
 971 503.202457649 952 191.474887998 952 151 c 1
 936.666666667 131.666666667 929 106.333333333 929 75 c 0
 929 59.6143826572 934 7.75508544616 934 -7 c 0
 934 -35.6666666667 927 -60.3333333333 913 -81 c 1
 913 -128.099364196 893.286106279 -137.427787442 878 -168 c 1
 860 -152 l 1
 864 -66 l 2
 864 -62 856.333333333 -44.6666666667 841 -14 c 1
 829 -38 823 -56.6666666667 823 -70 c 0
 823 -84.6666666667 829 -104.666666667 841 -130 c 1
 825.666666667 -142 813.666666667 -164.666666667 805 -198 c 1
 805 -194.633668043 807 -183.363092127 807 -180 c 0
 807 -154.666666667 801 -130 789 -106 c 1
 768 -176 l 1
 734 -130 l 1
 734 -168 l 1
 715 -152 l 1
 715 -106 l 1
 701.277648951 -88.5351895742 698.970287293 -37.8217237563 694.5 -11 c 128
 692.166666667 3 686.666666667 10 678 10 c 1
 680 55 l 2
 680 68.3333333333 674 84 662 102 c 1
 678 102 l 1
 648.330665514 143.279074067 642 152.266199042 642 217 c 1
 624 195 l 1
EndSplineSet
EndChar

StartChar: O
Encoding: 79 79 52
Width: 1034
GlyphClass: 2
Flags: HW
LayerCount: 2
Fore
SplineSet
448 -138 m 2
 448 -137.511966128 448.64273441 -136.845299462 449 -136 c 1
 448.333333333 -138.666666667 448 -140.666666667 448 -142 c 2
 448 -138 l 2
469 257 m 1
 481.982320539 234.280939057 488.752717679 187 524 187 c 0
 572.713697834 187 595 298.561759859 595 349 c 1
 578 349 l 1
 578 373 l 1
 595 373 l 1
 613 396 l 1
 613 580 l 2
 613 626.818944305 595 694.21886876 595 746 c 2
 595 766 l 1
 560 835 l 1
 560 850.758144762 550.508439877 858 536 858 c 128
 534 858 534 858 524 858 c 1
 524 882 l 1
 505 882 l 1
 505 866 499 858 487 858 c 1
 487 835 l 1
 469 835 l 1
 434 766 l 1
 434 725.530934904 414 650.204332987 414 605 c 0
 414 558.333333333 420.666666667 526.666666667 434 510 c 1
 414 510 l 1
 414 492.173400241 416.957081706 488 434 488 c 1
 434 373 l 1
 445.836395114 358.204506107 453.965095941 304.182276752 458.5 280.5 c 128
 461.5 264.833333333 465 257 469 257 c 1
576 -175 m 1
 576 -168.875773718 578 -143.634349033 578 -138 c 0
 578 -44.6666666667 561.333333333 2 528 2 c 0
 450.2016194 2 455.201428857 -84.7914268576 444 -152 c 1
 412 -152 396 -131.666666667 396 -91 c 0
 396 -21.9948497014 288.228649858 10.7713501415 253 46 c 1
 253 24 l 1
 235 24 l 1
 253 46 l 1
 230.558427632 74.0519654601 198.373304824 111.55655725 183.5 146 c 128
 177.166666667 160.666666667 174 174.333333333 174 187 c 1
 195 187 l 1
 195 223.666666667 184.833333333 276.333333333 164.5 345 c 128
 144.166666667 413.666666667 134 470.333333333 134 515 c 0
 134 570.333333333 124.166666667 648.5 104.5 749.5 c 128
 84.8333333333 850.5 75 925.333333333 75 974 c 1
 53 998 l 1
 75 979 l 1
 69 1046 l 1
 62 1041 l 1
 53 1044 l 1
 75 1069 l 1
 53 1089 l 1
 53 1252.18036242 182.321506161 1388.49258055 294.5 1451 c 128
 361.5 1488.33333333 425.666666667 1507 487 1507 c 1
 505 1484 l 1
 524 1507 l 1
 541.610651429 1507 595.008718528 1484 613 1484 c 1
 632 1507 l 1
 662 1469.66666667 717.333333333 1446.66666667 798 1438 c 1
 838 1390 l 1
 838 1416 l 1
 859 1416 l 1
 857 1390 l 1
 877 1367 l 1
 859 1344 l 1
 885.512209325 1344 942 1336.60325114 942 1310 c 0
 942 1307.33333333 940.666666667 1304 938 1300 c 1
 979 1251 l 1
 959 1251 l 1
 959 1168.73409885 960.346810685 1087.80694789 999 1044 c 1
 972.333333333 1044 959 1022.45751449 959 996 c 0
 959 973.333333333 963.666666667 955.333333333 973 942 c 1
 962.333333333 922 957 905.333333333 957 892 c 0
 957 887.333333333 957.666666667 884 959 882 c 1
 979 882 l 1
 979 868 l 2
 979 598.666666667 958.666666667 464 918 464 c 1
 918 438.402677681 899 349.57140368 899 324 c 1
 918 324 l 1
 870 250 l 1
 877 233 l 1
 871.666666667 173 845.333333333 110.666666667 798 46 c 1
 798 -21.8651369034 773.648770228 -75.0671116433 759 -130 c 1
 746.333333333 -130 739.333333333 -133.333333333 738 -140 c 1
 738 -125.480321128 741 -72.1368885761 741 -60 c 0
 741 -46.4956909036 729.616557181 -20 716 -20 c 1
 705 -22 l 1
 682.333333333 -49.3333333333 667.333333333 -70.5 660 -85.5 c 128
 652.666666667 -100.5 648.666666667 -117 648 -135 c 1
 649 -130 l 2
 649 -132.666666667 648.666666667 -134.333333333 648 -135 c 2
 648 -140 l 1
 643.282659459 -153.208553515 628.615302278 -175 613 -175 c 2
 576 -175 l 1
EndSplineSet
EndChar

StartChar: P
Encoding: 80 80 53
Width: 1117
GlyphClass: 2
Flags: HW
LayerCount: 2
Fore
SplineSet
614 783 m 2
 614 761.44064406 614.122088486 760 594 760 c 1
 614 738 l 1
 614 574 l 1
 630 551 l 1
 630 528 l 1
 642.666666667 528 649 535.666666667 649 551 c 1
 774 551 l 1
 774 805 l 1
 740 876 l 1
 594 876 l 1
 594 854 l 1
 613.158777274 854 614 849.888573851 614 829 c 2
 614 783 l 2
325 354 m 130
 325 399 l 2
 325 469.666666667 309.166666667 583.333333333 277.5 740 c 128
 245.833333333 896.666666667 230 1019 230 1107 c 0
 230 1255.39053571 190.105338103 1321.00863074 102.5 1386.5 c 128
 68.1666666667 1412.16666667 43.6666666667 1434.66666667 29 1454 c 1
 208.333333333 1484.66666667 365 1500 499 1500 c 2
 541 1500 l 1
 552.333333333 1516.66666667 563 1525 573 1525 c 0
 575.996097166 1525 585.334952002 1522 588 1522 c 0
 592 1522 595.666666667 1523.66666667 599 1527 c 1
 599 1509 615.666666667 1500 649 1500 c 1
 667 1482 l 1
 720 1525 l 1
 722.206314254 1494.11160044 796.987464659 1490 831 1490 c 1
 831 1500 l 1
 963.013499145 1500 1025.35987168 1378.00547718 1054 1271.5 c 128
 1064.66666667 1231.83333333 1070 1192.66666667 1070 1154 c 1
 1027.2034863 1106.44831811 1017.07124528 975.447698232 1016 878.5 c 128
 1014.6520947 756.514570221 1000.82055792 607.423942771 977 506.5 c 128
 954.016766539 409.123668756 889.768911454 320 774 320 c 1
 757 342 l 1
 752 342 l 2
 740.25171386 342 738.594399699 320 726 320 c 2
 720 320 l 1
 720 342 l 1
 674 315 l 1
 667 342 l 1
 649 342 l 1
 649 320 l 1
 630 342 l 1
 630 320 l 1
 614 296 l 1
 614 248.212882705 630 90.9549277885 630 43 c 1
 614 19 l 1
 634.245216083 19 632.291720212 -33.931644315 633.5 -58.5 c 128
 634.5 -78.8333333333 638.333333333 -93 645 -101 c 1
 630 -87 l 1
 630 -106 l 1
 618 -106 611.666666667 -107.666666667 611 -111 c 1
 611 -97 612 -87 614 -81 c 1
 604 -56 l 1
 576 -73 l 1
 576 -97 l 1
 559 -97 l 1
 570.333333333 -106.333333333 576 -119 576 -135 c 1
 559 -97 l 1
 538 -99 l 1
 541 -84 l 1
 541 -78.6592744486 523 -57.9972526343 523 -51 c 1
 486 -24 l 1
 454.622477038 -34.4591743205 434 -29.9516323139 434 -73 c 1
 448 -97 l 1
 434 -97 l 2
 380.86398626 -97 340 144.93008834 340 197 c 0
 340 231 346.666666667 256.666666667 360 274 c 1
 330.671208643 274 325 323.337924007 325 354 c 130
EndSplineSet
EndChar

StartChar: Q
Encoding: 81 81 54
Width: 1066
GlyphClass: 2
Flags: HW
LayerCount: 2
Fore
SplineSet
662 766 m 2
 664 760 665 754.666666667 665 750 c 2
 662 766 l 2
488 493 m 1
 507.572996494 491.494384885 522 398.292527164 522 377 c 1
 541.880334274 352.859594096 561.338619336 277.345567557 576.5 246.5 c 128
 586.166666667 226.833333333 598.666666667 217 614 217 c 1
 614 228.112068282 636.172887986 286 649 286 c 1
 649 380 l 1
 653 378 659 377 667 377 c 1
 667 386.333333333 670 395.166666667 676 403.5 c 128
 682 411.833333333 685 427 685 449 c 1
 668 449 l 1
 680.666666667 454.333333333 687 491 687 559 c 0
 687 612.703096341 667.25297004 727.687629154 665 775 c 128
 662.131882629 835.230464798 656.634765123 911 594 911 c 0
 510.471884564 911 504 740.963332351 504 657 c 0
 504 624.889823358 488 524.577582863 488 493 c 1
120 1257 m 0
 110.744823664 1257 103 1265.77124275 103 1275 c 0
 103 1292.33333333 133.666666667 1319.83333333 195 1357.5 c 128
 256.333333333 1395.16666667 321.166666667 1428.83333333 389.5 1458.5 c 128
 457.833333333 1488.16666667 502.666666667 1503 524 1503 c 0
 651.246088151 1503 739.197504354 1490.1127366 791.5 1426 c 128
 816.308282715 1395.589847 850.310503963 1367.2885118 895 1352 c 1
 886 1375 l 1
 937.333333333 1313.66666667 970.166666667 1263.83333333 984.5 1225.5 c 128
 998.833333333 1187.16666667 1006 1128.66666667 1006 1050 c 0
 1006 1018.50456117 1023.60923349 915.493814829 1026 888 c 1
 1006 888 l 1
 1006 786.590852383 998.754234617 418.508469234 967 355 c 1
 985 355 l 1
 972.580703351 325.504170458 953.233100683 253.518001518 939.5 223 c 128
 930.5 203 919.333333333 185.333333333 906 170 c 1
 926 146 l 1
 916 148 l 1
 904 135 l 1
 906 123 l 1
 926 123 l 1
 926 100 l 1
 997 31 l 1
 1022.33333333 31 1038.66666667 39 1046 55 c 1
 1046 14.6211594725 1038.11273864 -26.5646208639 1017 -40 c 128
 1002.46987687 -49.2464419936 986.331461841 -63.3651487022 985 -86 c 1
 921.680031945 -86 886.497951254 -238.506146238 871.5 -283.5 c 128
 867.833333333 -294.5 865.666666667 -301.333333333 865 -304 c 2
 865 -270 l 1
 845 -270 l 1
 845 -196.022886691 817.059543995 -133.393324392 746 -132 c 1
 746 -130.274718155 747 -123.509377928 747 -122 c 0
 747 -104 740 -83.3333333333 726 -60 c 1
 677.333333333 -77.3333333333 609.333333333 -86 522 -86 c 0
 520.666666667 -86 512.166666667 -80.6666666667 496.5 -70 c 128
 477.623010214 -57.1475814226 435.451075361 -24.7255376806 418 -16 c 1
 432 -16 l 1
 409.935871554 13.7865734027 329.584881154 94.4717290689 307 123 c 1
 307 108 l 1
 297.892305815 153.538470924 250.821736495 184.267395257 229 217 c 1
 249 217 l 1
 247.613530968 218.525115935 162.700877942 358.168129903 168 367 c 1
 179 398 l 1
 131 449 l 1
 145 475.666666667 152 505.333333333 152 538 c 0
 152 549.333333333 151.333333333 558 150 564 c 1
 136 578.666666667 115.5 640.333333333 88.5 749 c 128
 61.5 857.666666667 48 927 48 957 c 0
 48 973.971263006 68 1035.32233953 68 1050 c 0
 68 1061.89579067 57.8954239131 1072 46 1072 c 2
 39 1072 l 1
 51.6666666667 1100 65.6666666667 1116.66666667 81 1122 c 1
 68 1122 l 1
 94.4637397605 1150.66905141 127 1208.38609457 127 1260 c 1
 125 1258 122.666666667 1257 120 1257 c 0
EndSplineSet
EndChar

StartChar: R
Encoding: 82 82 55
Width: 1227
GlyphClass: 2
Flags: HW
LayerCount: 2
Fore
SplineSet
769 597 m 1
 753 620 l 1
 753 597 l 1
 769 597 l 1
831 783 m 0
 831 794.545141099 812 816.92037251 812 829 c 1
 735 898 l 1
 662 898 l 1
 643 876 l 1
 627 898 l 1
 627 876 l 1
 608 876 l 1
 627 851 l 1
 627 760 l 1
 614.567371692 760 608 748.634619463 608 736 c 1
 627 736 l 1
 627 730 627 730 627 720 c 0
 627 682.482979315 622.979582689 643.711229521 647 630.5 c 128
 664.770086487 620.726452432 688.955257745 617 720 617 c 1
 744.916410027 615.867435908 770.473102778 618.430355558 769 642 c 1
 790 642 l 1
 790 660 797.333333333 676 812 690 c 1
 812 760 l 1
 822.588509669 760 831 772.516341485 831 783 c 0
729 367 m 1
 700.292114998 367 665.317093996 349.439031332 643 342 c 1
 643 365 l 1
 627 342 l 1
 635 342 l 1
 643 272 l 1
 622 233 l 1
 643 228 l 1
 643 157.716314909 662 -59.9850908293 662 -130 c 1
 647 -101 l 1
 645 -96 l 1
 647 -99 l 1
 647 -39.6178608179 631.448835489 -7 572 -7 c 1
 547.333333333 -37.6666666667 535 -76 535 -122 c 1
 557 -102 569.333333333 -88.3333333333 572 -81 c 1
 572 -109 l 1
 554 -132 l 1
 530 -132 516.666666667 -121.666666667 514 -101 c 1
 514 -105.099788287 518 -118.235008351 518 -122 c 1
 500.268377495 -97.6190190561 502.929231608 -28 462 -28 c 128
 436.983369478 -28 430 -40.3773271332 430 -66 c 1
 430.858959478 -59.9872836525 440.025106221 -45 446 -45 c 1
 428 -89 l 1
 416.12442728 -53.3732818409 391 -24.6020603515 391 23 c 0
 391 134.333333333 379.333333333 217.333333333 356 272 c 1
 373 272 l 1
 373 309.073882592 355 422.703592075 355 460 c 0
 355 464.448836837 356 478.162734437 356 483 c 1
 336 483 l 1
 336 502.173897818 318 554.481183093 318 574 c 1
 336 597 l 1
 336 614.333333333 328 623 312 623 c 0
 309.861390036 623 301.135910106 620 299 620 c 1
 301 667 l 1
 312.333333333 675.666666667 318 691.333333333 318 714 c 1
 282 714 l 1
 282 787.391884257 262 1033.48163065 262 1107 c 1
 214.585635617 1160.34115993 222.378935031 1270.90526624 142 1291 c 1
 142 1370.15851826 41 1356.62482483 41 1429 c 1
 91.8478156053 1429 250.531975117 1478 301 1478 c 1
 336 1454 l 1
 378.074455241 1505.42433418 443.620467527 1515 538 1515 c 0
 664 1515 748 1504 790 1482 c 1
 821 1503 l 1
 871 1500 l 1
 885.393253073 1480.8089959 1004.91936408 1417.69354531 1031 1409 c 0
 1046.33333333 1403.66666667 1066.66666667 1386.33333333 1092 1357 c 128
 1117.33333333 1327.66666667 1137 1313 1151 1313 c 1
 1180.50662951 1283.49337049 1181 1231.88614125 1181 1174 c 0
 1181 1050 1171 896.666666667 1151 714 c 0
 1149.66666667 701.333333333 1137.33333333 667.333333333 1114 612 c 128
 1090.66666667 556.666666667 1079 517 1079 493 c 0
 1079 479.666666667 1081.33333333 469.333333333 1086 462 c 1
 1070 459 l 1
 1044.84882483 428.818589798 991 444.673051484 991 387 c 1
 1042.21199729 328.201040144 1051 240.972928063 1051 133 c 1
 1028 118 l 1
 1031 89 l 1
 1056.34527831 56.4132135963 1075 -8.59586283122 1075 -65 c 1
 1040 -124 l 1
 1031 -122 l 1
 991 -76 l 1
 991 -97 l 1
 961.383162018 -97 933.890465785 -93.6713973547 928 -76 c 128
 921.797790398 -57.3933711938 908.679065772 -39.4393954997 891 -28 c 1
 895 -70 l 2
 895 -79.2796191372 873.626989071 -110.746021858 871 -116 c 1
 831 -91 l 1
 831 -79.6780140757 850 -48.8427614533 850 -38 c 1
 838 -28 l 1
 812 -28 l 1
 812 -29.3333333333 804.666666667 -32 790 -36 c 1
 776 -6 769 24.3333333333 769 55 c 0
 769 86.3333333333 769.666666667 109.666666667 771 125 c 1
 753 156 l 1
 758 231 l 1
 763 221 l 1
 766 228 l 1
 753 250 l 1
 753 272 l 1
 735 296 l 1
 737 319 l 1
 737 332.333333333 734.333333333 348.333333333 729 367 c 1
645 -96 m 1
 643.666666667 -96 643 -94.3333333333 643 -91 c 1
 645 -96 l 1
662 -130 m 1
 663.333333333 -131.333333333 664 -132.666666667 664 -134 c 128
 664 -135.333333333 663.333333333 -136.666666667 662 -138 c 1
 662 -130 l 1
EndSplineSet
EndChar

StartChar: S
Encoding: 83 83 56
Width: 1034
GlyphClass: 2
Flags: HW
LayerCount: 2
Fore
SplineSet
539 -38 m 1
 539 -39.9233213528 542.593019466 -43.8895291995 544 -46 c 1
 544 -57.0825731585 531.377897627 -82.2442047454 527 -91 c 1
 509 -68 l 1
 509 -38 l 1
 417 -38 l 1
 417 -57.2871037685 435 -118.730175324 435 -138 c 1
 400 -87 l 1
 400 -63 l 1
 383 -63 l 1
 362 -41 l 1
 362 -63 l 1
 346 -75 337.333333333 -81 336 -81 c 0
 328.666666667 -81 318.833333333 -73.8333333333 306.5 -59.5 c 128
 294.166666667 -45.1666666667 282 -38 270 -38 c 1
 219.333333333 12.6666666667 193.333333333 51 192 77 c 1
 150.666666667 139.666666667 130 184.333333333 130 211 c 0
 130 229 124 238 112 238 c 2
 90 238 l 1
 122 292 183.333333333 319 274 319 c 0
 303.220606515 319 407.843198519 309 435 309 c 1
 454 330 l 1
 452 319 l 1
 452 295.666666667 458.666666667 284 472 284 c 1
 472 192 l 1
 482 195 l 1
 500 195 509 186 509 168 c 1
 527 168 l 1
 548.333333333 183.333333333 578.333333333 214.333333333 617 261 c 1
 598 284 l 1
 598 309 l 1
 582 330 l 1
 582 377 l 1
 520 373 l 2
 490.666666667 370.333333333 468.666666667 379 454 399 c 1
 450.666666667 398.333333333 444.333333333 398 435 398 c 0
 396.297031678 398 358.190311959 418.962282494 346 447 c 1
 327 424 l 1
 255.666666667 462 201.166666667 499.166666667 163.5 535.5 c 128
 81.6751167632 614.428427193 50 726.505362086 50 894 c 0
 50 937.106971855 70 1077.41092622 70 1120 c 1
 130 1234 l 1
 130 1309.07374361 187.250847672 1365.19136153 238.5 1395.5 c 128
 294.261398213 1428.47717099 375.412516325 1462.79895149 443.5 1480 c 128
 475.166666667 1488 502.333333333 1494.83333333 525 1500.5 c 128
 547.666666667 1506.16666667 559.666666667 1510 561 1512 c 1
 620.333333333 1512 667.5 1505.33333333 702.5 1492 c 128
 737.5 1478.66666667 781.666666667 1451 835 1409 c 1
 842 1419 l 1
 869.464188208 1386.04297415 974.353318509 1289.25446174 1002 1257 c 1
 1002 1234 l 1
 982 1234 l 1
 982 1139.18685066 962 820.537264254 962 726 c 1
 982 726 l 1
 982 702 l 1
 962 676 l 1
 938 692 l 2
 918.467718761 704.738444286 890.84600907 727 868 727 c 0
 867.333333333 727 866.333333333 726.666666667 865 726 c 2
 863 726 l 1
 842 702 l 1
 781 748 l 1
 781 726 l 1
 634 726 l 2
 606.666666667 726 593 743.666666667 593 779 c 0
 593 787.666666667 594.666666667 808.666666667 598 842 c 1
 582 817 l 1
 544 865 l 1
 509 865 l 2
 501.572774101 865 476.670503611 846.670503611 472 842 c 1
 472 817 l 1
 454 793 l 1
 454 754.447435312 489.502384743 676 527 676 c 1
 527 656 l 1
 544 676 l 1
 659.336050512 676 758.906324537 609.403894331 823 550 c 128
 869.607077438 506.80319652 916 438.314184427 916 355 c 0
 916 337.750220534 905.59486224 257 888 257 c 0
 886 257 884 258 882 260 c 2
 901 238 l 1
 901 221.333333333 892.666666667 201 876 177 c 128
 859.333333333 153 842.666666667 128.166666667 826 102.5 c 128
 809.333333333 76.8333333333 801 53 801 31 c 1
 761 -38 l 1
 764 -70 l 1
 742 -70 l 1
 742 -87 l 1
 707 -107 l 1
 703.842159187 -97.5264775624 688 -73.1983578556 688 -63 c 1
 742 -63 l 1
 688 -18 l 1
 617 -63 l 1
 617 -87 l 1
 605.995253693 -101.672995076 598 -119.824974889 598 -145.5 c 130
 598 -178 l 1
 582 -178 l 1
 582 -155 l 2
 582 -111.666666667 587.333333333 -81 598 -63 c 1
 598 -33 l 1
 596 -35 590.666666667 -36.6666666667 582 -38 c 1
 539 -38 l 1
EndSplineSet
EndChar

StartChar: T
Encoding: 84 84 57
Width: 1275
GlyphClass: 2
Flags: HW
LayerCount: 2
Fore
SplineSet
517 -233 m 1
 517 -153.281415931 538 98.7595426881 538 178 c 1
 517 201 l 1
 517 256.469285788 501 425.362142011 501 481 c 1
 517 503 l 1
 517 548 l 1
 501 572 l 1
 511.666666667 585.333333333 517 608.666666667 517 642 c 0
 517 690.827643306 500.4907085 752.413627533 481 781 c 1
 483.666666667 784.333333333 485 787.666666667 485 791 c 0
 485 799 478.333333333 803 465 803 c 0
 429.666666667 803 405 795.666666667 391 781 c 1
 347.666666667 781 310.666666667 773.333333333 280 758 c 1
 260 781 l 1
 220 735 l 1
 220 894.333333333 215.166666667 1010 205.5 1082 c 128
 195.833333333 1154 167.333333333 1254.33333333 120 1383 c 1
 60 1429 l 1
 79 1452 l 1
 139 1449 l 1
 151.985407956 1447.00224493 199.912684117 1475.26091449 210 1474 c 1
 264.215039109 1474 413.180217126 1498 465 1498 c 2
 758 1498 l 2
 807.333333333 1498 882.166666667 1486.66666667 982.5 1464 c 128
 1082.83333333 1441.33333333 1157 1429.66666667 1205 1429 c 1
 1205 1350.66645342 1151.02486639 1314.53729958 1120 1268 c 128
 1109.33333333 1252 1104 1236.33333333 1104 1221 c 1
 1086 1197 l 1
 1126 1174 l 1
 1066 735 l 1
 1045 758 l 1
 1025 758 l 1
 1005 781 l 1
 981.666666667 781 952.166666667 788.666666667 916.5 804 c 128
 880.833333333 819.333333333 854.666666667 827 838 827 c 1
 838 765.666666667 831.333333333 727.333333333 818 712 c 1
 838 688 l 1
 838 526 l 1
 818 503 l 1
 818 431 l 1
 838 409 l 1
 799 294 l 1
 818 271 l 1
 818 250 l 1
 799 226 l 1
 818 201 l 1
 818 -53 l 2
 818 -78.0625535451 798.090632051 -162.006094883 797 -186 c 1
 783 -186 775.333333333 -189 774 -195 c 1
 774 -164.333333333 775.666666667 -140.666666667 779 -124 c 1
 739 -99 l 1
 718 -124 l 1
 718 -192 l 1
 677 -192 l 1
 677 -145 l 1
 661.666666667 -165 640.666666667 -175 614 -175 c 0
 607.652507398 -175 562.690117836 -168 558 -168 c 1
 556.666666667 -173.333333333 556 -181.333333333 556 -192 c 1
 556 -190.877889348 578 -187.121030709 578 -186 c 1
 578 -213.414339614 543.744913162 -233 517 -233 c 1
EndSplineSet
EndChar

StartChar: U
Encoding: 85 85 58
Width: 1306
GlyphClass: 2
Flags: HW
LayerCount: 2
Fore
SplineSet
488 -38 m 1
 487.198531694 -41.2058732236 470.711231802 -75.4438409899 470 -79 c 1
 448 -79 l 1
 434.666666667 -64.3333333333 427.666666667 -56.3333333333 427 -55 c 1
 428.333333333 -61.6666666667 429 -72 429 -86 c 1
 419.666666667 -82.6666666667 415 -66 415 -36 c 1
 415.666666667 -38.6666666667 419.666666667 -45 427 -55 c 1
 416.692431122 6.84541326612 376.150735884 77 308 77 c 1
 330 100 l 1
 296.072136212 136.642092891 286.22791664 247.99527797 277.5 312 c 128
 272.5 348.666666667 263 370.333333333 249 377 c 1
 249 493 l 1
 228 515 l 1
 228 539 l 1
 249 562 l 1
 249 586 l 1
 228 586 l 1
 228 610 l 1
 249 632 l 1
 249 655.62601704 190.675588401 1101.8654564 188 1120 c 1
 167 1120 l 1
 188 1142 l 1
 172.666666667 1158 165 1199 165 1265 c 0
 165 1296.33333333 165.666666667 1317 167 1327 c 1
 138.306807847 1359.06886182 124.673566908 1413.55243402 85 1431.5 c 128
 71 1437.83333333 52 1441 28 1441 c 1
 28 1466 l 1
 90.4549418334 1466 308.53680973 1512 369 1512 c 2
 598 1512 l 1
 569 1466 l 1
 575 1329 l 2
 577.666666667 1275.66666667 569 1236.33333333 549 1211 c 1
 553.756128759 1204.88497731 587 1106.62957774 587 1094 c 2
 587 888 l 2
 587 846.475189885 549 717.818389844 549 676 c 0
 549 642.360273112 571 532.541795959 571 497 c 0
 571 491.828410104 569 474.944459431 569 470 c 1
 582.333333333 454 589 430.333333333 589 399 c 0
 589 387.208956136 587 348.961600733 587 337 c 0
 587 315.979073241 603.459378195 279.162487219 608 261 c 1
 660 261 l 1
 698 309 l 1
 698 332 l 2
 698 377.333333333 704 408 716 424 c 1
 698 424 l 1
 710 441.333333333 716 467.666666667 716 503 c 2
 716 562 l 1
 734 586 l 1
 716 610 l 1
 716 632 l 1
 734 656 l 1
 716 676 l 1
 716 702 l 1
 734 702 l 1
 734 793.869095851 752 1096.40114364 752 1188 c 1
 739 1211 l 1
 752 1211 l 1
 752 1257 l 1
 734 1282 l 1
 752 1304 l 1
 752 1335.77660307 769 1433.72487159 769 1466 c 1
 734 1512 l 1
 764 1492 804.666666667 1482 856 1482 c 0
 864.52165061 1482 892.67692356 1484 901 1484 c 0
 939 1484 973.333333333 1478 1004 1466 c 1
 1000.66666667 1468.66666667 999 1472 999 1476 c 0
 999 1484 1006.66666667 1488 1022 1488 c 1
 1022 1466 l 1
 1064.99153886 1466 1179.82579494 1438.95678456 1202 1419 c 1
 1283 1419 l 1
 1181 1350 l 1
 1140 1257 l 1
 1161 1234 l 1
 1140 1234 l 1
 1140 1211 l 1
 1117.10059741 1074.87577346 1064.0117679 922.524083029 1041.5 789.5 c 128
 1030.5 724.5 1025 637.666666667 1025 529 c 0
 1025 504.333333333 1018 484.666666667 1004 470 c 1
 1004 447 l 1
 1022 424 l 1
 1004 424 l 1
 1004 394 l 2
 1004 367.333333333 998 346 986 330 c 1
 1004 309 l 1
 986 309 l 1
 986 296 l 2
 986 274 980 246.666666667 968 214 c 1
 986 192 l 1
 968 192 l 1
 950 168 l 1
 968 146 l 1
 950 146 l 1
 913 77 l 1
 923 53 l 1
 806 53 l 1
 812 -51 l 2
 814.420876675 -84.8922734456 781.791261857 -117.61529175 769 -140 c 1
 757.666666667 -117.333333333 752 -102 752 -94 c 0
 752 -69.2422331808 787 6.67136580038 787 31 c 1
 734 53 l 1
 679 6 l 1
 680 -35 l 2
 680 -53.6666666667 673.333333333 -70.6666666667 660 -86 c 1
 660 53 l 1
 626 100 l 1
 587 100 l 2
 573 100 566 89.6666666667 566 69 c 0
 566 63.4755351249 569 37.7998736327 569 33 c 0
 569 15 562.333333333 6 549 6 c 1
 549 -18 l 1
 508 6 l 1
 488 53 l 1
 488 6 l 1
 470 -18 l 1
 488 -38 l 1
EndSplineSet
EndChar

StartChar: V
Encoding: 86 86 59
Width: 1168
GlyphClass: 2
Flags: HW
LayerCount: 2
Fore
SplineSet
551 574 m 1
 558.289141015 588.57828203 696 1420.74802961 696 1431 c 1
 716 1470 l 1
 713 1500 l 1
 696 1500 l 1
 696 1525 l 1
 730 1500 l 1
 751 1525 l 1
 769 1507 858.666666667 1498 1020 1498 c 2
 1107 1498 l 2
 1126.92077181 1498 1181.09326745 1495 1201 1495 c 1
 1172.33333333 1491.66666667 1142.66666667 1469.66666667 1112 1429 c 128
 1050.28796997 1347.16448191 1002.18544157 1217.31995609 969 1105 c 128
 951.666666667 1046.33333333 938.666666667 993 930 945 c 1
 930 944 l 1
 908.666666667 893.333333333 888.5 802.5 869.5 671.5 c 128
 850.5 540.5 826.333333333 446.333333333 797 389 c 1
 799 349 l 1
 799 327 792.666666667 309.333333333 780 296 c 1
 780 223.071800419 738.892515087 84.0046622548 707 43 c 1
 707 19 l 1
 726 19 l 1
 703.020080673 0.857958426091 696.742115507 -41.5900063679 697.5 -81 c 128
 698.470962124 -131.490030443 652.17184176 -162.511884307 604 -176 c 1
 588 -130 l 1
 598.498965157 -116.501330512 611.872777927 -86.2296968071 624 -73 c 1
 591.645360731 -73 569.580381916 -84.3324220641 566 -108.5 c 128
 562.276022956 -133.636845049 532.608251296 -144 498 -144 c 1
 484 -122 l 1
 460 -122 l 1
 435 -111 l 1
 444 -81 l 1
 421 -107 l 1
 421 -109 l 1
 407 -130 l 1
 387 -121.333333333 377 -102.333333333 377 -73 c 0
 377 -53.6527390774 340 26.790590251 340 43 c 0
 340 129 327.666666667 206 303 274 c 1
 321 296 l 1
 254.505919348 296 282.725172624 474.007700379 268 528 c 1
 228.138807556 662.703339984 225.136842627 856.136826102 219.5 1029 c 128
 216.5 1121 207.666666667 1198.33333333 193 1261 c 1
 173 1238 l 1
 173 1330 l 1
 131.465304339 1389.33527952 55.5216052992 1470 -32 1470 c 1
 46.1376059032 1479.0158776 286.690593895 1500.22715919 377 1509.5 c 128
 451.666666667 1517.16666667 492 1522.33333333 498 1525 c 1
 528 1482 l 1
 498 1500 l 1
 484.666666667 1484 478 1457.66666667 478 1421 c 2
 478 1385 l 1
 498 1395 l 1
 498 1380 l 1
 485 1362 l 1
 490.333333333 1324 500.333333333 1300.33333333 515 1291 c 1
 498 1269 l 1
 498 1222 l 2
 498 1154.93998929 529.31716492 893.925361279 533 835 c 1
 515 854 l 1
 515 775.135420325 533 515.79060356 533 437 c 1
 569 551 l 1
 551 574 l 1
EndSplineSet
EndChar

StartChar: W
Encoding: 87 87 60
Width: 1593
GlyphClass: 2
Flags: HW
LayerCount: 2
Fore
SplineSet
990 1058 m 1
 1010.47881718 1116.02331534 1028.30321637 1200.59282001 1063 1243 c 1
 1045 1267 l 1
 1045 1291 l 1
 1083 1335.66666667 1102 1385.66666667 1102 1441 c 0
 1102 1449.66666667 1100.66666667 1468.66666667 1098 1498 c 1
 1079 1522 l 1
 1098 1505 l 1
 1098 1522 l 1
 1116 1546 l 1
 1135 1522 l 1
 1135 1498 l 1
 1137.66666667 1497.33333333 1143 1497 1151 1497 c 0
 1175.66666667 1497 1200 1505.33333333 1224 1522 c 1
 1224 1498 l 1
 1354.17759359 1498 1508.17810662 1416.1683527 1611 1383 c 1
 1550 1358 l 1
 1550 1354 l 1
 1532 1358 l 1
 1476.69005217 1344.17251304 1454.68398724 1321.22779373 1423 1282 c 128
 1409 1264.66666667 1398 1251.66666667 1390 1243 c 1
 1390 1221 l 1
 1372 1197 l 1
 1386 1197 l 1
 1356.66666667 1185.66666667 1328.33333333 1151.66666667 1301 1095 c 128
 1273.66666667 1038.33333333 1246.16666667 966.5 1218.5 879.5 c 128
 1190.83333333 792.5 1175 744.333333333 1171 735 c 1
 1211 712 l 1
 1203 712 l 1
 1183.46064155 644.500398075 1128 433.907013169 1128 355 c 0
 1128 347.666666667 1128.66666667 342.666666667 1130 340 c 1
 1109 340 l 1
 1130 317 l 1
 1109 294 l 1
 1091 294 l 1
 1067.14460326 208.120571746 1032 122.18917226 1032 16 c 0
 1032 8.14522543463 1010 -18.1527850377 1010 -26 c 1
 997 -16 l 1
 1002.33333333 -10.6666666667 1006.66666667 -7.66666666667 1010 -7 c 1
 1000 -7 991 -4.66666666667 983 0 c 1
 970 16 l 1
 977 0 l 1
 947.830101334 12.9643994072 911.839639701 38 870 38 c 1
 872.666666667 35.3333333333 874 33 874 31 c 0
 874 23.1563139954 864.869279891 13 857 13 c 0
 854.333333333 13 852 14 850 16 c 1
 850 3 l 1
 831 -8 l 1
 831 0.401142341248 830 29.7662426185 830 38 c 1
 843.333333333 55.3333333333 850 82 850 118 c 0
 850 180.172205892 812 408.911834274 812 472 c 0
 812 477.668397774 793.718691023 544.406544887 793 548 c 1
 793 480.038301588 755 268.637827847 755 201 c 1
 738 201 l 1
 738 195.378758208 736 183.335415273 736 178 c 0
 736 142.813367068 756.873338001 -0.326802037106 758 -33 c 1
 755 -16 l 1
 738 -38 l 1
 728.666666667 -38 722.666666667 -32 720 -20 c 0
 720 -17.8834598568 718 -5.71231086494 718 -4 c 2
 718 0 l 1
 712.666666667 18.6666666667 707 31.3333333333 701 38 c 1
 683 38 l 1
 682.333333333 32.6666666667 682 24.3333333333 682 13 c 1
 679.624718105 17.75056379 665 30.5722050087 665 38 c 1
 628 85 l 1
 622.666666667 72.3333333333 617.333333333 49.3333333333 612 16 c 1
 600.666666667 31.3333333333 579.666666667 92 549 198 c 128
 518.333333333 304 503 367 503 387 c 1
 484 387 l 1
 503 409 l 1
 474.347839983 477.765184041 455.810996547 607.053396835 433.5 686 c 128
 420.5 732 401.333333333 771 376 803 c 1
 358 803 l 1
 376 827 l 1
 342 874 l 1
 322 874 l 1
 322 912.587957111 304 1042.21439099 304 1081 c 1
 286 1104 l 1
 290 1108 292 1111.66666667 292 1115 c 0
 292 1122.89438866 264 1132.10615131 264 1140 c 0
 264 1144.66666667 265.666666667 1148.66666667 269 1152 c 1
 236 1152 l 1
 250 1174 l 1
 232 1197 l 1
 211 1197 l 1
 232 1221 l 1
 206.439811524 1250.04566872 98.2100334638 1307.51083319 72 1336 c 1
 49 1336 l 2
 22.3333333333 1336 3.66666666667 1343.33333333 -7 1358 c 1
 -2.33333333333 1358.66666667 31.1666666667 1368.5 93.5 1387.5 c 128
 155.833333333 1406.5 215.5 1423.66666667 272.5 1439 c 128
 329.5 1454.33333333 358 1459.33333333 358 1454 c 1
 358 1487.27060382 409.299377624 1475.21525695 437.5 1481 c 128
 450.5 1483.66666667 460.666666667 1489.33333333 468 1498 c 1
 503 1452 l 1
 520 1474 l 1
 539 1474 l 1
 520 1498 l 1
 539 1498 l 1
 557 1474 l 1
 557 1464 l 2
 557 1425.33333333 562.666666667 1398.33333333 574 1383 c 1
 557 1387 l 1
 557 1313 l 1
 574 1313 l 1
 574 1297.27437992 573 1260.15655031 573 1247 c 0
 573 1225 579.666666667 1193.33333333 593 1152 c 1
 592 1132 l 1
 592 1084 604 1021.33333333 628 944 c 1
 628 1030 646.333333333 1153 683 1313 c 1
 665 1313 l 1
 681 1321 699.333333333 1374.66666667 720 1474 c 1
 710 1482 l 1
 720 1498 l 1
 720 1488 l 1
 738 1522 l 1
 720 1522 l 1
 738 1546 l 1
 912 1546 l 1
 899 1498 l 1
 912.333333333 1482 919 1455.33333333 919 1418 c 2
 919 1383 l 1
 925 1375.66666667 932.666666667 1349.66666667 942 1305 c 128
 953.930542821 1247.90383079 977.099675078 1107.0212347 990 1058 c 1
EndSplineSet
EndChar

StartChar: X
Encoding: 88 88 61
Width: 1203
GlyphClass: 2
Flags: HW
LayerCount: 2
Fore
SplineSet
874 -76 m 1
 857.515154594 -56.218185513 835.476290468 -53 801 -53 c 1
 782 -28 l 1
 728 -28 l 1
 711 -53 l 1
 655 -53 l 1
 655 66.3333333333 637 174.666666667 601 272 c 1
 601 182 l 1
 577 182 565 130 565 26 c 0
 565 -34.6035821786 564.766159001 -29.2892432888 584 -76 c 1
 548 -28 l 1
 530 -28 l 1
 530 -58 l 1
 495 -53 l 1
 475 -76 l 1
 459 -76 l 1
 440 -53 l 1
 404 -99 l 1
 386 -99 l 1
 386 -124 l 1
 369 -124 l 1
 369 -76 l 1
 349 -99 l 1
 331 -76 l 1
 331 -28 l 1
 369 41 l 1
 371 67.6666666667 380 96.6666666667 396 128 c 1
 386 132 l 1
 386 156 l 1
 413.680166296 192.487491935 419.063774159 264.709670375 422.5 324.5 c 128
 424.166666667 353.5 430 374.333333333 440 387 c 1
 422 387 l 1
 440 409 l 1
 440 456 l 1
 475 526 l 1
 475 543.333333333 469.333333333 559.5 458 574.5 c 128
 446.666666667 589.5 440.666666667 601.333333333 440 610 c 1
 436 608 l 1
 422 620 l 1
 440 620 l 1
 418 723.333333333 406 781 404 793 c 1
 422 758 l 1
 422 803 l 2
 422 834.101107896 404 936.187223691 404 967 c 1
 394.666666667 982.333333333 380 1015.5 360 1066.5 c 128
 340 1117.5 318.666666667 1153.33333333 296 1174 c 1
 293.444816173 1248.10033099 231.233445946 1295.6410437 187.5 1331 c 128
 165.076284816 1349.12981228 103.240349638 1391.66126951 82 1408 c 1
 61 1408 l 2
 22.3333333333 1408 -3.66666666667 1415 -17 1429 c 1
 42.9028425326 1429 237.638111112 1476 296 1476 c 1
 296 1498 l 1
 386 1495 l 1
 428.666666667 1491.66666667 458.333333333 1500.66666667 475 1522 c 1
 475 1498 l 1
 462 1498 l 1
 511 1476 l 1
 530 1498 l 1
 530 1476 l 1
 601 1408 l 1
 566 1408 l 1
 566 1360 l 1
 578 1345.33333333 584 1324.66666667 584 1298 c 2
 584 1267 l 1
 604 1232.33333333 617 1203.33333333 623 1180 c 1
 634.401014847 1202.80202969 711 1412.01457938 711 1449 c 2
 711 1452 l 1
 692 1452 l 1
 692 1476 l 1
 674 1476 l 1
 674 1498 l 1
 692 1510 l 1
 692 1498 l 1
 742.666666667 1498 837.5 1484.5 976.5 1457.5 c 128
 1115.5 1430.5 1197 1405.66666667 1221 1383 c 1
 1236 1383 l 1
 1053.33333333 1331 938.333333333 1246.66666667 891 1130 c 1
 910 1130 l 1
 910 1104 l 1
 891 1130 l 1
 851.605950848 1038.9861623 838.809570058 890.785978769 819 777.5 c 128
 808.333333333 716.5 790.666666667 664 766 620 c 1
 782 596 l 1
 782 549 l 1
 766 549 l 1
 766 526 l 1
 769.333333333 529.333333333 772 531 774 531 c 0
 779.333333333 531 782 525.666666667 782 515 c 0
 782 503.666666667 779.333333333 498 774 498 c 0
 772 498 769.333333333 500.333333333 766 505 c 1
 766 460.368883804 801 303.610566976 801 261 c 2
 801 250 l 1
 829 213.333333333 851.666666667 148 869 54 c 128
 886.333333333 -40 900 -99.3333333333 910 -124 c 1
 891 -124 l 1
 874 -99 l 1
 874 -76 l 1
EndSplineSet
EndChar

StartChar: Y
Encoding: 89 89 62
Width: 1411
GlyphClass: 2
Flags: HW
LayerCount: 2
Fore
SplineSet
662 1350 m 128
 669.040490444 1350 676 1339.22153429 676 1332 c 0
 676 1328.66666667 675 1326 673 1324 c 1
 764 1140 l 1
 871 1371 l 1
 853 1393 l 1
 853 1418 l 1
 871 1418 l 1
 871 1441.67824709 890 1509.01310562 890 1533 c 1
 900 1516.33333333 916.333333333 1508 939 1508 c 2
 961 1508 l 1
 990.540148278 1471.07481465 1045.27322482 1466.36360363 1104 1462.5 c 128
 1129.33333333 1460.83333333 1148 1453.66666667 1160 1441 c 1
 1256 1441 l 1
 1256 1394.34030317 1406.6645496 1377.33354504 1450 1373 c 1
 1446 1346 l 1
 1346.22150416 1346 1259.95798156 1286.43697234 1217 1222 c 1
 1221 1219 l 1
 1221 1208.33997709 1177 1186 1177 1186 c 1
 1161.26723501 1157.15659752 1102.30500687 1089.04741942 1079 1059.5 c 128
 1060.33333333 1035.83333333 1051 1023.66666667 1051 1023 c 0
 1036.33333333 973 1020.83333333 858.166666667 1004.5 678.5 c 128
 988.166666667 498.833333333 980 374 980 304 c 0
 980 242.764856733 973.717657613 -53 931 -53 c 0
 930.333333333 -53 928.333333333 -51.3333333333 925 -48 c 1
 926 -46 l 1
 926 -30.6666666667 919.666666667 -21.3333333333 907 -18 c 1
 883.879629204 -44.9737659282 823.447459755 -62.3640300136 776 -65 c 1
 764 -94 l 1
 745 -70 l 1
 732.554371154 21.7865127359 716.756497478 277.520251107 707 378.5 c 128
 693.840581375 514.699982773 645.730962853 704.431271262 583 791 c 1
 583 835 566.333333333 889 533 953 c 128
 499.666666667 1017 480 1063.33333333 474 1092 c 1
 493 1092 l 1
 471 1095.33333333 448.166666667 1110.33333333 424.5 1137 c 128
 400.833333333 1163.66666667 381.333333333 1180 366 1186 c 1
 366 1231 l 1
 364.666666667 1227.66666667 362.333333333 1226 359 1226 c 128
 351.52536155 1226 345 1239.18993594 345 1247 c 0
 345 1249.66666667 346.333333333 1252.33333333 349 1255 c 1
 340.333333333 1260.33333333 307.666666667 1281.83333333 251 1319.5 c 128
 194.333333333 1357.16666667 144.833333333 1386.83333333 102.5 1408.5 c 128
 60.1666666667 1430.16666667 25.3333333333 1441 -2 1441 c 1
 -2 1462 l 1
 18 1441 l 1
 92.1423255041 1462.18352157 167.005228149 1486 259 1486 c 1
 259 1508 l 1
 278.432624042 1508 331.309420714 1487.17937195 349 1486 c 1
 366 1508 l 1
 583 1508 l 1
 583 1486 l 1
 590.565000094 1477.48937489 637 1390.81500164 637 1373 c 2
 637 1371 l 1
 655 1346 l 1
 656.333333333 1348.66666667 658.666666667 1350 662 1350 c 128
EndSplineSet
EndChar

StartChar: Z
Encoding: 90 90 63
Width: 1424
GlyphClass: 2
Flags: HW
LayerCount: 2
Fore
SplineSet
547 842 m 2
 519.118983928 842 445.383525099 795 418 795 c 1
 290 702 l 1
 311 726 l 1
 290 726 l 1
 271 748 l 1
 271 888.559600458 244.459365559 1033.58390311 203.5 1127 c 128
 169.966844542 1203.47912648 130.385820121 1269.93345928 97 1337.5 c 128
 83 1365.83333333 75.3333333333 1390.33333333 74 1411 c 1
 100 1441 l 1
 133.333333333 1445 188.166666667 1457.83333333 264.5 1479.5 c 128
 340.833333333 1501.16666667 399 1512 439 1512 c 2
 599 1512 l 1
 595.666666667 1508.66666667 594 1504.66666667 594 1500 c 0
 594 1493.33333333 598.666666667 1490 608 1490 c 128
 617.333333333 1490 622 1493.33333333 622 1500 c 0
 622 1504.66666667 620.666666667 1508.66666667 618 1512 c 1
 817 1512 l 2
 854.664205398 1512 978.109948087 1490 1016 1490 c 1
 1016 1466 l 1
 1037.33333333 1468.66666667 1053.33333333 1470 1064 1470 c 0
 1100 1470 1157 1457.83333333 1235 1433.5 c 128
 1313 1409.16666667 1374 1397 1418 1397 c 1
 1403.91044703 1378.88486047 1356.14615553 1340.90222863 1339 1321.5 c 128
 1326.33333333 1307.16666667 1319.66666667 1294 1319 1282 c 1
 1296.33333333 1242.66666667 1258.83333333 1165.33333333 1206.5 1050 c 128
 1154.16666667 934.666666667 1109.33333333 851 1072 799 c 1
 1072.66666667 800.333333333 1073 802.333333333 1073 805 c 0
 1073 813 1065.66666667 817 1051 817 c 1
 1051 795 l 1
 1033 770 l 1
 1030.33333333 768.666666667 1026.33333333 768 1021 768 c 0
 1017.49251793 768 1000.69912965 770 997 770 c 1
 997 748 l 1
 968.416842593 748 946.93995457 712.173644944 938 691.5 c 128
 932.666666667 679.166666667 929 673 927 673 c 1
 927 675 926.333333333 677 925 679 c 1
 889 656 l 1
 889 632 l 1
 817 539 l 1
 817 515 l 1
 798 493 l 1
 796.666666667 495.666666667 794.333333333 497 791 497 c 128
 783.471413567 497 777 485.944065887 777 478 c 0
 777 475.333333333 778.333333333 472.666666667 781 470 c 1
 763 449 l 1
 766.333333333 444.333333333 768 440.333333333 768 437 c 0
 768 427.915623884 738 419.236164519 738 411 c 0
 738 408.333333333 740 404.333333333 744 399 c 1
 727 377 l 1
 709 377 l 1
 727 355 l 1
 691 332 l 1
 691 309 l 1
 673 284 l 1
 729.5 284 l 130
 822.097395881 284 927.310483208 279.351613433 979 238 c 1
 983 217 l 1
 979 168 l 1
 943 146 l 1
 925 100 l 1
 943 77 l 1
 853 -58 l 1
 835 -58 l 1
 817 -36 l 1
 817 -41.3574832792 835 -58.2645126882 835 -63 c 1
 778.114125719 -44.0380419064 725.283486241 -7 651 -7 c 0
 641.666666667 -7 624.333333333 -10 599 -16 c 1
 599 -36 l 1
 586 -36 l 1
 586 12.3580443024 561.525771738 31 510 31 c 1
 474 6 l 1
 474 -16 l 1
 461.333333333 -18.6666666667 455 -24.3333333333 455 -33 c 1
 457 -46 l 1
 439 -36 l 1
 439 -24 l 1
 402.333333333 -18 384 -8 384 6 c 1
 366 6 l 1
 351.333333333 26.6666666667 344 60.6666666667 344 108 c 0
 344 162.838719096 398.70983675 242.204646291 418 284 c 1
 439 284 l 1
 439 315.333333333 445 339 457 355 c 1
 457 373 l 2
 457 390.379864568 457.426702834 399 472 399 c 2
 491 399 l 1
 491 449 l 1
 474 449 l 1
 510 493 l 1
 510 539 l 1
 528 539 l 1
 528 602.27155946 545.23575622 666.285970005 573 696.5 c 128
 589.191575278 714.120243685 618 741.680618127 618 770 c 1
 636.666666667 785.333333333 648.666666667 809.333333333 654 842 c 1
 547 842 l 2
EndSplineSet
EndChar

StartChar: bracketleft
Encoding: 91 91 64
Width: 841
GlyphClass: 2
Flags: HW
LayerCount: 2
Fore
SplineSet
210 1745 m 1
 221.45608212 1748.81869404 244.473833265 1762 258 1762 c 0
 438 1752.66666667 568.333333333 1748 649 1748 c 0
 662.727479451 1748 712.12503358 1750 726 1750 c 1
 705 1727 l 1
 728 1704 l 1
 768 1704 l 1
 768 1419 l 1
 788 1419 l 1
 776.666666667 1408.33333333 767.666666667 1395 761 1379 c 1
 768 1332 l 1
 672 1349 l 1
 667 1360 l 1
 655.666666667 1353.33333333 588.666666667 1345.33333333 466 1336 c 1
 450 1352 l 1
 437 1313 l 1
 453 1291 l 1
 446 1267 l 1
 455 1267 l 1
 426 1229 l 1
 430.666666667 1223.66666667 439 1221 451 1221 c 2
 458 1221 l 1
 439 1199 l 1
 447 821 450.333333333 502.333333333 449 243 c 1
 457.666666667 227 473.333333333 219 496 219 c 0
 519.624163178 219 594.908761157 230 619 230 c 0
 643.666666667 230 665.333333333 224.666666667 684 214 c 1
 689 228 l 1
 829 228 l 1
 807 178 l 1
 785 178 l 1
 805 156 l 1
 785 156 l 1
 780.281006999 124.146797244 730.613554129 40.2948789032 726 8 c 1
 686 8 l 1
 663 -16 l 1
 682 -38 l 1
 642 -38 l 1
 624 8 l 1
 605 8 l 1
 605 -70 l 1
 586 -70 l 1
 588 -48 l 1
 571 -24 l 1
 551 -24 l 1
 549 -48 l 1
 531 -48 l 2
 519 -48 513 -36 513 -12 c 0
 513 -0.666666666667 514.333333333 11 517 23 c 1
 500 46 l 1
 461 46 l 1
 440 23 l 1
 440 -24 l 1
 381 -24 l 1
 383 -2 l 1
 324 -2 l 1
 322.606606171 -18.7207259537 300.420838759 -26 282 -26 c 0
 278.794017101 -26 271.872238106 -24 269 -24 c 1
 273 -33 l 1
 256 -33 l 1
 256 -48.3333333333 246.666666667 -56 228 -56 c 1
 216 -55 l 1
 198 -33 l 1
 131 394 l 1
 151 416 l 1
 133 416 l 1
 114 440 l 1
 136 485 l 1
 116 485 l 1
 118.666666667 509 120 527.666666667 120 541 c 0
 120 570.012966833 110.961305144 679.877849174 112 710 c 2
 114 762 l 1
 153 762 l 1
 153 778 140 786 114 786 c 1
 130 808.666666667 138 829.666666667 138 849 c 2
 138 855 l 1
 120 855 l 1
 130 990.333333333 135 1083.66666667 135 1135 c 0
 135 1175 133 1211 129 1243 c 1
 131.666666667 1246.33333333 134.666666667 1256.16666667 138 1272.5 c 128
 141.333333333 1288.83333333 150.666666667 1302.33333333 166 1313 c 1
 144 1334 l 1
 144 1745 l 1
 170 1766 l 1
 194 1768 l 2
 204.666666667 1768 210 1760.33333333 210 1745 c 1
EndSplineSet
EndChar

StartChar: backslash
Encoding: 92 92 65
Width: 600
GlyphClass: 2
Flags: HW
LayerCount: 2
Fore
SplineSet
523 -120 m 0
 523 -124.745578641 534 -164.849582791 534 -168 c 0
 534 -174.666666667 527 -178 513 -178 c 1
 500 -205 l 1
 498 -197.666666667 490.5 -176.833333333 477.5 -142.5 c 128
 464.5 -108.166666667 458 -80.6666666667 458 -60 c 2
 458 -46 l 1
 450.666666667 -31.3333333333 447 -20 447 -12 c 0
 447 -4.66666666667 449 2 453 8 c 1
 418.613980958 62.2241069513 381.052616186 219.913936235 362.5 293 c 128
 351.5 336.333333333 341 358 331 358 c 1
 329.649509197 362.051472408 321 459 321 459 c 1
 319 459 318 453.333333333 318 442 c 2
 318 440 l 1
 293.118543707 481.846085584 279 500.957699918 279 556 c 0
 279 570.666666667 279.666666667 582.666666667 281 592 c 1
 268 618 l 1
 272 602 l 1
 152.666666667 975.333333333 90 1181 84 1219 c 1
 113 1226 l 1
 81.6027198012 1295.07401644 41 1354.49176796 41 1454 c 0
 41 1502.93152283 14.3837658981 1547.06087788 4 1586 c 1
 50 1594 l 1
 69 1584 l 1
 80 1594 l 1
 105.333333333 1584.66666667 120.666666667 1580 126 1580 c 2
 141 1582 l 1
 106 1596 l 1
 120 1614 l 1
 173 1555 l 1
 197.666666667 1457.66666667 227.666666667 1372.66666667 263 1300 c 1
 259 1164 l 1
 284 1140 l 1
 284 1055.8991427 334.895104558 923.011834605 381 884 c 1
 497 406 l 1
 484.333333333 404 478 393.666666667 478 375 c 0
 478 340.333333333 489.666666667 292.5 513 231.5 c 128
 536.333333333 170.5 559.833333333 106.833333333 583.5 40.5 c 128
 607.166666667 -25.8333333333 619.333333333 -82.6666666667 620 -130 c 1
 597 -158 l 1
 588 -155 l 1
 578 -130 l 1
 575.333333333 -130 574 -131.333333333 574 -134 c 0
 574 -138.214436195 588.710433745 -162.131301235 590 -166 c 1
 587.170294639 -164.302176783 532.021276608 -113 526 -113 c 0
 524 -113 523 -115.333333333 523 -120 c 0
318 440 m 2
 318.666666667 439.333333333 319 438.333333333 319 437 c 2
 318 440 l 2
EndSplineSet
EndChar

StartChar: bracketright
Encoding: 93 93 66
Width: 834
GlyphClass: 2
Flags: HW
LayerCount: 2
Fore
SplineSet
104 1750 m 1
 159.549301268 1750 371.284954718 1764 428 1764 c 0
 501.333333333 1764 564.666666667 1757.66666667 618 1745 c 1
 643 1768 l 1
 678 1745 l 1
 678 1334 l 1
 664 1313 l 1
 686.205890646 1296.63776479 692 1295.17419318 692 1263 c 0
 692 1103.66666667 698 967.666666667 710 855 c 1
 690 855 l 1
 690 849 l 2
 690 826.333333333 698.333333333 805.333333333 715 786 c 1
 676 762 l 1
 716 762 l 1
 718 712 l 2
 719.105225398 670.001434868 710.870780344 526.781127287 712 485 c 1
 692 485 l 1
 716 440 l 1
 697 416 l 1
 678 416 l 1
 697 394 l 1
 705 -33 l 1
 703.798753167 -33.400415611 655.799362296 -58 653 -58 c 0
 617.666666667 -58 590.666666667 -49.6666666667 572 -33 c 1
 557 -33 l 1
 562 -24 l 1
 533.333333333 -8 501.666666667 0 467 0 c 0
 461.978677596 0 449.502016011 -2 445 -2 c 1
 447 -24 l 1
 202 -24 l 1
 202 -28 l 1
 190 -28 l 1
 170 -7 l 1
 166 -7 l 1
 166 8 l 1
 144 8 l 1
 145.333333333 5.33333333333 146 3.33333333333 146 2 c 0
 146 -2.45604513224 140.745841087 -8 136 -8 c 128
 133.333333333 -8 131.333333333 -7.66666666667 130 -7 c 1
 122.666666667 -17 109.333333333 -26.3333333333 90 -35 c 1
 108 -16 l 1
 86 8 l 1
 46 8 l 1
 46 156 l 1
 24 156 l 1
 44 178 l 1
 22 178 l 1
 30 228 l 1
 140 228 l 1
 144 214 l 1
 161.333333333 224.666666667 186 230 218 230 c 0
 241.585634713 230 322.865414935 221 346 221 c 0
 362 221 378 223.333333333 394 228 c 1
 402 243 l 1
 407.333333333 392.333333333 410 587 410 827 c 0
 410 943.029769964 396.321761368 1087.24301128 391 1199 c 1
 375 1221 l 1
 392 1221 l 1
 402 1229 l 1
 376 1267 l 1
 385 1267 l 1
 379 1288 l 1
 394 1313 l 1
 383 1352 l 1
 364 1336 l 1
 332.83175806 1340.45260599 245.891589806 1346.56760113 210.5 1350.5 c 128
 183.5 1353.5 167.333333333 1356.66666667 162 1360 c 1
 158 1349 l 1
 62 1349 l 1
 68 1397 l 1
 60 1397 l 1
 42 1419 l 1
 62 1419 l 1
 62 1704 l 1
 100 1704 l 1
 122 1727 l 1
 104 1750 l 1
EndSplineSet
EndChar

StartChar: asciicircum
Encoding: 94 94 67
Width: 1072
GlyphClass: 2
Flags: HW
LayerCount: 2
Fore
SplineSet
347 2176 m 1
 359.133917052 2176 429.156895726 2168 443 2168 c 0
 447 2168 455 2169 467 2171 c 1
 480 2159 l 2
 480.666666667 2159 517 2161 589 2165 c 1
 589 2168 l 1
 639.666666667 2176.66666667 675.666666667 2181 697 2181 c 1
 714 2180 l 1
 708 2176 l 1
 1000 1606 l 1
 845 1456 l 1
 840 1460 l 1
 823 1445 l 1
 703.614150009 1549.46261874 628.492811677 1747.87213166 526 1869 c 1
 466.666666667 1782.33333333 417 1691.33333333 377 1596 c 1
 374 1597 l 1
 347 1565 l 1
 350 1561 l 1
 247 1445 l 1
 231 1460 l 1
 225 1456 l 1
 221 1459 221 1459 183 1487.5 c 128
 157.666666667 1506.5 134.5 1523.16666667 113.5 1537.5 c 128
 92.5 1551.83333333 79.3333333333 1559 74 1559 c 1
 347 2176 l 1
470 2174 m 1
 469.096057453 2174 467.873088968 2171.87308897 467 2171 c 1
 466 2175 l 2
 466.666666667 2174.33333333 468 2174 470 2174 c 1
466 2175 m 2
 466 2176 l 1
 466 2175 l 2
EndSplineSet
EndChar

StartChar: underscore
Encoding: 95 95 68
Width: 927
GlyphClass: 2
Flags: HW
LayerCount: 2
Fore
SplineSet
420 -48 m 0
 368.109526235 -48 179.895090314 -43 127 -43 c 1
 98 -41 l 1
 98 261 l 1
 375 261 l 1
 375 249 381.333333333 243 394 243 c 128
 417.200990419 243 501.659797295 255 526 255 c 0
 590 255 642.333333333 250 683 240 c 1
 688 255 l 1
 822 266 l 1
 813 144 l 1
 815 148 l 1
 813.666666667 138 813 123 813 103 c 0
 813 85.6532475775 815 32.979053072 815 16 c 0
 815 -7.33333333333 812.666666667 -28.6666666667 808 -48 c 1
 706 -53 l 1
 708 -51 l 1
 708 -47 698 -45 678 -45 c 1
 704 -28 l 1
 677.333333333 -33.3333333333 638.666666667 -36 588 -36 c 0
 582.605841219 -36 563.764039844 -35 557 -35 c 0
 533.666666667 -35 522 -38.6666666667 522 -46 c 0
 522 -49.3333333333 522.666666667 -51.6666666667 524 -53 c 1
 501 -55 l 1
 499 -51 l 1
 501 -60 l 1
 475 -60 l 1
 493 -46 l 1
 485.51249032 -46 456.317043374 -53.6707391564 451 -55 c 1
 448 -43 l 1
 434.666666667 -46.3333333333 425.333333333 -48 420 -48 c 0
EndSplineSet
EndChar

StartChar: grave
Encoding: 96 96 69
Width: 910
GlyphClass: 2
Flags: HW
LayerCount: 2
Fore
SplineSet
560 1622 m 1
 557.366746593 1616.73349319 549.684755893 1618.57881103 544 1620 c 1
 541 1620 l 1
 103 1748 l 1
 118.333333333 1776.66666667 127.666666667 1798.33333333 131 1813 c 1
 150 1806 l 1
 163 1782 l 1
 173 1825 l 1
 198 1841 l 1
 217 1837 l 1
 210 1863 l 1
 224 1859 l 1
 227.484726255 1890.36253629 281.790877255 1916.02310386 244 1948 c 1
 244.666666667 1964.66666667 255.5 1985.16666667 276.5 2009.5 c 128
 297.5 2033.83333333 310 2054.66666667 314 2072 c 1
 659 1780 l 1
 703.520861574 1744.38331074 798.747900135 1729.95558627 778 1644 c 0
 774.170543946 1627.72481177 747.790941825 1578.35018004 745 1563 c 1
 601 1604 l 1
 601 1609 l 1
 560 1622 l 1
EndSplineSet
EndChar

StartChar: a
Encoding: 97 97 70
Width: 982
GlyphClass: 2
Flags: HW
LayerCount: 2
Fore
SplineSet
820 363 m 0
 818.567192426 363 812.932740584 367 811 367 c 128
 809.666666667 367 809 363 809 355 c 2
 809 339 l 2
 809 340.333333333 814 349 824 365 c 1
 822.666666667 363.666666667 821.333333333 363 820 363 c 0
468 483 m 0
 468 478.097181742 470 464.418764617 470 460 c 1
 452 460 l 1
 452 451.106358881 459 393.620306946 459 383 c 0
 459 358.333333333 452.666666667 337.333333333 440 320 c 1
 441 298 l 1
 459 320 l 1
 569 320 l 1
 567.503167583 334.968324174 565.684623492 398.838388574 564 414 c 0
 564 415.721346522 553 434.830095383 553 437 c 0
 553 445.157559493 560 474.559619808 560 483 c 0
 560 510.872074221 562.959676966 576 536 576 c 1
 553 600 l 1
 536 600 l 1
 551 620 l 1
 534 620 l 1
 532 645 l 1
 543.333333333 645 549 652.333333333 549 667 c 1
 531 667 l 1
 526 779 l 1
 522.666666667 754.333333333 512.166666667 708.5 494.5 641.5 c 128
 476.833333333 574.5 468 521.666666667 468 483 c 0
838 521 m 2
 838 426.16036062 792 107.509819215 792 13 c 0
 792 -93 781.666666667 -147.333333333 761 -150 c 1
 746 -134 l 1
 722 -138 l 1
 706 -116 l 1
 662 -135 l 1
 665 -132 l 1
 621 -91 l 1
 584 -118 l 1
 560 -116 l 1
 581 -91 l 1
 581 -66.7899096123 592 11.5731738242 592 36 c 1
 574 24 l 1
 556 46 l 1
 572 46 l 1
 555.333333333 68 541 91.3333333333 529 116 c 1
 499 110 l 1
 476 128 l 1
 458 91 l 1
 476 91 l 1
 478 69 l 1
 463 72 l 1
 463 67.4909369146 464 59.2419146374 464 55 c 0
 464 36.5797725241 453.31731607 -28 436 -28 c 0
 429.333333333 -28 424.666666667 -22.6666666667 422 -12 c 1
 418 -72 408.666666667 -122.333333333 394 -163 c 1
 371 -140 l 1
 371 -154 l 2
 371 -183.849109739 344.481455704 -186 314 -186 c 1
 312 -163 l 1
 292.666666667 -169.666666667 267.666666667 -175.333333333 237 -180 c 1
 207.008319164 -144.009982997 202.102851557 -93.8279290532 201.5 -24.5 c 128
 201.166666667 13.8333333333 200.666666667 37.3333333333 200 46 c 1
 216 44 l 1
 220 69 l 1
 190.349666377 77.0864546245 191.562077006 198.03273048 183 228 c 1
 215.479149178 228 220 269.427631032 220 302 c 128
 220 305 220 305 220 320 c 1
 200 298 l 1
 196 375 l 1
 196 429.346132739 208.644262237 561.14694469 222 600 c 1
 204 600 l 1
 205.932895246 611.597371474 239 695.659003541 239 700 c 0
 239 746.1279146 206 895.340216043 206 942 c 0
 206 969.143243778 223.650312726 997.678300909 242 1008 c 1
 218.666666667 1083.33333333 206.666666667 1165 206 1253 c 1
 222 1277 l 1
 210 1282.33333333 177.833333333 1313.16666667 125.5 1369.5 c 128
 73.1666666667 1425.83333333 39 1454 23 1454 c 2
 17 1454 l 1
 17 1504.45029878 528.136616619 1527 601 1527 c 0
 611 1527 625 1519 643 1503 c 1
 693 1519.66666667 762.666666667 1528 852 1528 c 2
 1021 1527 l 1
 894.053856258 1447.65866016 827 1353.0446634 827 1145 c 130
 827 1038 l 2
 827 909.333333333 813 816.666666667 785 760 c 1
 797.666666667 760 804 767.666666667 804 783 c 2
 804 791 l 1
 822 806 l 1
 811.333333333 795.333333333 806 776.666666667 806 750 c 0
 806 721.858275055 834.438894835 572.85547231 836 551 c 1
 817 551 l 1
 817 590 l 1
 805 566 799 541 799 515 c 2
 799 505 l 1
 822 477 l 1
 818 529 l 1
 838 529 l 1
 838 521 l 2
662 -135 m 1
 660 -138 l 1
 660 -136 660.666666667 -135 662 -135 c 1
EndSplineSet
EndChar

StartChar: b
Encoding: 98 98 71
Width: 1250
GlyphClass: 2
Flags: HW
LayerCount: 2
Fore
SplineSet
255 1060 m 1
 255 1082 l 1
 263.666666667 1082 270 1081 274 1079 c 1
 267.333333333 1075.66666667 261 1069.33333333 255 1060 c 1
781 65 m 1
 781 72.9603859059 778 98.0466337255 778 106 c 0
 778 124 785 133 799 133 c 1
 799 319 l 1
 781 319 l 1
 781 337 767.333333333 346 740 346 c 0
 734.2268446 346 714.383550592 344 709 344 c 0
 688.333333333 344 675.666666667 351 671 365 c 1
 645 319 627.333333333 296 618 296 c 1
 618 280 624 272 636 272 c 1
 636 110 l 1
 660.614011449 110 737.737345252 87 762 87 c 1
 762 72.3333333333 763.666666667 64.3333333333 767 63 c 1
 767 65.6666666667 768.666666667 67 772 67 c 0
 773.882944968 67 779.469649318 65 781 65 c 1
636 829 m 1
 636 809.545216578 635.750979874 805 618 805 c 1
 618 781 l 1
 636 781 l 1
 636 760 l 1
 655 736 l 1
 655 714 l 1
 636 714 l 1
 636 642 l 1
 646 642 l 2
 662.666666667 642 671 634.666666667 671 620 c 1
 700.135673298 620 755.782115951 597 781 597 c 1
 781 574 l 1
 799 597 l 1
 809.16456998 597 816 609.366694859 816 620 c 0
 816 634.666666667 810.333333333 642 799 642 c 1
 802.350227588 658.751137941 816 697.619840927 816 714 c 2
 816 781 l 2
 816 826.559635936 787.768541536 851 744 851 c 2
 671 851 l 1
 655 829 l 1
 636 829 l 1
1075 280 m 0
 1075 239.990017524 1038 127.32988477 1038 87 c 0
 1038 55 1022.83333333 15 992.5 -33 c 128
 962.166666667 -81 944.333333333 -118 939 -144 c 1
 919 -122 l 1
 919 -145 l 1
 858 -145 l 1
 839 -122 l 1
 818 -145 l 1
 798.163708616 -119.943631936 699.383004886 -73 655 -73 c 1
 636 -97 l 1
 616 -70 l 1
 600 -122 l 1
 563 -76 l 1
 582 -51 l 1
 565 -51 l 2
 481 -51 439 -67.6666666667 439 -101 c 1
 419 -122 l 1
 396.90272397 -120.526848265 382 -43.8916356443 382 -20 c 1
 387 19 l 1
 395 14 l 1
 401 19 l 1
 364 110 l 1
 377.333333333 125.333333333 384 156 384 202 c 1
 381 199 l 1
 348 228 l 1
 344 271 l 2
 344 278.333333333 350.666666667 302 364 342 c 1
 348 342 l 1
 334 365 l 1
 316.843928872 400.871785086 311 609.513410702 311 666 c 0
 311 738.171296739 255 965.100543494 255 1036 c 1
 292 1082 l 1
 274 1079 l 1
 274 1107 l 1
 268 1104 l 1
 259.333333333 1104 244.5 1120.66666667 223.5 1154 c 128
 202.5 1187.33333333 180.5 1224.5 157.5 1265.5 c 128
 116.451028631 1338.67425331 125.944180277 1333.0937619 74.5 1371 c 128
 55.5 1385 42 1397.66666667 34 1409 c 1
 54 1405 l 1
 88.6994098849 1405 181.727103131 1451.57816825 212 1454 c 1
 212 1433 l 1
 233 1454 l 1
 255 1429 l 1
 255 1454 l 1
 464.609091696 1496.32491275 675.929137809 1500 925 1500 c 0
 1173.74388012 1500 1201 1239.28817126 1201 992 c 0
 1201 928.025174523 1082.39739764 614.655055519 1061 574 c 1
 1082 549 l 1
 1064 546 l 1
 1041 578 l 1
 1041 514.666666667 1027.66666667 483 1001 483 c 1
 1002 493 l 2
 1002 498.235986945 988.778035502 505 983 505 c 2
 982 505 l 1
 997 483 l 1
 941 459 l 1
 1011.18573527 452.37870422 1075 356.679351953 1075 280 c 0
EndSplineSet
EndChar

StartChar: c
Encoding: 99 99 72
Width: 1094
GlyphClass: 2
Flags: HW
LayerCount: 2
Fore
SplineSet
340 -20 m 1
 338.666666667 -18.6666666667 337.333333333 -18 336 -18 c 128
 334.666666667 -18 334 -19.3333333333 334 -22 c 1
 334 -20.6666666667 336 -20 340 -20 c 1
569 -28 m 1
 567.666666667 -35.3333333333 562.333333333 -41.3333333333 553 -46 c 1
 563.666666667 -46 569 -40 569 -28 c 1
981 1344 m 1
 981 1288.96966212 1034.54788968 1259.54253238 1060 1229 c 1
 1060 1197.66666667 1045.33333333 1168.66666667 1016 1142 c 1
 1045.71690933 1132.09436356 1044 1072.80418059 1044 1033 c 0
 1044 971.666666667 1029.66666667 820.666666667 1001 580 c 1
 975.666666667 594.666666667 942.666666667 602 902 602 c 0
 886.434942031 602 839.371544772 600 824 600 c 0
 784.611904192 600 742.09502947 617.671491159 711 627 c 1
 694 602 l 1
 676 627 l 1
 676 642.623689858 694 657.958641206 694 673 c 0
 694 695.261095474 672.011489884 755.826630901 658 764 c 1
 676 789 l 1
 662 786 l 1
 658 806 l 1
 640 789 l 1
 626 813 619 832.333333333 619 847 c 0
 619 851.666666667 619.666666667 855.333333333 621 858 c 1
 587.058540279 858 557.760735032 829.944777711 553 799 c 1
 550 813 l 1
 532 829 l 1
 532 813 l 1
 517.333333333 813 510 803 510 783 c 0
 510 779.666666667 511 772 513 760 c 1
 493 742 l 1
 491 733 l 1
 491 708.430833697 518 634.915403352 518 610 c 1
 516.723786197 608.723786197 489 545.092120113 489 541 c 0
 489 484.333333333 496.666666667 411.666666667 512 323 c 128
 527.333333333 234.333333333 546.333333333 173.666666667 569 141 c 1
 585.545956365 141 602.919452547 185 621 185 c 1
 621 209 l 1
 647.949123246 244.932164328 647.616331614 287.233959119 661.5 334 c 128
 667.833333333 355.333333333 682 376.666666667 704 398 c 1
 768.683396263 398 888.659615496 358.698282844 920 324 c 1
 920 327 l 1
 942 324 l 1
 918 289.333333333 904 259 900 233 c 1
 920 233 l 1
 900 209 l 1
 903 183 l 1
 903 124.2921969 871.609417599 77.9449932174 845 45 c 128
 831 27.6666666667 823 13.6666666667 821 3 c 1
 802 24 l 1
 783.607785067 -0.522953244343 730.790358377 -89.0432503854 711 -113 c 1
 711 -91 l 1
 676 -138 l 1
 666.640829206 -94.3238696286 634.068431842 -22 585 -22 c 1
 605 -46 l 1
 605 -91 l 1
 578 -94 l 1
 554.646752701 -95.4595779562 550 -70.1244441097 550 -46 c 1
 513 -46 l 1
 501 -28.6666666667 488.333333333 -16.6666666667 475 -10 c 1
 482.038779638 -35.8088586731 493 -57.2046794792 493 -91 c 1
 452 -113 l 1
 432 -91 l 1
 434 -56 l 1
 434 -37.9778055328 411.568543103 -22 394 -22 c 0
 381.760596887 -22 344.74553284 -46 333 -46 c 0
 300.298785649 -46 282.479096095 28.2471184733 274 57.5 c 128
 267.333333333 80.5 260.333333333 92 253 92 c 1
 274 118 l 1
 225.333333333 118 198.333333333 195 193 349 c 1
 172 349 l 1
 172 398.819057586 132 552.534165712 132 602 c 1
 158 637 l 1
 153 649 l 1
 132 628 l 1
 132 649 l 1
 108.087654627 765.145677527 53 926.340802481 53 1066 c 0
 53 1178.27390104 116.51014714 1302.63177068 172 1367 c 1
 213 1344 l 1
 213 1377 l 1
 262.689312197 1428.75970021 361.577543334 1505.41364111 452 1507 c 1
 452 1484 l 1
 466.586188627 1502.75367109 501.480693368 1528 532 1528 c 0
 658.191680628 1528 754.915510074 1518.34427673 834 1466.5 c 128
 864 1446.83333333 892.666666667 1421.33333333 920 1390 c 1
 900 1390 l 1
 900 1367 l 1
 920 1367 l 1
 942 1390 l 1
 981 1344 l 1
EndSplineSet
EndChar

StartChar: d
Encoding: 100 100 73
Width: 1175
GlyphClass: 2
Flags: HW
LayerCount: 2
Fore
SplineSet
654 100 m 1
 654 119.211326925 654.607042029 122 673 122 c 1
 673 168 l 1
 690 168 l 1
 709 146 l 1
 727 146 l 1
 744 168 l 1
 758 168 765 181 765 207 c 0
 765 216.128447855 762 252.874764091 762 261 c 1
 767.873575472 269.810363208 788.535904137 355 798 355 c 1
 798 366.414634509 795 399.153149116 795 411 c 0
 795 435 802.333333333 447 817 447 c 1
 817 462.333333333 812.333333333 470 803 470 c 1
 812.333333333 472.666666667 817 480.333333333 817 493 c 2
 817 586 l 2
 817 616.666666667 810.666666667 640 798 656 c 1
 798 723.676407748 773.904265899 793 709 793 c 2
 654 793 l 1
 654 767.148330841 641.868632055 726 617 726 c 1
 617 748 l 1
 601 748 l 1
 601 738.757481189 608.148260715 726 617 726 c 1
 617 656 l 1
 601 632 l 1
 601 610 l 1
 617 610 l 1
 617 539 l 2
 617 521.829889332 617.357213697 515 601 515 c 1
 601 447 l 2
 601 429.647751526 600.438942351 424 617 424 c 1
 617 355 l 1
 601 355 l 1
 601 343.742105074 606.450558709 330 617 330 c 1
 601 309 l 1
 601 261 l 2
 601 245 606.333333333 229.333333333 617 214 c 1
 617 192 l 1
 630.333333333 174.666666667 637 157.666666667 637 141 c 0
 637 133.218389852 636 108.125144248 636 100 c 1
 654 100 l 1
636 -178 m 1
 636 -118.109394508 633.619818716 -60 574 -60 c 0
 499.307915813 -60 467.363146526 -77.4561782477 451 -132 c 128
 440.30002414 -167.666586199 421.945914876 -218.506450196 402 -250 c 1
 383 -224 l 1
 383 -183 l 130
 383 -145.016065569 377.720737236 -112.371658781 366 -86 c 1
 383 -86 l 1
 366 -63 l 1
 366 163 341.5 407.666666667 292.5 671 c 128
 243.5 934.333333333 177.666666667 1160.66666667 95 1350 c 1
 104 1346 l 1
 116 1397 l 1
 95 1419 l 1
 76 1399 l 1
 76 1417.314963 62.745512555 1419 44 1419 c 2
 21 1419 l 1
 48.3799547973 1422.57129845 142.989870866 1466 176 1466 c 0
 262.953148367 1466 531.939543539 1512 617 1512 c 0
 664.099759551 1512 807.933033712 1468 856 1468 c 2
 871 1468 l 1
 909 1441 l 1
 915 1441 952 1405.5 1020 1334.5 c 128
 1088 1263.5 1123.66666667 1222.33333333 1127 1211 c 1
 1107 1211 l 1
 1145.90596423 1168.20343935 1148 1100.04947812 1148 1020 c 0
 1148 871.866680596 1097.51391871 679.294864259 1058.5 564 c 128
 1020.06714463 450.422308003 968.456512566 264.738231435 967 122 c 1
 947 122 l 1
 947 10.7883493268 901.396279083 -96.2402277994 842 -152 c 1
 835 -134 l 1
 817 -155 l 1
 829 -155 l 1
 781 -178 l 1
 762 -155 l 1
 727 -201 l 1
 690 -155 l 1
 671 -183 l 1
 636 -178 l 1
842 -152 m 1
 848 -155 l 1
 835 -155 l 1
 842 -152 l 1
EndSplineSet
EndChar

StartChar: e
Encoding: 101 101 74
Width: 1295
GlyphClass: 2
Flags: HW
LayerCount: 2
Fore
SplineSet
406 -134 m 1
 373.014540964 44.1214787938 303 305.840143117 303 513 c 0
 303 533.666666667 303.666666667 549 305 559 c 1
 286 582 l 1
 188 1162 l 1
 208 1162 l 1
 208 1186 l 1
 188 1186 l 1
 160.11846996 1232.46921673 142.043917642 1289.79885792 107.5 1327 c 128
 84.1656856849 1352.12926157 59.2877678506 1377.63641484 26 1393 c 1
 48 1393 l 1
 84 1423.66666667 146.666666667 1448 236 1466 c 128
 395.298204508 1498.09739942 512.795123423 1505 686 1505 c 0
 852 1505 1036.33333333 1483 1239 1439 c 1
 1205.45102853 1402.09613138 1078 1194.05901974 1078 1125 c 0
 1078 1087 1071.33333333 1060.66666667 1058 1046 c 1
 1060 1013 l 1
 1060 959.666666667 1046 870.333333333 1018 745 c 1
 962.666666667 775.666666667 924 791 902 791 c 0
 865.333333333 791 840.333333333 798.333333333 827 813 c 1
 749.506085489 813 678.947266607 826.27148422 611 837 c 1
 623 830.333333333 629 796.666666667 629 736 c 0
 629 717.924959547 625 643.531209355 625 628 c 1
 926 628 l 1
 926 466 l 2
 926 437.202314904 906.129069705 311.043023235 885 304 c 1
 827 351 l 1
 646 351 l 1
 625 329 l 1
 625 164 l 1
 646 148 l 1
 664 164 l 1
 646 212 l 1
 702.983499051 210.787585127 901.549268865 189 962 189 c 1
 962 164 l 2
 962 150.830921164 944 88.2493992634 944 73 c 1
 926 48 l 1
 944 26 l 1
 944 3 l 1
 926 3 l 1
 926 -18 l 1
 944 -43 l 1
 931.205769564 -60.9119226109 926 -86.9375811446 926 -117.5 c 130
 926 -158 l 1
 908 -134 l 1
 885 -134 l 1
 885 -66 l 1
 865 -43 l 1
 766 -43 l 1
 752.666666667 -58.3333333333 730.333333333 -66 699 -66 c 0
 690.569907802 -66 663.595106134 -65 655 -65 c 1
 625 -89 l 1
 585 -43 l 1
 585 -18 l 1
 571.666666667 -4 552 3 526 3 c 2
 486 3 l 1
 465 -18 l 1
 465 -43 l 1
 440.061509614 -43 430.050902646 -113 406 -113 c 1
 406 -134 l 1
EndSplineSet
EndChar

StartChar: f
Encoding: 102 102 75
Width: 1146
GlyphClass: 2
Flags: HW
LayerCount: 2
Fore
SplineSet
322 -87 m 2
 326 -77 l 1
 326 -86 l 1
 324.666666667 -86 323.333333333 -86.3333333333 322 -87 c 2
605 360 m 0
 605 352.060218621 606 324.61036181 606 317 c 1
 586 317 l 1
 606 294 l 1
 606 185 l 2
 606 114.695972769 624 -107.352393672 624 -178 c 1
 606 -201 l 1
 606 -178 l 1
 586 -155 l 1
 594.541485863 -137.917028275 606 -122.557983918 606 -99 c 0
 606 -43.0617746658 582.288366085 -30 527 -30 c 1
 515 -48.6666666667 508.5 -78.6666666667 507.5 -120 c 128
 506.5 -161.333333333 499.666666667 -189.666666667 487 -205 c 1
 487 -180 l 1
 466 -155 l 1
 466 -77 l 1
 439.333333333 -41 418.333333333 -19.3333333333 403 -12 c 0
 397 -8.66666666667 391 -7 385 -7 c 0
 340.713404291 -7 329.191248587 -75.8087514133 306 -99 c 1
 306 -124 l 2
 306 -112.666666667 310.666666667 -101.666666667 320 -91 c 1
 312 -111 307.333333333 -125.333333333 306 -134 c 1
 306 -155 l 1
 286 -124 l 1
 286 178 l 1
 298 194.666666667 304 218.666666667 304 250 c 2
 304 290 l 2
 304 322.666666667 311.333333333 347.666666667 326 365 c 1
 306 387 l 1
 306 409 l 1
 286 431 l 1
 305 456 l 1
 286 481 l 1
 286 758 l 1
 272.277648951 775.464810426 269.970287293 826.178276244 265.5 853 c 128
 263.166666667 867 257.333333333 874 248 874 c 1
 248 1152 l 2
 248 1178.31647686 209 1242.10618755 209 1267 c 1
 175 1311 115 1372.66666667 29 1452 c 1
 248 1498 l 1
 261.333333333 1482 280.333333333 1474 305 1474 c 1
 323 1498 l 1
 557 1498 l 1
 570.333333333 1482 589.333333333 1474 614 1474 c 0
 628 1474 645.333333333 1482 666 1498 c 1
 666 1452 l 1
 701 1498 l 1
 765.598498971 1486.69526268 895.751104183 1475.40581579 964.5 1463 c 128
 1008.83333333 1455 1050 1443.66666667 1088 1429 c 1
 1057.33333333 1429 1030.5 1401.83333333 1007.5 1347.5 c 128
 965.935716911 1249.31191096 944.586669648 1064.55051601 935 936.5 c 128
 930.333333333 874.166666667 928 822.333333333 928 781 c 1
 948 781 l 1
 948 735 l 1
 928.666666667 739.666666667 895.833333333 752.166666667 849.5 772.5 c 128
 803.166666667 792.833333333 766 803 738 803 c 1
 738 827 l 1
 720 827 l 1
 720 803 l 1
 630 803 l 1
 618.666666667 816.333333333 600.333333333 824.333333333 575 827 c 1
 588.333333333 807 595 777.333333333 595 738 c 0
 595 726 594.333333333 717.333333333 593 712 c 1
 575 688 l 1
 847 688 l 1
 861 663 l 1
 847 642 l 1
 847 503 l 1
 827 503 l 1
 840.702495654 480.162507243 877 443.27943282 877 409 c 0
 877 402.797469715 860.577760315 368.222200394 858 365 c 1
 844 397.666666667 807 414 747 414 c 0
 736.333333333 414 719.333333333 412.333333333 696 409 c 1
 696 431 l 1
 678 431 l 1
 678 409 l 1
 660 431 l 1
 660 409 l 1
 624 409 l 1
 624 431 l 1
 611.333333333 415 605 391.333333333 605 360 c 0
EndSplineSet
EndChar

StartChar: g
Encoding: 103 103 76
Width: 1120
GlyphClass: 2
Flags: HW
LayerCount: 2
Fore
SplineSet
592 536 m 1
 597.890133968 533.643946413 1006.87040132 440 1028 440 c 1
 984.344713417 350.264133134 995.295043131 178.265065019 986 56.5 c 128
 981.057566584 -8.24587775019 966.024282038 -91 906 -91 c 1
 864 -126.333333333 831.666666667 -149.666666667 809 -161 c 1
 809 -147 l 2
 809 -124.333333333 802.666666667 -113 790 -113 c 1
 790 -91 l 1
 773 -81 l 1
 754 -113 l 1
 732 -125 l 1
 718 -113 l 1
 701 -138 l 1
 683 -138 l 1
 683 -161 l 1
 664 -176 l 1
 664 -138 l 1
 646 -161 l 1
 610 -113 l 1
 574 -113 l 1
 574 -91 l 1
 557 -91 l 1
 557 -113 l 1
 544.333333333 -129.666666667 538 -153.666666667 538 -185 c 1
 510.603144897 -183.558060258 502 -142.936577753 502 -113 c 1
 484 -91 l 1
 466 -91 l 1
 463.660447092 -123.753740712 444.54243549 -161 411 -161 c 1
 394 -138 l 1
 411 -138 l 1
 411 -113 l 1
 376 -113 l 1
 358 -91 l 1
 342 -91 330 -68 322 -22 c 1
 308 -35 l 1
 262.728463206 -35 245.461718169 137.454333073 223 164 c 1
 223 306 189.666666667 460.333333333 123 627 c 1
 142 627 l 1
 130 640.333333333 113.5 714.833333333 92.5 850.5 c 128
 71.5 986.166666667 61 1073.66666667 61 1113 c 0
 61 1159 68.6666666667 1190.33333333 84 1207 c 1
 84 1298 l 1
 163 1367 l 1
 202 1367 l 1
 202 1436.79059646 295.709504802 1488 365 1488 c 0
 373.666666667 1488 383.333333333 1486.66666667 394 1484 c 1
 406 1499.33333333 427.333333333 1507 458 1507 c 2
 466 1507 l 1
 466 1484 l 1
 484 1484 l 1
 484 1500 489.666666667 1508 501 1508 c 2
 521 1507 l 1
 484 1438 l 1
 521 1484 l 1
 557 1462 l 1
 538 1484 l 1
 538 1507 l 1
 574 1484 l 1
 599.333333333 1491.33333333 613 1495 615 1495 c 0
 755.898884891 1495 868.056413824 1438.30047 945 1365.5 c 128
 1027.69500977 1287.25779844 1086 1156.16401684 1086 998 c 0
 1086 978.666666667 1074.83333333 921.666666667 1052.5 827 c 128
 1030.16666667 732.333333333 1019 665 1019 625 c 0
 1019 591.666666667 1025 569.333333333 1037 558 c 1
 992.333333333 558 931 565.333333333 853 580 c 128
 775 594.666666667 718.333333333 602 683 602 c 1
 670.333333333 618 664 633.666666667 664 649 c 2
 664 673 l 1
 683 673 l 1
 646 717 l 1
 664 742 l 1
 646 742 l 1
 628 766 l 1
 628 801 l 1
 610 789 l 1
 599.90711826 815.914351306 589.817319562 834 557 834 c 1
 538 858 l 1
 521 834 l 1
 484 834 l 1
 484 791 l 2
 484 759 478 734.333333333 466 717 c 1
 466 627 l 1
 448 627 l 1
 448 602 l 1
 466 580 l 1
 466 551 l 2
 466 548.333333333 460 527 448 487 c 1
 466 464 l 1
 484 464 l 1
 483 421 l 2
 483 403 489.333333333 386.333333333 502 371 c 1
 502 330 l 2
 502 298 508.333333333 273 521 255 c 1
 502 255 l 1
 502 233 l 1
 521 245 l 1
 538 209 l 1
 521 187 l 1
 538 187 l 1
 574 141 l 1
 574 118 l 1
 592 141 l 1
 610 141 l 1
 628 118 l 1
 628 141 l 1
 666 141 696 156.333333333 718 187 c 1
 728 187 l 1
 718 280 l 1
 701 280 l 2
 680.373728547 280 624.760403994 237.541662767 610 233 c 1
 610 289.778066447 592 479.482858053 592 536 c 1
664 -138 m 1
 683 -138 l 1
 683 -113 l 1
 664 -138 l 1
EndSplineSet
EndChar

